  0
SECTION
  2
HEADER
  9
$ACADVER
  1
AC1009
  9
$DWGCODEPAGE
  3
ansi_1252
  9
$INSBASE
 10
0.0
 20
0.0
 30
0.0
  9
$EXTMIN
 10
0.0022780013936702
 20
-0.0504459696038124
 30
0.0
  9
$EXTMAX
 10
22.12673558773363
 20
22.02833079791408
 30
0.0
  9
$LIMMIN
 10
0.0
 20
0.0
  9
$LIMMAX
 10
12.0
 20
9.0
  9
$ORTHOMODE
 70
     0
  9
$REGENMODE
 70
     1
  9
$FILLMODE
 70
     1
  9
$QTEXTMODE
 70
     0
  9
$MIRRTEXT
 70
     1
  9
$DRAGMODE
 70
     2
  9
$LTSCALE
 40
1.0
  9
$OSMODE
 70
    37
  9
$ATTMODE
 70
     1
  9
$TEXTSIZE
 40
0.2
  9
$TRACEWID
 40
0.05
  9
$TEXTSTYLE
  7
STANDARD
  9
$CLAYER
  8
0
  9
$CELTYPE
  6
BYLAYER
  9
$CECOLOR
 62
   256
  9
$DIMSCALE
 40
1.0
  9
$DIMASZ
 40
0.18
  9
$DIMEXO
 40
0.0625
  9
$DIMDLI
 40
0.38
  9
$DIMRND
 40
0.0
  9
$DIMDLE
 40
0.0
  9
$DIMEXE
 40
0.18
  9
$DIMTP
 40
0.0
  9
$DIMTM
 40
0.0
  9
$DIMTXT
 40
0.18
  9
$DIMCEN
 40
0.09
  9
$DIMTSZ
 40
0.0
  9
$DIMTOL
 70
     0
  9
$DIMLIM
 70
     0
  9
$DIMTIH
 70
     1
  9
$DIMTOH
 70
     1
  9
$DIMSE1
 70
     0
  9
$DIMSE2
 70
     0
  9
$DIMTAD
 70
     0
  9
$DIMZIN
 70
     0
  9
$DIMBLK
  1

  9
$DIMASO
 70
     1
  9
$DIMSHO
 70
     1
  9
$DIMPOST
  1

  9
$DIMAPOST
  1

  9
$DIMALT
 70
     0
  9
$DIMALTD
 70
     2
  9
$DIMALTF
 40
25.4
  9
$DIMLFAC
 40
1.0
  9
$DIMTOFL
 70
     0
  9
$DIMTVP
 40
0.0
  9
$DIMTIX
 70
     0
  9
$DIMSOXD
 70
     0
  9
$DIMSAH
 70
     0
  9
$DIMBLK1
  1

  9
$DIMBLK2
  1

  9
$DIMSTYLE
  2
STANDARD
  9
$DIMCLRD
 70
     0
  9
$DIMCLRE
 70
     0
  9
$DIMCLRT
 70
     0
  9
$DIMTFAC
 40
1.0
  9
$DIMGAP
 40
0.09
  9
$LUNITS
 70
     2
  9
$LUPREC
 70
     4
  9
$SKETCHINC
 40
0.1
  9
$FILLETRAD
 40
0.5
  9
$AUNITS
 70
     0
  9
$AUPREC
 70
     0
  9
$MENU
  1
.
  9
$ELEVATION
 40
0.0
  9
$PELEVATION
 40
0.0
  9
$THICKNESS
 40
0.0
  9
$LIMCHECK
 70
     0
  9
$CHAMFERA
 40
0.0
  9
$CHAMFERB
 40
0.0
  9
$SKPOLY
 70
     0
  9
$TDCREATE
 40
2454910.5
  9
$TDUPDATE
 40
2458224.65008
  9
$TDINDWG
 40
0.0000000116
  9
$TDUSRTIMER
 40
0.0000000116
  9
$USRTIMER
 70
     1
  9
$ANGBASE
 50
0.0
  9
$ANGDIR
 70
     0
  9
$PDMODE
 70
     0
  9
$PDSIZE
 40
0.0
  9
$PLINEWID
 40
0.0
  9
$COORDS
 70
     1
  9
$SPLFRAME
 70
     0
  9
$SPLINETYPE
 70
     6
  9
$SPLINESEGS
 70
     8
  9
$ATTDIA
 70
     0
  9
$ATTREQ
 70
     1
  9
$HANDLING
 70
     1
  9
$HANDSEED
  5
188
  9
$SURFTAB1
 70
     6
  9
$SURFTAB2
 70
     6
  9
$SURFTYPE
 70
     6
  9
$SURFU
 70
     6
  9
$SURFV
 70
     6
  9
$UCSNAME
  2

  9
$UCSORG
 10
0.0
 20
0.0
 30
0.0
  9
$UCSXDIR
 10
1.0
 20
0.0
 30
0.0
  9
$UCSYDIR
 10
0.0
 20
1.0
 30
0.0
  9
$PUCSNAME
  2

  9
$PUCSORG
 10
0.0
 20
0.0
 30
0.0
  9
$PUCSXDIR
 10
1.0
 20
0.0
 30
0.0
  9
$PUCSYDIR
 10
0.0
 20
1.0
 30
0.0
  9
$USERI1
 70
     0
  9
$USERI2
 70
     0
  9
$USERI3
 70
     0
  9
$USERI4
 70
     0
  9
$USERI5
 70
     0
  9
$USERR1
 40
0.0
  9
$USERR2
 40
0.0
  9
$USERR3
 40
0.0
  9
$USERR4
 40
0.0
  9
$USERR5
 40
0.0
  9
$WORLDVIEW
 70
     1
  9
$SHADEDGE
 70
     3
  9
$SHADEDIF
 70
    70
  9
$TILEMODE
 70
     1
  9
$MAXACTVP
 70
    64
  9
$PLIMCHECK
 70
     0
  9
$PEXTMIN
 10
1.000000000000000E+20
 20
1.000000000000000E+20
 30
1.000000000000000E+20
  9
$PEXTMAX
 10
-1.000000000000000E+20
 20
-1.000000000000000E+20
 30
-1.000000000000000E+20
  9
$PLIMMIN
 10
0.0
 20
0.0
  9
$PLIMMAX
 10
12.0
 20
9.0
  9
$UNITMODE
 70
     0
  9
$VISRETAIN
 70
     1
  9
$PLINEGEN
 70
     0
  9
$PSLTSCALE
 70
     1
  0
ENDSEC
  0
SECTION
  2
TABLES
  0
TABLE
  2
VPORT
 70
     1
  0
VPORT
  2
*ACTIVE
 70
     0
 10
0.0
 20
0.0
 11
1.0
 21
1.0
 12
10.42990654205607
 22
4.5
 13
0.0
 23
0.0
 14
0.5
 24
0.5
 15
0.5
 25
0.5
 16
0.0
 26
0.0
 36
1.0
 17
0.0
 27
0.0
 37
0.0
 40
9.0
 41
1.972972972850329
 42
50.0
 43
0.0
 44
0.0
 50
0.0
 51
0.0
 71
     0
 72
   100
 73
     1
 74
     3
 75
     0
 76
     0
 77
     0
 78
     0
  0
ENDTAB
  0
TABLE
  2
LTYPE
 70
     2
  0
LTYPE
  2
CONTINUOUS
 70
     0
  3
Solid line
 72
    65
 73
     0
 40
0.0
  0
LTYPE
  2
CONTINUOUS2
 70
     0
  3
Solid Line
 72
    65
 73
     0
 40
0.0
  0
ENDTAB
  0
TABLE
  2
LAYER
 70
     1
  0
LAYER
  2
0
 70
     0
 62
     7
  6
CONTINUOUS
  0
ENDTAB
  0
TABLE
  2
STYLE
 70
     1
  0
STYLE
  2
STANDARD
 70
     0
 40
0.0
 41
1.0
 50
0.0
 71
     0
 42
0.2
  3
txt
  4

  0
ENDTAB
  0
TABLE
  2
VIEW
 70
     0
  0
ENDTAB
  0
TABLE
  2
UCS
 70
     0
  0
ENDTAB
  0
TABLE
  2
APPID
 70
     1
  0
APPID
  2
ACAD
 70
     0
  0
ENDTAB
  0
TABLE
  2
DIMSTYLE
 70
     1
  0
DIMSTYLE
  2
STANDARD
 70
     0
  3

  4

  5

  6

  7

 40
1.0
 41
0.18
 42
0.0625
 43
0.38
 44
0.18
 45
0.0
 46
0.0
 47
0.0
 48
0.0
140
0.18
141
0.09
142
0.0
143
25.4
144
1.0
145
0.0
146
1.0
147
0.09
 71
     0
 72
     0
 73
     1
 74
     1
 75
     0
 76
     0
 77
     0
 78
     0
170
     0
171
     2
172
     0
173
     0
174
     0
175
     0
176
     0
177
     0
178
     0
  0
ENDTAB
  0
ENDSEC
  0
SECTION
  2
BLOCKS
  0
BLOCK
  8
0
  2
$MODEL_SPACE
 70
     0
 10
0.0
 20
0.0
 30
0.0
  3
$MODEL_SPACE
  1

  0
ENDBLK
  5
21
  8
0
  0
BLOCK
 67
     1
  8
0
  2
$PAPER_SPACE
 70
     0
 10
0.0
 20
0.0
 30
0.0
  3
$PAPER_SPACE
  1

  0
ENDBLK
  5
1D
 67
     1
  8
0
  0
ENDSEC
  0
SECTION
  2
ENTITIES
  0
POLYLINE
  5
6F
  8
0
 66
     1
 10
0.0
 20
0.0
 30
0.0
 70
     1
  0
VERTEX
  5
A1
  8
0
 10
7.92421393962135
 20
2.73147565478412
 30
0.0
 42
0.4142135623730951
  0
VERTEX
  5
A2
  8
0
 10
8.124213939621352
 20
2.531475654784114
 30
0.0
 42
0.4142135623730951
  0
VERTEX
  5
A3
  8
0
 10
8.324213939621348
 20
2.73147565478412
 30
0.0
 42
0.4142135623730951
  0
VERTEX
  5
A4
  8
0
 10
8.124213939621352
 20
2.931475654784116
 30
0.0
 42
0.4142135623730951
  0
SEQEND
  5
15D
  8
0
  0
POLYLINE
  5
70
  8
0
 66
     1
 10
0.0
 20
0.0
 30
0.0
 70
     1
  0
VERTEX
  5
A5
  8
0
 10
7.92421393962135
 20
6.076360119741919
 30
0.0
 42
0.4142135623730951
  0
VERTEX
  5
A6
  8
0
 10
8.124213939621352
 20
5.87636011974192
 30
0.0
 42
0.4142135623730951
  0
VERTEX
  5
A7
  8
0
 10
8.324213939621348
 20
6.076360119741919
 30
0.0
 42
0.4142135623730951
  0
VERTEX
  5
A8
  8
0
 10
8.124213939621352
 20
6.276360119741922
 30
0.0
 42
0.4142135623730951
  0
SEQEND
  5
15E
  8
0
  0
POLYLINE
  5
71
  8
0
 66
     1
 10
0.0
 20
0.0
 30
0.0
 70
     1
  0
VERTEX
  5
A9
  8
0
 10
7.92421393962135
 20
9.421244584699721
 30
0.0
 42
0.4142135623730951
  0
VERTEX
  5
AA
  8
0
 10
8.124213939621352
 20
9.221244584699722
 30
0.0
 42
0.4142135623730951
  0
VERTEX
  5
AB
  8
0
 10
8.324213939621348
 20
9.421244584699721
 30
0.0
 42
0.4142135623730951
  0
VERTEX
  5
AC
  8
0
 10
8.124213939621352
 20
9.621244584699724
 30
0.0
 42
0.4142135623730951
  0
SEQEND
  5
15F
  8
0
  0
POLYLINE
  5
72
  8
0
 66
     1
 10
0.0
 20
0.0
 30
0.0
 70
     1
  0
VERTEX
  5
AD
  8
0
 10
9.885567457951257
 20
20.64833079791407
 30
0.0
 42
0.4142135623730951
  0
VERTEX
  5
AE
  8
0
 10
10.01556745795126
 20
20.77833079791408
 30
0.0
 42
0.4142135623730951
  0
VERTEX
  5
AF
  8
0
 10
9.885567457951257
 20
20.90833079791408
 30
0.0
 42
0.4142135623730951
  0
VERTEX
  5
B0
  8
0
 10
9.755567457951262
 20
20.77833079791408
 30
0.0
 42
0.4142135623730951
  0
SEQEND
  5
160
  8
0
  0
POLYLINE
  5
73
  8
0
 66
     1
 10
0.0
 20
0.0
 30
0.0
 70
     1
  0
VERTEX
  5
B1
  8
0
 10
3.135567457951286
 20
20.64833079791407
 30
0.0
 42
0.4142135623730951
  0
VERTEX
  5
B2
  8
0
 10
3.265567457951281
 20
20.77833079791408
 30
0.0
 42
0.4142135623730951
  0
VERTEX
  5
B3
  8
0
 10
3.135567457951286
 20
20.90833079791408
 30
0.0
 42
0.4142135623730951
  0
VERTEX
  5
B4
  8
0
 10
3.005567457951283
 20
20.77833079791408
 30
0.0
 42
0.4142135623730951
  0
SEQEND
  5
161
  8
0
  0
POLYLINE
  5
74
  8
0
 66
     1
 10
0.0
 20
0.0
 30
0.0
 70
     1
  0
VERTEX
  5
B5
  8
0
 10
9.385567457951257
 20
20.89833079791407
 30
0.0
 42
0.4142135623730951
  0
VERTEX
  5
B6
  8
0
 10
9.51556745795125
 20
21.02833079791408
 30
0.0
 42
0.4142135623730951
  0
VERTEX
  5
B7
  8
0
 10
9.385567457951257
 20
21.15833079791408
 30
0.0
 42
0.4142135623730951
  0
VERTEX
  5
B8
  8
0
 10
9.255567457951251
 20
21.02833079791408
 30
0.0
 42
0.4142135623730951
  0
SEQEND
  5
162
  8
0
  0
POLYLINE
  5
75
  8
0
 66
     1
 10
0.0
 20
0.0
 30
0.0
 70
     1
  0
VERTEX
  5
B9
  8
0
 10
2.635567457951289
 20
20.89833079791407
 30
0.0
 42
0.4142135623730951
  0
VERTEX
  5
BA
  8
0
 10
2.765567457951285
 20
21.02833079791408
 30
0.0
 42
0.4142135623730951
  0
VERTEX
  5
BB
  8
0
 10
2.635567457951289
 20
21.15833079791408
 30
0.0
 42
0.4142135623730951
  0
VERTEX
  5
BC
  8
0
 10
2.505567457951287
 20
21.02833079791408
 30
0.0
 42
0.4142135623730951
  0
SEQEND
  5
163
  8
0
  0
POLYLINE
  5
76
  8
0
 66
     1
 10
0.0
 20
0.0
 30
0.0
 70
     1
  0
VERTEX
  5
BD
  8
0
 10
3.135567457951286
 20
21.14833079791407
 30
0.0
 42
0.4142135623730951
  0
VERTEX
  5
BE
  8
0
 10
3.265567457951281
 20
21.27833079791407
 30
0.0
 42
0.4142135623730951
  0
VERTEX
  5
BF
  8
0
 10
3.135567457951286
 20
21.40833079791408
 30
0.0
 42
0.4142135623730951
  0
VERTEX
  5
C0
  8
0
 10
3.005567457951283
 20
21.27833079791407
 30
0.0
 42
0.4142135623730951
  0
SEQEND
  5
164
  8
0
  0
POLYLINE
  5
77
  8
0
 66
     1
 10
0.0
 20
0.0
 30
0.0
 70
     1
  0
VERTEX
  5
C1
  8
0
 10
9.885567457951257
 20
21.14833079791407
 30
0.0
 42
0.4142135623730951
  0
VERTEX
  5
C2
  8
0
 10
10.01556745795126
 20
21.27833079791407
 30
0.0
 42
0.4142135623730951
  0
VERTEX
  5
C3
  8
0
 10
9.885567457951257
 20
21.40833079791408
 30
0.0
 42
0.4142135623730951
  0
VERTEX
  5
C4
  8
0
 10
9.755567457951262
 20
21.27833079791407
 30
0.0
 42
0.4142135623730951
  0
SEQEND
  5
165
  8
0
  0
POLYLINE
  5
78
  8
0
 66
     1
 10
0.0
 20
0.0
 30
0.0
 70
     1
  0
VERTEX
  5
C5
  8
0
 10
9.385567457951257
 20
21.39833079791407
 30
0.0
 42
0.4142135623730951
  0
VERTEX
  5
C6
  8
0
 10
9.51556745795125
 20
21.52833079791407
 30
0.0
 42
0.4142135623730951
  0
VERTEX
  5
C7
  8
0
 10
9.385567457951257
 20
21.65833079791408
 30
0.0
 42
0.4142135623730951
  0
VERTEX
  5
C8
  8
0
 10
9.255567457951251
 20
21.52833079791407
 30
0.0
 42
0.4142135623730951
  0
SEQEND
  5
166
  8
0
  0
POLYLINE
  5
79
  8
0
 66
     1
 10
0.0
 20
0.0
 30
0.0
 70
     1
  0
VERTEX
  5
C9
  8
0
 10
2.635567457951289
 20
21.39833079791407
 30
0.0
 42
0.4142135623730951
  0
VERTEX
  5
CA
  8
0
 10
2.765567457951285
 20
21.52833079791407
 30
0.0
 42
0.4142135623730951
  0
VERTEX
  5
CB
  8
0
 10
2.635567457951289
 20
21.65833079791408
 30
0.0
 42
0.4142135623730951
  0
VERTEX
  5
CC
  8
0
 10
2.505567457951287
 20
21.52833079791407
 30
0.0
 42
0.4142135623730951
  0
SEQEND
  5
167
  8
0
  0
POLYLINE
  5
7A
  8
0
 66
     1
 10
0.0
 20
0.0
 30
0.0
 70
     1
  0
VERTEX
  5
CD
  8
0
 10
15.19423558773356
 20
8.900783240234581
 30
0.0
 42
0.4142135623730951
  0
VERTEX
  5
CE
  8
0
 10
15.06423558773356
 20
9.030783240234584
 30
0.0
 42
0.4142135623730951
  0
VERTEX
  5
CF
  8
0
 10
14.93423558773356
 20
8.900783240234581
 30
0.0
 42
0.4142135623730951
  0
VERTEX
  5
D0
  8
0
 10
15.06423558773356
 20
8.770783240234582
 30
0.0
 42
0.4142135623730951
  0
SEQEND
  5
168
  8
0
  0
POLYLINE
  5
7B
  8
0
 66
     1
 10
0.0
 20
0.0
 30
0.0
 70
     1
  0
VERTEX
  5
D1
  8
0
 10
15.69423558773357
 20
8.900783240234581
 30
0.0
 42
0.4142135623730951
  0
VERTEX
  5
D2
  8
0
 10
15.56423558773357
 20
9.030783240234584
 30
0.0
 42
0.4142135623730951
  0
VERTEX
  5
D3
  8
0
 10
15.43423558773356
 20
8.900783240234581
 30
0.0
 42
0.4142135623730951
  0
VERTEX
  5
D4
  8
0
 10
15.56423558773357
 20
8.770783240234582
 30
0.0
 42
0.4142135623730951
  0
SEQEND
  5
169
  8
0
  0
POLYLINE
  5
7C
  8
0
 66
     1
 10
0.0
 20
0.0
 30
0.0
 70
     1
  0
VERTEX
  5
D5
  8
0
 10
16.19423558773358
 20
8.900783240234581
 30
0.0
 42
0.4142135623730951
  0
VERTEX
  5
D6
  8
0
 10
16.06423558773357
 20
9.030783240234584
 30
0.0
 42
0.4142135623730951
  0
VERTEX
  5
D7
  8
0
 10
15.93423558773357
 20
8.900783240234581
 30
0.0
 42
0.4142135623730951
  0
VERTEX
  5
D8
  8
0
 10
16.06423558773357
 20
8.770783240234582
 30
0.0
 42
0.4142135623730951
  0
SEQEND
  5
16A
  8
0
  0
POLYLINE
  5
7D
  8
0
 66
     1
 10
0.0
 20
0.0
 30
0.0
 70
     1
  0
VERTEX
  5
D9
  8
0
 10
16.69423558773358
 20
8.900783240234581
 30
0.0
 42
0.4142135623730951
  0
VERTEX
  5
DA
  8
0
 10
16.56423558773358
 20
9.030783240234584
 30
0.0
 42
0.4142135623730951
  0
VERTEX
  5
DB
  8
0
 10
16.43423558773358
 20
8.900783240234581
 30
0.0
 42
0.4142135623730951
  0
VERTEX
  5
DC
  8
0
 10
16.56423558773358
 20
8.770783240234582
 30
0.0
 42
0.4142135623730951
  0
SEQEND
  5
16B
  8
0
  0
POLYLINE
  5
7E
  8
0
 66
     1
 10
0.0
 20
0.0
 30
0.0
 70
     1
  0
VERTEX
  5
DD
  8
0
 10
17.19423558773358
 20
8.900783240234581
 30
0.0
 42
0.4142135623730951
  0
VERTEX
  5
DE
  8
0
 10
17.06423558773359
 20
9.030783240234584
 30
0.0
 42
0.4142135623730951
  0
VERTEX
  5
DF
  8
0
 10
16.93423558773358
 20
8.900783240234581
 30
0.0
 42
0.4142135623730951
  0
VERTEX
  5
E0
  8
0
 10
17.06423558773359
 20
8.770783240234582
 30
0.0
 42
0.4142135623730951
  0
SEQEND
  5
16C
  8
0
  0
POLYLINE
  5
7F
  8
0
 66
     1
 10
0.0
 20
0.0
 30
0.0
 70
     1
  0
VERTEX
  5
E1
  8
0
 10
17.69423558773359
 20
8.900783240234581
 30
0.0
 42
0.4142135623730951
  0
VERTEX
  5
E2
  8
0
 10
17.56423558773358
 20
9.030783240234584
 30
0.0
 42
0.4142135623730951
  0
VERTEX
  5
E3
  8
0
 10
17.43423558773359
 20
8.900783240234581
 30
0.0
 42
0.4142135623730951
  0
VERTEX
  5
E4
  8
0
 10
17.56423558773358
 20
8.770783240234582
 30
0.0
 42
0.4142135623730951
  0
SEQEND
  5
16D
  8
0
  0
POLYLINE
  5
80
  8
0
 66
     1
 10
0.0
 20
0.0
 30
0.0
 70
     1
  0
VERTEX
  5
E5
  8
0
 10
18.19423558773359
 20
8.900783240234581
 30
0.0
 42
0.4142135623730951
  0
VERTEX
  5
E6
  8
0
 10
18.06423558773359
 20
9.030783240234584
 30
0.0
 42
0.4142135623730951
  0
VERTEX
  5
E7
  8
0
 10
17.9342355877336
 20
8.900783240234581
 30
0.0
 42
0.4142135623730951
  0
VERTEX
  5
E8
  8
0
 10
18.06423558773359
 20
8.770783240234582
 30
0.0
 42
0.4142135623730951
  0
SEQEND
  5
16E
  8
0
  0
POLYLINE
  5
81
  8
0
 66
     1
 10
0.0
 20
0.0
 30
0.0
 70
     1
  0
VERTEX
  5
E9
  8
0
 10
18.69423558773359
 20
8.900783240234581
 30
0.0
 42
0.4142135623730951
  0
VERTEX
  5
EA
  8
0
 10
18.5642355877336
 20
9.030783240234584
 30
0.0
 42
0.4142135623730951
  0
VERTEX
  5
EB
  8
0
 10
18.43423558773359
 20
8.900783240234581
 30
0.0
 42
0.4142135623730951
  0
VERTEX
  5
EC
  8
0
 10
18.5642355877336
 20
8.770783240234582
 30
0.0
 42
0.4142135623730951
  0
SEQEND
  5
16F
  8
0
  0
POLYLINE
  5
82
  8
0
 66
     1
 10
0.0
 20
0.0
 30
0.0
 70
     1
  0
VERTEX
  5
ED
  8
0
 10
19.19423558773359
 20
8.900783240234581
 30
0.0
 42
0.4142135623730951
  0
VERTEX
  5
EE
  8
0
 10
19.0642355877336
 20
9.030783240234584
 30
0.0
 42
0.4142135623730951
  0
VERTEX
  5
EF
  8
0
 10
18.9342355877336
 20
8.900783240234581
 30
0.0
 42
0.4142135623730951
  0
VERTEX
  5
F0
  8
0
 10
19.0642355877336
 20
8.770783240234582
 30
0.0
 42
0.4142135623730951
  0
SEQEND
  5
170
  8
0
  0
POLYLINE
  5
83
  8
0
 66
     1
 10
0.0
 20
0.0
 30
0.0
 70
     1
  0
VERTEX
  5
F1
  8
0
 10
15.19423558773356
 20
2.150783240234588
 30
0.0
 42
0.4142135623730951
  0
VERTEX
  5
F2
  8
0
 10
15.06423558773356
 20
2.280783240234587
 30
0.0
 42
0.4142135623730951
  0
VERTEX
  5
F3
  8
0
 10
14.93423558773356
 20
2.150783240234588
 30
0.0
 42
0.4142135623730951
  0
VERTEX
  5
F4
  8
0
 10
15.06423558773356
 20
2.020783240234589
 30
0.0
 42
0.4142135623730951
  0
SEQEND
  5
171
  8
0
  0
POLYLINE
  5
84
  8
0
 66
     1
 10
0.0
 20
0.0
 30
0.0
 70
     1
  0
VERTEX
  5
F5
  8
0
 10
15.69423558773357
 20
2.150783240234588
 30
0.0
 42
0.4142135623730951
  0
VERTEX
  5
F6
  8
0
 10
15.56423558773357
 20
2.280783240234587
 30
0.0
 42
0.4142135623730951
  0
VERTEX
  5
F7
  8
0
 10
15.43423558773356
 20
2.150783240234588
 30
0.0
 42
0.4142135623730951
  0
VERTEX
  5
F8
  8
0
 10
15.56423558773357
 20
2.020783240234589
 30
0.0
 42
0.4142135623730951
  0
SEQEND
  5
172
  8
0
  0
POLYLINE
  5
85
  8
0
 66
     1
 10
0.0
 20
0.0
 30
0.0
 70
     1
  0
VERTEX
  5
F9
  8
0
 10
16.19423558773358
 20
2.150783240234588
 30
0.0
 42
0.4142135623730951
  0
VERTEX
  5
FA
  8
0
 10
16.06423558773357
 20
2.280783240234587
 30
0.0
 42
0.4142135623730951
  0
VERTEX
  5
FB
  8
0
 10
15.93423558773357
 20
2.150783240234588
 30
0.0
 42
0.4142135623730951
  0
VERTEX
  5
FC
  8
0
 10
16.06423558773357
 20
2.020783240234589
 30
0.0
 42
0.4142135623730951
  0
SEQEND
  5
173
  8
0
  0
POLYLINE
  5
86
  8
0
 66
     1
 10
0.0
 20
0.0
 30
0.0
 70
     1
  0
VERTEX
  5
FD
  8
0
 10
16.69423558773358
 20
2.150783240234588
 30
0.0
 42
0.4142135623730951
  0
VERTEX
  5
FE
  8
0
 10
16.56423558773358
 20
2.280783240234587
 30
0.0
 42
0.4142135623730951
  0
VERTEX
  5
FF
  8
0
 10
16.43423558773357
 20
2.150783240234588
 30
0.0
 42
0.4142135623730951
  0
VERTEX
  5
100
  8
0
 10
16.56423558773358
 20
2.020783240234589
 30
0.0
 42
0.4142135623730951
  0
SEQEND
  5
174
  8
0
  0
POLYLINE
  5
87
  8
0
 66
     1
 10
0.0
 20
0.0
 30
0.0
 70
     1
  0
VERTEX
  5
101
  8
0
 10
17.19423558773358
 20
2.150783240234588
 30
0.0
 42
0.4142135623730951
  0
VERTEX
  5
102
  8
0
 10
17.06423558773359
 20
2.280783240234587
 30
0.0
 42
0.4142135623730951
  0
VERTEX
  5
103
  8
0
 10
16.93423558773358
 20
2.150783240234588
 30
0.0
 42
0.4142135623730951
  0
VERTEX
  5
104
  8
0
 10
17.06423558773359
 20
2.020783240234589
 30
0.0
 42
0.4142135623730951
  0
SEQEND
  5
175
  8
0
  0
POLYLINE
  5
88
  8
0
 66
     1
 10
0.0
 20
0.0
 30
0.0
 70
     1
  0
VERTEX
  5
105
  8
0
 10
17.69423558773359
 20
2.150783240234588
 30
0.0
 42
0.4142135623730951
  0
VERTEX
  5
106
  8
0
 10
17.56423558773358
 20
2.280783240234587
 30
0.0
 42
0.4142135623730951
  0
VERTEX
  5
107
  8
0
 10
17.43423558773359
 20
2.150783240234588
 30
0.0
 42
0.4142135623730951
  0
VERTEX
  5
108
  8
0
 10
17.56423558773358
 20
2.020783240234589
 30
0.0
 42
0.4142135623730951
  0
SEQEND
  5
176
  8
0
  0
POLYLINE
  5
89
  8
0
 66
     1
 10
0.0
 20
0.0
 30
0.0
 70
     1
  0
VERTEX
  5
109
  8
0
 10
18.19423558773359
 20
2.150783240234588
 30
0.0
 42
0.4142135623730951
  0
VERTEX
  5
10A
  8
0
 10
18.06423558773358
 20
2.280783240234587
 30
0.0
 42
0.4142135623730951
  0
VERTEX
  5
10B
  8
0
 10
17.93423558773359
 20
2.150783240234588
 30
0.0
 42
0.4142135623730951
  0
VERTEX
  5
10C
  8
0
 10
18.06423558773358
 20
2.020783240234589
 30
0.0
 42
0.4142135623730951
  0
SEQEND
  5
177
  8
0
  0
POLYLINE
  5
8A
  8
0
 66
     1
 10
0.0
 20
0.0
 30
0.0
 70
     1
  0
VERTEX
  5
10D
  8
0
 10
18.69423558773359
 20
2.150783240234588
 30
0.0
 42
0.4142135623730951
  0
VERTEX
  5
10E
  8
0
 10
18.56423558773359
 20
2.280783240234587
 30
0.0
 42
0.4142135623730951
  0
VERTEX
  5
10F
  8
0
 10
18.43423558773359
 20
2.150783240234588
 30
0.0
 42
0.4142135623730951
  0
VERTEX
  5
110
  8
0
 10
18.56423558773359
 20
2.020783240234589
 30
0.0
 42
0.4142135623730951
  0
SEQEND
  5
178
  8
0
  0
POLYLINE
  5
8B
  8
0
 66
     1
 10
0.0
 20
0.0
 30
0.0
 70
     1
  0
VERTEX
  5
111
  8
0
 10
19.19423558773359
 20
2.150783240234588
 30
0.0
 42
0.4142135623730951
  0
VERTEX
  5
112
  8
0
 10
19.0642355877336
 20
2.280783240234587
 30
0.0
 42
0.4142135623730951
  0
VERTEX
  5
113
  8
0
 10
18.93423558773359
 20
2.150783240234588
 30
0.0
 42
0.4142135623730951
  0
VERTEX
  5
114
  8
0
 10
19.0642355877336
 20
2.020783240234589
 30
0.0
 42
0.4142135623730951
  0
SEQEND
  5
179
  8
0
  0
POLYLINE
  5
8C
  8
0
 66
     1
 10
0.0
 20
0.0
 30
0.0
 70
     1
  0
VERTEX
  5
115
  8
0
 10
2.549301025572966
 20
2.878437468459964
 30
0.0
 42
0.4142135623730951
  0
VERTEX
  5
116
  8
0
 10
2.749301025572962
 20
2.678437468459961
 30
0.0
 42
0.4142135623730951
  0
VERTEX
  5
117
  8
0
 10
2.949301025572964
 20
2.878437468459964
 30
0.0
 42
0.4142135623730951
  0
VERTEX
  5
118
  8
0
 10
2.749301025572962
 20
3.078437468459962
 30
0.0
 42
0.4142135623730951
  0
SEQEND
  5
17A
  8
0
  0
POLYLINE
  5
8D
  8
0
 66
     1
 10
0.0
 20
0.0
 30
0.0
 70
     1
  0
VERTEX
  5
119
  8
0
 10
2.549301025572966
 20
6.223321933417749
 30
0.0
 42
0.4142135623730951
  0
VERTEX
  5
11A
  8
0
 10
2.749301025572962
 20
6.023321933417753
 30
0.0
 42
0.4142135623730951
  0
VERTEX
  5
11B
  8
0
 10
2.949301025572964
 20
6.223321933417749
 30
0.0
 42
0.4142135623730951
  0
VERTEX
  5
11C
  8
0
 10
2.749301025572962
 20
6.423321933417747
 30
0.0
 42
0.4142135623730951
  0
SEQEND
  5
17B
  8
0
  0
POLYLINE
  5
8E
  8
0
 66
     1
 10
0.0
 20
0.0
 30
0.0
 70
     1
  0
VERTEX
  5
11D
  8
0
 10
2.549301025572966
 20
9.568206398375537
 30
0.0
 42
0.4142135623730951
  0
VERTEX
  5
11E
  8
0
 10
2.749301025572962
 20
9.368206398375541
 30
0.0
 42
0.4142135623730951
  0
VERTEX
  5
11F
  8
0
 10
2.949301025572964
 20
9.568206398375537
 30
0.0
 42
0.4142135623730951
  0
VERTEX
  5
120
  8
0
 10
2.749301025572962
 20
9.76820639837554
 30
0.0
 42
0.4142135623730951
  0
SEQEND
  5
17C
  8
0
  0
POLYLINE
  5
8F
  8
0
 66
     1
 10
0.0
 20
0.0
 30
0.0
 70
     1
  0
VERTEX
  5
121
  8
0
 10
6.206530446849115
 20
0.7205435097990885
 30
0.0
  0
VERTEX
  5
122
  8
0
 10
4.956530446849097
 20
0.7205435097990885
 30
0.0
  0
VERTEX
  5
123
  8
0
 10
4.956530446849097
 20
11.72054350979907
 30
0.0
  0
VERTEX
  5
124
  8
0
 10
6.206530446849115
 20
11.72054350979907
 30
0.0
  0
SEQEND
  5
17D
  8
0
  0
POLYLINE
  5
90
  8
0
 66
     1
 10
0.0
 20
0.0
 30
0.0
 70
     1
  0
VERTEX
  5
125
  8
0
 10
10.4014955509562
 20
15.73147341805544
 30
0.0
  0
VERTEX
  5
126
  8
0
 10
20.73811437960123
 20
11.96925184147308
 30
0.0
  0
VERTEX
  5
127
  8
0
 10
21.88388185974221
 20
15.11722212110586
 30
0.0
  0
VERTEX
  5
128
  8
0
 10
11.54726303109718
 20
18.87944369768826
 30
0.0
  0
SEQEND
  5
17E
  8
0
  0
POLYLINE
  5
91
  8
0
 66
     1
 10
0.0
 20
0.0
 30
0.0
 70
     1
  0
VERTEX
  5
129
  8
0
 10
0.0022780013936702
 20
0.0
 30
0.0
  0
VERTEX
  5
12A
  8
0
 10
11.00227800139371
 20
0.0
 30
0.0
  0
VERTEX
  5
12B
  8
0
 10
11.00227800139371
 20
14.5
 30
0.0
  0
VERTEX
  5
12C
  8
0
 10
0.0022780013936737
 20
14.5
 30
0.0
  0
SEQEND
  5
17F
  8
0
  0
POLYLINE
  5
92
  8
0
 66
     1
 10
0.0
 20
0.0
 30
0.0
 70
     1
  0
VERTEX
  5
12D
  8
0
 10
9.169213939621347
 20
0.5763601197419159
 30
0.0
  0
VERTEX
  5
12E
  8
0
 10
7.499213939621352
 20
0.5763601197419159
 30
0.0
 42
-0.4142135623730958
  0
VERTEX
  5
12F
  8
0
 10
7.124213939621352
 20
0.9513601197419143
 30
0.0
  0
VERTEX
  5
130
  8
0
 10
7.124213939621352
 20
11.20136011974193
 30
0.0
 42
-0.4142135623730958
  0
VERTEX
  5
131
  8
0
 10
7.499213939621352
 20
11.57636011974193
 30
0.0
  0
VERTEX
  5
132
  8
0
 10
9.169213939621347
 20
11.57636011974193
 30
0.0
  0
SEQEND
  5
180
  8
0
  0
POLYLINE
  5
93
  8
0
 66
     1
 10
0.0
 20
0.0
 30
0.0
 70
     1
  0
VERTEX
  5
133
  8
0
 10
2.124301025572962
 20
0.7233219334177593
 30
0.0
  0
VERTEX
  5
134
  8
0
 10
3.794301025572963
 20
0.7233219334177593
 30
0.0
  0
VERTEX
  5
135
  8
0
 10
3.794301025572963
 20
11.72332193341774
 30
0.0
  0
VERTEX
  5
136
  8
0
 10
2.124301025572962
 20
11.72332193341774
 30
0.0
 42
0.4142135623730958
  0
VERTEX
  5
137
  8
0
 10
1.749301025572961
 20
11.34832193341774
 30
0.0
  0
VERTEX
  5
138
  8
0
 10
1.749301025572961
 20
1.098321933417762
 30
0.0
 42
0.4142135623730961
  0
SEQEND
  5
181
  8
0
  0
POLYLINE
  5
94
  8
0
 66
     1
 10
0.0
 20
0.0
 30
0.0
 70
     1
  0
VERTEX
  5
139
  8
0
 10
12.24655192595111
 20
12.94955403039624
 30
0.0
  0
VERTEX
  5
13A
  8
0
 10
11.74655192595111
 20
-0.0504459696038124
 30
0.0
  0
VERTEX
  5
13B
  8
0
 10
12.99655192595111
 20
-0.0504459696038124
 30
0.0
  0
VERTEX
  5
13C
  8
0
 10
12.99655192595111
 20
12.94955403039624
 30
0.0
  0
SEQEND
  5
182
  8
0
  0
POLYLINE
  5
95
  8
0
 66
     1
 10
0.0
 20
0.0
 30
0.0
 70
     1
  0
VERTEX
  5
13D
  8
0
 10
13.01056745795128
 20
22.02833079791408
 30
0.0
  0
VERTEX
  5
13E
  8
0
 10
13.01056745795128
 20
19.64833079791408
 30
0.0
  0
VERTEX
  5
13F
  8
0
 10
0.0105674579512944
 20
20.14833079791407
 30
0.0
  0
VERTEX
  5
140
  8
0
 10
0.0105674579512944
 20
22.02833079791408
 30
0.0
  0
SEQEND
  5
183
  8
0
  0
POLYLINE
  5
96
  8
0
 66
     1
 10
0.0
 20
0.0
 30
0.0
 70
     1
  0
VERTEX
  5
141
  8
0
 10
13.62673558773354
 20
11.02578324023459
 30
0.0
  0
VERTEX
  5
142
  8
0
 10
22.12673558773363
 20
11.02578324023459
 30
0.0
  0
VERTEX
  5
143
  8
0
 10
22.12673558773363
 20
0.0257832402345867
 30
0.0
  0
VERTEX
  5
144
  8
0
 10
13.62673558773353
 20
0.0257832402345867
 30
0.0
  0
SEQEND
  5
184
  8
0
  0
POLYLINE
  5
97
  8
0
 66
     1
 10
0.0
 20
0.0
 30
0.0
 70
     1
  0
VERTEX
  5
145
  8
0
 10
14.04509367872233
 20
21.56020219436966
 30
0.0
  0
VERTEX
  5
146
  8
0
 10
15.12797527513949
 20
21.56020219436966
 30
0.0
 42
0.7302148628037287
  0
VERTEX
  5
147
  8
0
 10
20.96221208230515
 20
21.56020219436965
 30
0.0
  0
VERTEX
  5
148
  8
0
 10
22.04509367872231
 20
21.56020219436965
 30
0.0
  0
VERTEX
  5
149
  8
0
 10
22.04509367872231
 20
22.02695235656215
 30
0.0
  0
VERTEX
  5
14A
  8
0
 10
19.94725159803396
 20
22.02695235656215
 30
0.0
 42
0.3643892768176926
  0
VERTEX
  5
14B
  8
0
 10
19.68128441097329
 20
21.8034438117667
 30
0.0
 42
-0.840361351584556
  0
VERTEX
  5
14C
  8
0
 10
16.40890294647136
 20
21.80344381176671
 30
0.0
 42
0.3643892768176941
  0
VERTEX
  5
14D
  8
0
 10
16.1429357594107
 20
22.02695235656215
 30
0.0
  0
VERTEX
  5
14E
  8
0
 10
14.04509367872233
 20
22.02695235656215
 30
0.0
  0
SEQEND
  5
185
  8
0
  0
POLYLINE
  5
98
  8
0
 66
     1
 10
0.0
 20
0.0
 30
0.0
 70
     1
  0
VERTEX
  5
14F
  8
0
 10
9.276333777268597
 20
18.77257336456551
 30
0.0
  0
VERTEX
  5
150
  8
0
 10
9.276333777268595
 20
15.64245014971103
 30
0.0
  0
VERTEX
  5
151
  8
0
 10
7.790527043593019
 20
15.64245014971103
 30
0.0
 42
-0.3097930268249805
  0
VERTEX
  5
152
  8
0
 10
7.538713714525502
 20
15.81503327589578
 30
0.0
 42
0.6853613620210129
  0
VERTEX
  5
153
  8
0
 10
1.82628171253093
 20
15.81503327589579
 30
0.0
 42
-0.3097930268249947
  0
VERTEX
  5
154
  8
0
 10
1.574468383463415
 20
15.64245014971103
 30
0.0
  0
VERTEX
  5
155
  8
0
 10
0.0886616497878665
 20
15.64245014971103
 30
0.0
  0
VERTEX
  5
156
  8
0
 10
0.0886616497878523
 20
18.77257336456551
 30
0.0
  0
SEQEND
  5
186
  8
0
  0
POLYLINE
  5
99
  8
0
 66
     1
 10
0.0
 20
0.0
 30
0.0
 70
     1
  0
VERTEX
  5
157
  8
0
 10
14.38309493432689
 20
12.07520405650266
 30
0.0
  0
VERTEX
  5
158
  8
0
 10
14.38309493432689
 20
12.57520405650266
 30
0.0
  0
VERTEX
  5
159
  8
0
 10
16.38309493432688
 20
12.57520405650266
 30
0.0
  0
VERTEX
  5
15A
  8
0
 10
16.38309493432688
 20
12.07520405650266
 30
0.0
  0
SEQEND
  5
187
  8
0
  0
ENDSEC
  0
EOF
