  0
SECTION
  2
HEADER
  9
$ACADVER
  1
AC1009
  9
$DWGCODEPAGE
  3
ansi_1252
  9
$INSBASE
 10
0.0
 20
0.0
 30
0.0
  9
$EXTMIN
 10
0.0534632388600761
 20
-0.1078715812937886
 30
0.0
  9
$EXTMAX
 10
22.05015184348784
 20
21.91058946322677
 30
0.0
  9
$LIMMIN
 10
0.0
 20
0.0
  9
$LIMMAX
 10
12.0
 20
9.0
  9
$ORTHOMODE
 70
     0
  9
$REGENMODE
 70
     1
  9
$FILLMODE
 70
     1
  9
$QTEXTMODE
 70
     0
  9
$MIRRTEXT
 70
     1
  9
$DRAGMODE
 70
     2
  9
$LTSCALE
 40
1.0
  9
$OSMODE
 70
    37
  9
$ATTMODE
 70
     1
  9
$TEXTSIZE
 40
0.2
  9
$TRACEWID
 40
0.05
  9
$TEXTSTYLE
  7
STANDARD
  9
$CLAYER
  8
0
  9
$CELTYPE
  6
BYLAYER
  9
$CECOLOR
 62
   256
  9
$DIMSCALE
 40
1.0
  9
$DIMASZ
 40
0.18
  9
$DIMEXO
 40
0.0625
  9
$DIMDLI
 40
0.38
  9
$DIMRND
 40
0.0
  9
$DIMDLE
 40
0.0
  9
$DIMEXE
 40
0.18
  9
$DIMTP
 40
0.0
  9
$DIMTM
 40
0.0
  9
$DIMTXT
 40
0.18
  9
$DIMCEN
 40
0.09
  9
$DIMTSZ
 40
0.0
  9
$DIMTOL
 70
     0
  9
$DIMLIM
 70
     0
  9
$DIMTIH
 70
     1
  9
$DIMTOH
 70
     1
  9
$DIMSE1
 70
     0
  9
$DIMSE2
 70
     0
  9
$DIMTAD
 70
     0
  9
$DIMZIN
 70
     0
  9
$DIMBLK
  1

  9
$DIMASO
 70
     1
  9
$DIMSHO
 70
     1
  9
$DIMPOST
  1

  9
$DIMAPOST
  1

  9
$DIMALT
 70
     0
  9
$DIMALTD
 70
     2
  9
$DIMALTF
 40
25.4
  9
$DIMLFAC
 40
1.0
  9
$DIMTOFL
 70
     0
  9
$DIMTVP
 40
0.0
  9
$DIMTIX
 70
     0
  9
$DIMSOXD
 70
     0
  9
$DIMSAH
 70
     0
  9
$DIMBLK1
  1

  9
$DIMBLK2
  1

  9
$DIMSTYLE
  2
STANDARD
  9
$DIMCLRD
 70
     0
  9
$DIMCLRE
 70
     0
  9
$DIMCLRT
 70
     0
  9
$DIMTFAC
 40
1.0
  9
$DIMGAP
 40
0.09
  9
$LUNITS
 70
     2
  9
$LUPREC
 70
     4
  9
$SKETCHINC
 40
0.1
  9
$FILLETRAD
 40
0.5
  9
$AUNITS
 70
     0
  9
$AUPREC
 70
     0
  9
$MENU
  1
.
  9
$ELEVATION
 40
0.0
  9
$PELEVATION
 40
0.0
  9
$THICKNESS
 40
0.0
  9
$LIMCHECK
 70
     0
  9
$CHAMFERA
 40
0.0
  9
$CHAMFERB
 40
0.0
  9
$SKPOLY
 70
     0
  9
$TDCREATE
 40
2454910.5
  9
$TDUPDATE
 40
2458224.627752523
  9
$TDINDWG
 40
0.0000000116
  9
$TDUSRTIMER
 40
0.0000000116
  9
$USRTIMER
 70
     1
  9
$ANGBASE
 50
0.0
  9
$ANGDIR
 70
     0
  9
$PDMODE
 70
     0
  9
$PDSIZE
 40
0.0
  9
$PLINEWID
 40
0.0
  9
$COORDS
 70
     1
  9
$SPLFRAME
 70
     0
  9
$SPLINETYPE
 70
     6
  9
$SPLINESEGS
 70
     8
  9
$ATTDIA
 70
     0
  9
$ATTREQ
 70
     1
  9
$HANDLING
 70
     1
  9
$HANDSEED
  5
2B1
  9
$SURFTAB1
 70
     6
  9
$SURFTAB2
 70
     6
  9
$SURFTYPE
 70
     6
  9
$SURFU
 70
     6
  9
$SURFV
 70
     6
  9
$UCSNAME
  2

  9
$UCSORG
 10
0.0
 20
0.0
 30
0.0
  9
$UCSXDIR
 10
1.0
 20
0.0
 30
0.0
  9
$UCSYDIR
 10
0.0
 20
1.0
 30
0.0
  9
$PUCSNAME
  2

  9
$PUCSORG
 10
0.0
 20
0.0
 30
0.0
  9
$PUCSXDIR
 10
1.0
 20
0.0
 30
0.0
  9
$PUCSYDIR
 10
0.0
 20
1.0
 30
0.0
  9
$USERI1
 70
     0
  9
$USERI2
 70
     0
  9
$USERI3
 70
     0
  9
$USERI4
 70
     0
  9
$USERI5
 70
     0
  9
$USERR1
 40
0.0
  9
$USERR2
 40
0.0
  9
$USERR3
 40
0.0
  9
$USERR4
 40
0.0
  9
$USERR5
 40
0.0
  9
$WORLDVIEW
 70
     1
  9
$SHADEDGE
 70
     3
  9
$SHADEDIF
 70
    70
  9
$TILEMODE
 70
     1
  9
$MAXACTVP
 70
    64
  9
$PLIMCHECK
 70
     0
  9
$PEXTMIN
 10
1.000000000000000E+20
 20
1.000000000000000E+20
 30
1.000000000000000E+20
  9
$PEXTMAX
 10
-1.000000000000000E+20
 20
-1.000000000000000E+20
 30
-1.000000000000000E+20
  9
$PLIMMIN
 10
0.0
 20
0.0
  9
$PLIMMAX
 10
12.0
 20
9.0
  9
$UNITMODE
 70
     0
  9
$VISRETAIN
 70
     1
  9
$PLINEGEN
 70
     0
  9
$PSLTSCALE
 70
     1
  0
ENDSEC
  0
SECTION
  2
TABLES
  0
TABLE
  2
VPORT
 70
     1
  0
VPORT
  2
*ACTIVE
 70
     0
 10
0.0
 20
0.0
 11
1.0
 21
1.0
 12
10.42990654205607
 22
4.5
 13
0.0
 23
0.0
 14
0.5
 24
0.5
 15
0.5
 25
0.5
 16
0.0
 26
0.0
 36
1.0
 17
0.0
 27
0.0
 37
0.0
 40
9.0
 41
1.972972972850329
 42
50.0
 43
0.0
 44
0.0
 50
0.0
 51
0.0
 71
     0
 72
   100
 73
     1
 74
     3
 75
     0
 76
     0
 77
     0
 78
     0
  0
ENDTAB
  0
TABLE
  2
LTYPE
 70
     2
  0
LTYPE
  2
CONTINUOUS
 70
     0
  3
Solid line
 72
    65
 73
     0
 40
0.0
  0
LTYPE
  2
CONTINUOUS2
 70
     0
  3
Solid Line
 72
    65
 73
     0
 40
0.0
  0
ENDTAB
  0
TABLE
  2
LAYER
 70
     1
  0
LAYER
  2
0
 70
     0
 62
     7
  6
CONTINUOUS
  0
ENDTAB
  0
TABLE
  2
STYLE
 70
     1
  0
STYLE
  2
STANDARD
 70
     0
 40
0.0
 41
1.0
 50
0.0
 71
     0
 42
0.2
  3
txt
  4

  0
ENDTAB
  0
TABLE
  2
VIEW
 70
     0
  0
ENDTAB
  0
TABLE
  2
UCS
 70
     0
  0
ENDTAB
  0
TABLE
  2
APPID
 70
     1
  0
APPID
  2
ACAD
 70
     0
  0
ENDTAB
  0
TABLE
  2
DIMSTYLE
 70
     1
  0
DIMSTYLE
  2
STANDARD
 70
     0
  3

  4

  5

  6

  7

 40
1.0
 41
0.18
 42
0.0625
 43
0.38
 44
0.18
 45
0.0
 46
0.0
 47
0.0
 48
0.0
140
0.18
141
0.09
142
0.0
143
25.4
144
1.0
145
0.0
146
1.0
147
0.09
 71
     0
 72
     0
 73
     1
 74
     1
 75
     0
 76
     0
 77
     0
 78
     0
170
     0
171
     2
172
     0
173
     0
174
     0
175
     0
176
     0
177
     0
178
     0
  0
ENDTAB
  0
ENDSEC
  0
SECTION
  2
BLOCKS
  0
BLOCK
  8
0
  2
$MODEL_SPACE
 70
     0
 10
0.0
 20
0.0
 30
0.0
  3
$MODEL_SPACE
  1

  0
ENDBLK
  5
21
  8
0
  0
BLOCK
 67
     1
  8
0
  2
$PAPER_SPACE
 70
     0
 10
0.0
 20
0.0
 30
0.0
  3
$PAPER_SPACE
  1

  0
ENDBLK
  5
1D
 67
     1
  8
0
  0
ENDSEC
  0
SECTION
  2
ENTITIES
  0
POLYLINE
  5
6F
  8
0
 66
     1
 10
0.0
 20
0.0
 30
0.0
 70
     1
  0
VERTEX
  5
C7
  8
0
 10
13.06563381742634
 20
4.377066434115969
 30
0.0
 42
0.4142135623730951
  0
VERTEX
  5
C8
  8
0
 10
12.93063381742634
 20
4.242066434115969
 30
0.0
 42
0.4142135623730951
  0
VERTEX
  5
C9
  8
0
 10
13.06563381742634
 20
4.107066434115969
 30
0.0
 42
0.4142135623730951
  0
VERTEX
  5
CA
  8
0
 10
13.20063381742634
 20
4.242066434115969
 30
0.0
 42
0.4142135623730951
  0
SEQEND
  5
260
  8
0
  0
POLYLINE
  5
70
  8
0
 66
     1
 10
0.0
 20
0.0
 30
0.0
 70
     1
  0
VERTEX
  5
CB
  8
0
 10
21.04787671232875
 20
11.75074570701379
 30
0.0
 42
0.4142135623730951
  0
VERTEX
  5
CC
  8
0
 10
20.91287671232875
 20
11.61574570701379
 30
0.0
 42
0.4142135623730951
  0
VERTEX
  5
CD
  8
0
 10
21.04787671232875
 20
11.48074570701379
 30
0.0
 42
0.4142135623730951
  0
VERTEX
  5
CE
  8
0
 10
21.18287671232875
 20
11.61574570701379
 30
0.0
 42
0.4142135623730951
  0
SEQEND
  5
261
  8
0
  0
POLYLINE
  5
71
  8
0
 66
     1
 10
0.0
 20
0.0
 30
0.0
 70
     1
  0
VERTEX
  5
CF
  8
0
 10
21.04787671232875
 20
7.829345707013793
 30
0.0
 42
0.4142135623730951
  0
VERTEX
  5
D0
  8
0
 10
20.91287671232875
 20
7.694345707013794
 30
0.0
 42
0.4142135623730951
  0
VERTEX
  5
D1
  8
0
 10
21.04787671232875
 20
7.559345707013794
 30
0.0
 42
0.4142135623730951
  0
VERTEX
  5
D2
  8
0
 10
21.18287671232875
 20
7.694345707013794
 30
0.0
 42
0.4142135623730951
  0
SEQEND
  5
262
  8
0
  0
POLYLINE
  5
72
  8
0
 66
     1
 10
0.0
 20
0.0
 30
0.0
 70
     1
  0
VERTEX
  5
D3
  8
0
 10
13.06787671232875
 20
11.75074570701379
 30
0.0
 42
0.4142135623730951
  0
VERTEX
  5
D4
  8
0
 10
12.93287671232876
 20
11.61574570701379
 30
0.0
 42
0.4142135623730951
  0
VERTEX
  5
D5
  8
0
 10
13.06787671232875
 20
11.48074570701379
 30
0.0
 42
0.4142135623730951
  0
VERTEX
  5
D6
  8
0
 10
13.20287671232876
 20
11.61574570701379
 30
0.0
 42
0.4142135623730951
  0
SEQEND
  5
263
  8
0
  0
POLYLINE
  5
73
  8
0
 66
     1
 10
0.0
 20
0.0
 30
0.0
 70
     1
  0
VERTEX
  5
D7
  8
0
 10
13.06787671232876
 20
7.829345707013786
 30
0.0
 42
0.4142135623730951
  0
VERTEX
  5
D8
  8
0
 10
12.93287671232876
 20
7.694345707013786
 30
0.0
 42
0.4142135623730951
  0
VERTEX
  5
D9
  8
0
 10
13.06787671232876
 20
7.559345707013787
 30
0.0
 42
0.4142135623730951
  0
VERTEX
  5
DA
  8
0
 10
13.20287671232876
 20
7.694345707013786
 30
0.0
 42
0.4142135623730951
  0
SEQEND
  5
264
  8
0
  0
POLYLINE
  5
74
  8
0
 66
     1
 10
0.0
 20
0.0
 30
0.0
 70
     1
  0
VERTEX
  5
DB
  8
0
 10
21.04787671232874
 20
4.375745707013791
 30
0.0
 42
0.4142135623730951
  0
VERTEX
  5
DC
  8
0
 10
20.91287671232875
 20
4.240745707013791
 30
0.0
 42
0.4142135623730951
  0
VERTEX
  5
DD
  8
0
 10
21.04787671232874
 20
4.105745707013791
 30
0.0
 42
0.4142135623730951
  0
VERTEX
  5
DE
  8
0
 10
21.18287671232875
 20
4.240745707013791
 30
0.0
 42
0.4142135623730951
  0
SEQEND
  5
265
  8
0
  0
POLYLINE
  5
75
  8
0
 66
     1
 10
0.0
 20
0.0
 30
0.0
 70
     1
  0
VERTEX
  5
DF
  8
0
 10
21.04787671232875
 20
0.4543457070137902
 30
0.0
 42
0.4142135623730951
  0
VERTEX
  5
E0
  8
0
 10
20.91287671232875
 20
0.3193457070137902
 30
0.0
 42
0.4142135623730951
  0
VERTEX
  5
E1
  8
0
 10
21.04787671232875
 20
0.1843457070137904
 30
0.0
 42
0.4142135623730951
  0
VERTEX
  5
E2
  8
0
 10
21.18287671232875
 20
0.3193457070137902
 30
0.0
 42
0.4142135623730951
  0
SEQEND
  5
266
  8
0
  0
POLYLINE
  5
76
  8
0
 66
     1
 10
0.0
 20
0.0
 30
0.0
 70
     1
  0
VERTEX
  5
E3
  8
0
 10
13.06787671232877
 20
0.4543457070137848
 30
0.0
 42
0.4142135623730951
  0
VERTEX
  5
E4
  8
0
 10
12.93287671232877
 20
0.3193457070137848
 30
0.0
 42
0.4142135623730951
  0
VERTEX
  5
E5
  8
0
 10
13.06787671232877
 20
0.1843457070137851
 30
0.0
 42
0.4142135623730951
  0
VERTEX
  5
E6
  8
0
 10
13.20287671232877
 20
0.3193457070137848
 30
0.0
 42
0.4142135623730951
  0
SEQEND
  5
267
  8
0
  0
POLYLINE
  5
77
  8
0
 66
     1
 10
0.0
 20
0.0
 30
0.0
 70
     1
  0
VERTEX
  5
E7
  8
0
 10
13.06787671232875
 20
11.75074570701379
 30
0.0
 42
0.4142135623730951
  0
VERTEX
  5
E8
  8
0
 10
12.93287671232876
 20
11.61574570701379
 30
0.0
 42
0.4142135623730951
  0
VERTEX
  5
E9
  8
0
 10
13.06787671232875
 20
11.48074570701379
 30
0.0
 42
0.4142135623730951
  0
VERTEX
  5
EA
  8
0
 10
13.20287671232876
 20
11.61574570701379
 30
0.0
 42
0.4142135623730951
  0
SEQEND
  5
268
  8
0
  0
POLYLINE
  5
78
  8
0
 66
     1
 10
0.0
 20
0.0
 30
0.0
 70
     1
  0
VERTEX
  5
EB
  8
0
 10
21.04787671232875
 20
11.75074570701379
 30
0.0
 42
0.4142135623730951
  0
VERTEX
  5
EC
  8
0
 10
20.91287671232875
 20
11.61574570701379
 30
0.0
 42
0.4142135623730951
  0
VERTEX
  5
ED
  8
0
 10
21.04787671232875
 20
11.48074570701379
 30
0.0
 42
0.4142135623730951
  0
VERTEX
  5
EE
  8
0
 10
21.18287671232875
 20
11.61574570701379
 30
0.0
 42
0.4142135623730951
  0
SEQEND
  5
269
  8
0
  0
POLYLINE
  5
79
  8
0
 66
     1
 10
0.0
 20
0.0
 30
0.0
 70
     1
  0
VERTEX
  5
EF
  8
0
 10
13.06787671232876
 20
7.829345707013786
 30
0.0
 42
0.4142135623730951
  0
VERTEX
  5
F0
  8
0
 10
12.93287671232876
 20
7.694345707013786
 30
0.0
 42
0.4142135623730951
  0
VERTEX
  5
F1
  8
0
 10
13.06787671232876
 20
7.559345707013787
 30
0.0
 42
0.4142135623730951
  0
VERTEX
  5
F2
  8
0
 10
13.20287671232876
 20
7.694345707013786
 30
0.0
 42
0.4142135623730951
  0
SEQEND
  5
26A
  8
0
  0
POLYLINE
  5
7A
  8
0
 66
     1
 10
0.0
 20
0.0
 30
0.0
 70
     1
  0
VERTEX
  5
F3
  8
0
 10
21.04787671232875
 20
7.829345707013793
 30
0.0
 42
0.4142135623730951
  0
VERTEX
  5
F4
  8
0
 10
20.91287671232875
 20
7.694345707013794
 30
0.0
 42
0.4142135623730951
  0
VERTEX
  5
F5
  8
0
 10
21.04787671232875
 20
7.559345707013794
 30
0.0
 42
0.4142135623730951
  0
VERTEX
  5
F6
  8
0
 10
21.18287671232875
 20
7.694345707013794
 30
0.0
 42
0.4142135623730951
  0
SEQEND
  5
26B
  8
0
  0
POLYLINE
  5
7B
  8
0
 66
     1
 10
0.0
 20
0.0
 30
0.0
 70
     1
  0
VERTEX
  5
F7
  8
0
 10
13.06563381742634
 20
4.377066434115969
 30
0.0
 42
0.4142135623730951
  0
VERTEX
  5
F8
  8
0
 10
12.93063381742634
 20
4.242066434115969
 30
0.0
 42
0.4142135623730951
  0
VERTEX
  5
F9
  8
0
 10
13.06563381742634
 20
4.107066434115969
 30
0.0
 42
0.4142135623730951
  0
VERTEX
  5
FA
  8
0
 10
13.20063381742634
 20
4.242066434115969
 30
0.0
 42
0.4142135623730951
  0
SEQEND
  5
26C
  8
0
  0
POLYLINE
  5
7C
  8
0
 66
     1
 10
0.0
 20
0.0
 30
0.0
 70
     1
  0
VERTEX
  5
FB
  8
0
 10
21.04787671232874
 20
4.375745707013791
 30
0.0
 42
0.4142135623730951
  0
VERTEX
  5
FC
  8
0
 10
20.91287671232875
 20
4.240745707013791
 30
0.0
 42
0.4142135623730951
  0
VERTEX
  5
FD
  8
0
 10
21.04787671232874
 20
4.105745707013791
 30
0.0
 42
0.4142135623730951
  0
VERTEX
  5
FE
  8
0
 10
21.18287671232875
 20
4.240745707013791
 30
0.0
 42
0.4142135623730951
  0
SEQEND
  5
26D
  8
0
  0
POLYLINE
  5
7D
  8
0
 66
     1
 10
0.0
 20
0.0
 30
0.0
 70
     1
  0
VERTEX
  5
FF
  8
0
 10
13.06787671232877
 20
0.4543457070137848
 30
0.0
 42
0.4142135623730951
  0
VERTEX
  5
100
  8
0
 10
12.93287671232877
 20
0.3193457070137848
 30
0.0
 42
0.4142135623730951
  0
VERTEX
  5
101
  8
0
 10
13.06787671232877
 20
0.1843457070137851
 30
0.0
 42
0.4142135623730951
  0
VERTEX
  5
102
  8
0
 10
13.20287671232877
 20
0.3193457070137848
 30
0.0
 42
0.4142135623730951
  0
SEQEND
  5
26E
  8
0
  0
POLYLINE
  5
7E
  8
0
 66
     1
 10
0.0
 20
0.0
 30
0.0
 70
     1
  0
VERTEX
  5
103
  8
0
 10
21.04787671232875
 20
0.4543457070137902
 30
0.0
 42
0.4142135623730951
  0
VERTEX
  5
104
  8
0
 10
20.91287671232875
 20
0.3193457070137902
 30
0.0
 42
0.4142135623730951
  0
VERTEX
  5
105
  8
0
 10
21.04787671232875
 20
0.1843457070137904
 30
0.0
 42
0.4142135623730951
  0
VERTEX
  5
106
  8
0
 10
21.18287671232875
 20
0.3193457070137902
 30
0.0
 42
0.4142135623730951
  0
SEQEND
  5
26F
  8
0
  0
POLYLINE
  5
7F
  8
0
 66
     1
 10
0.0
 20
0.0
 30
0.0
 70
     1
  0
VERTEX
  5
107
  8
0
 10
15.12037671232875
 20
8.097545707013794
 30
0.0
 42
0.4142135623730951
  0
VERTEX
  5
108
  8
0
 10
14.99037671232875
 20
7.967545707013793
 30
0.0
 42
0.4142135623730951
  0
VERTEX
  5
109
  8
0
 10
15.12037671232875
 20
7.837545707013792
 30
0.0
 42
0.4142135623730951
  0
VERTEX
  5
10A
  8
0
 10
15.25037671232876
 20
7.967545707013793
 30
0.0
 42
0.4142135623730951
  0
SEQEND
  5
270
  8
0
  0
POLYLINE
  5
80
  8
0
 66
     1
 10
0.0
 20
0.0
 30
0.0
 70
     1
  0
VERTEX
  5
10B
  8
0
 10
18.99537671232875
 20
8.097545707013794
 30
0.0
 42
0.4142135623730951
  0
VERTEX
  5
10C
  8
0
 10
18.86537671232875
 20
7.967545707013793
 30
0.0
 42
0.4142135623730951
  0
VERTEX
  5
10D
  8
0
 10
18.99537671232875
 20
7.837545707013792
 30
0.0
 42
0.4142135623730951
  0
VERTEX
  5
10E
  8
0
 10
19.12537671232875
 20
7.967545707013793
 30
0.0
 42
0.4142135623730951
  0
SEQEND
  5
271
  8
0
  0
POLYLINE
  5
81
  8
0
 66
     1
 10
0.0
 20
0.0
 30
0.0
 70
     1
  0
VERTEX
  5
10F
  8
0
 10
14.81625671232876
 20
6.572063101166096
 30
0.0
 42
0.4142135623730951
  0
VERTEX
  5
110
  8
0
 10
14.68625671232876
 20
6.442063101166095
 30
0.0
 42
0.4142135623730951
  0
VERTEX
  5
111
  8
0
 10
14.81625671232876
 20
6.312063101166094
 30
0.0
 42
0.4142135623730951
  0
VERTEX
  5
112
  8
0
 10
14.94625671232875
 20
6.442063101166095
 30
0.0
 42
0.4142135623730951
  0
SEQEND
  5
272
  8
0
  0
POLYLINE
  5
82
  8
0
 66
     1
 10
0.0
 20
0.0
 30
0.0
 70
     1
  0
VERTEX
  5
113
  8
0
 10
17.56625671232875
 20
6.572063101166096
 30
0.0
 42
0.4142135623730951
  0
VERTEX
  5
114
  8
0
 10
17.43625671232875
 20
6.442063101166095
 30
0.0
 42
0.4142135623730951
  0
VERTEX
  5
115
  8
0
 10
17.56625671232875
 20
6.312063101166094
 30
0.0
 42
0.4142135623730951
  0
VERTEX
  5
116
  8
0
 10
17.69625671232875
 20
6.442063101166095
 30
0.0
 42
0.4142135623730951
  0
SEQEND
  5
273
  8
0
  0
POLYLINE
  5
83
  8
0
 66
     1
 10
0.0
 20
0.0
 30
0.0
 70
     1
  0
VERTEX
  5
117
  8
0
 10
15.12037671232875
 20
4.097545707013793
 30
0.0
 42
0.4142135623730951
  0
VERTEX
  5
118
  8
0
 10
14.99037671232875
 20
3.967545707013793
 30
0.0
 42
0.4142135623730951
  0
VERTEX
  5
119
  8
0
 10
15.12037671232875
 20
3.837545707013793
 30
0.0
 42
0.4142135623730951
  0
VERTEX
  5
11A
  8
0
 10
15.25037671232875
 20
3.967545707013793
 30
0.0
 42
0.4142135623730951
  0
SEQEND
  5
274
  8
0
  0
POLYLINE
  5
84
  8
0
 66
     1
 10
0.0
 20
0.0
 30
0.0
 70
     1
  0
VERTEX
  5
11B
  8
0
 10
18.99537671232875
 20
4.097545707013793
 30
0.0
 42
0.4142135623730951
  0
VERTEX
  5
11C
  8
0
 10
18.86537671232875
 20
3.967545707013793
 30
0.0
 42
0.4142135623730951
  0
VERTEX
  5
11D
  8
0
 10
18.99537671232875
 20
3.837545707013793
 30
0.0
 42
0.4142135623730951
  0
VERTEX
  5
11E
  8
0
 10
19.12537671232875
 20
3.967545707013793
 30
0.0
 42
0.4142135623730951
  0
SEQEND
  5
275
  8
0
  0
POLYLINE
  5
85
  8
0
 66
     1
 10
0.0
 20
0.0
 30
0.0
 70
     1
  0
VERTEX
  5
11F
  8
0
 10
0.9384632388600819
 20
2.272321601450692
 30
0.0
 42
0.4142135623730951
  0
VERTEX
  5
120
  8
0
 10
0.8034632388600823
 20
2.137321601450692
 30
0.0
 42
0.4142135623730951
  0
VERTEX
  5
121
  8
0
 10
0.9384632388600819
 20
2.002321601450692
 30
0.0
 42
0.4142135623730951
  0
VERTEX
  5
122
  8
0
 10
1.073463238860081
 20
2.137321601450692
 30
0.0
 42
0.4142135623730951
  0
SEQEND
  5
276
  8
0
  0
POLYLINE
  5
86
  8
0
 66
     1
 10
0.0
 20
0.0
 30
0.0
 70
     1
  0
VERTEX
  5
123
  8
0
 10
0.9384632388600819
 20
6.193721601450623
 30
0.0
 42
0.4142135623730951
  0
VERTEX
  5
124
  8
0
 10
0.8034632388600823
 20
6.058721601450623
 30
0.0
 42
0.4142135623730951
  0
VERTEX
  5
125
  8
0
 10
0.9384632388600819
 20
5.923721601450623
 30
0.0
 42
0.4142135623730951
  0
VERTEX
  5
126
  8
0
 10
1.073463238860081
 20
6.058721601450623
 30
0.0
 42
0.4142135623730951
  0
SEQEND
  5
277
  8
0
  0
POLYLINE
  5
87
  8
0
 66
     1
 10
0.0
 20
0.0
 30
0.0
 70
     1
  0
VERTEX
  5
127
  8
0
 10
0.9384632388600819
 20
9.647321601450642
 30
0.0
 42
0.4142135623730951
  0
VERTEX
  5
128
  8
0
 10
0.8034632388600823
 20
9.512321601450642
 30
0.0
 42
0.4142135623730951
  0
VERTEX
  5
129
  8
0
 10
0.9384632388600819
 20
9.377321601450642
 30
0.0
 42
0.4142135623730951
  0
VERTEX
  5
12A
  8
0
 10
1.073463238860081
 20
9.512321601450642
 30
0.0
 42
0.4142135623730951
  0
SEQEND
  5
278
  8
0
  0
POLYLINE
  5
88
  8
0
 66
     1
 10
0.0
 20
0.0
 30
0.0
 70
     1
  0
VERTEX
  5
12B
  8
0
 10
0.9384632388600961
 20
13.56872160145077
 30
0.0
 42
0.4142135623730951
  0
VERTEX
  5
12C
  8
0
 10
0.8034632388600965
 20
13.43372160145077
 30
0.0
 42
0.4142135623730951
  0
VERTEX
  5
12D
  8
0
 10
0.9384632388600961
 20
13.29872160145077
 30
0.0
 42
0.4142135623730951
  0
VERTEX
  5
12E
  8
0
 10
1.073463238860095
 20
13.43372160145077
 30
0.0
 42
0.4142135623730951
  0
SEQEND
  5
279
  8
0
  0
POLYLINE
  5
89
  8
0
 66
     1
 10
0.0
 20
0.0
 30
0.0
 70
     1
  0
VERTEX
  5
12F
  8
0
 10
0.9384632388600961
 20
13.56872160145077
 30
0.0
 42
0.4142135623730951
  0
VERTEX
  5
130
  8
0
 10
0.8034632388600965
 20
13.43372160145077
 30
0.0
 42
0.4142135623730951
  0
VERTEX
  5
131
  8
0
 10
0.9384632388600961
 20
13.29872160145077
 30
0.0
 42
0.4142135623730951
  0
VERTEX
  5
132
  8
0
 10
1.073463238860095
 20
13.43372160145077
 30
0.0
 42
0.4142135623730951
  0
SEQEND
  5
27A
  8
0
  0
POLYLINE
  5
8A
  8
0
 66
     1
 10
0.0
 20
0.0
 30
0.0
 70
     1
  0
VERTEX
  5
133
  8
0
 10
0.9384632388600819
 20
9.647321601450642
 30
0.0
 42
0.4142135623730951
  0
VERTEX
  5
134
  8
0
 10
0.8034632388600823
 20
9.512321601450642
 30
0.0
 42
0.4142135623730951
  0
VERTEX
  5
135
  8
0
 10
0.9384632388600819
 20
9.377321601450642
 30
0.0
 42
0.4142135623730951
  0
VERTEX
  5
136
  8
0
 10
1.073463238860081
 20
9.512321601450642
 30
0.0
 42
0.4142135623730951
  0
SEQEND
  5
27B
  8
0
  0
POLYLINE
  5
8B
  8
0
 66
     1
 10
0.0
 20
0.0
 30
0.0
 70
     1
  0
VERTEX
  5
137
  8
0
 10
0.9384632388600819
 20
6.193721601450623
 30
0.0
 42
0.4142135623730951
  0
VERTEX
  5
138
  8
0
 10
0.8034632388600823
 20
6.058721601450623
 30
0.0
 42
0.4142135623730951
  0
VERTEX
  5
139
  8
0
 10
0.9384632388600819
 20
5.923721601450623
 30
0.0
 42
0.4142135623730951
  0
VERTEX
  5
13A
  8
0
 10
1.073463238860081
 20
6.058721601450623
 30
0.0
 42
0.4142135623730951
  0
SEQEND
  5
27C
  8
0
  0
POLYLINE
  5
8C
  8
0
 66
     1
 10
0.0
 20
0.0
 30
0.0
 70
     1
  0
VERTEX
  5
13B
  8
0
 10
0.9384632388600819
 20
2.272321601450692
 30
0.0
 42
0.4142135623730951
  0
VERTEX
  5
13C
  8
0
 10
0.8034632388600823
 20
2.137321601450692
 30
0.0
 42
0.4142135623730951
  0
VERTEX
  5
13D
  8
0
 10
0.9384632388600819
 20
2.002321601450692
 30
0.0
 42
0.4142135623730951
  0
VERTEX
  5
13E
  8
0
 10
1.073463238860081
 20
2.137321601450692
 30
0.0
 42
0.4142135623730951
  0
SEQEND
  5
27D
  8
0
  0
POLYLINE
  5
8D
  8
0
 66
     1
 10
0.0
 20
0.0
 30
0.0
 70
     1
  0
VERTEX
  5
13F
  8
0
 10
2.990963238860078
 20
9.914200874348447
 30
0.0
 42
0.4142135623730951
  0
VERTEX
  5
140
  8
0
 10
2.860963238860078
 20
9.784200874348446
 30
0.0
 42
0.4142135623730951
  0
VERTEX
  5
141
  8
0
 10
2.990963238860078
 20
9.654200874348446
 30
0.0
 42
0.4142135623730951
  0
VERTEX
  5
142
  8
0
 10
3.120963238860077
 20
9.784200874348446
 30
0.0
 42
0.4142135623730951
  0
SEQEND
  5
27E
  8
0
  0
POLYLINE
  5
8E
  8
0
 66
     1
 10
0.0
 20
0.0
 30
0.0
 70
     1
  0
VERTEX
  5
143
  8
0
 10
5.436843331290538
 20
8.38871826850075
 30
0.0
 42
0.4142135623730951
  0
VERTEX
  5
144
  8
0
 10
5.306843331290538
 20
8.258718268500749
 30
0.0
 42
0.4142135623730951
  0
VERTEX
  5
145
  8
0
 10
5.436843331290538
 20
8.128718268500748
 30
0.0
 42
0.4142135623730951
  0
VERTEX
  5
146
  8
0
 10
5.566843331290538
 20
8.258718268500749
 30
0.0
 42
0.4142135623730951
  0
SEQEND
  5
27F
  8
0
  0
POLYLINE
  5
8F
  8
0
 66
     1
 10
0.0
 20
0.0
 30
0.0
 70
     1
  0
VERTEX
  5
147
  8
0
 10
2.686843331290534
 20
8.38871826850075
 30
0.0
 42
0.4142135623730951
  0
VERTEX
  5
148
  8
0
 10
2.556843331290534
 20
8.258718268500749
 30
0.0
 42
0.4142135623730951
  0
VERTEX
  5
149
  8
0
 10
2.686843331290534
 20
8.128718268500748
 30
0.0
 42
0.4142135623730951
  0
VERTEX
  5
14A
  8
0
 10
2.816843331290535
 20
8.258718268500749
 30
0.0
 42
0.4142135623730951
  0
SEQEND
  5
280
  8
0
  0
POLYLINE
  5
90
  8
0
 66
     1
 10
0.0
 20
0.0
 30
0.0
 70
     1
  0
VERTEX
  5
14B
  8
0
 10
2.990963238860076
 20
5.914200874348446
 30
0.0
 42
0.4142135623730951
  0
VERTEX
  5
14C
  8
0
 10
2.860963238860076
 20
5.784200874348446
 30
0.0
 42
0.4142135623730951
  0
VERTEX
  5
14D
  8
0
 10
2.990963238860076
 20
5.654200874348446
 30
0.0
 42
0.4142135623730951
  0
VERTEX
  5
14E
  8
0
 10
3.120963238860077
 20
5.784200874348446
 30
0.0
 42
0.4142135623730951
  0
SEQEND
  5
281
  8
0
  0
POLYLINE
  5
91
  8
0
 66
     1
 10
0.0
 20
0.0
 30
0.0
 70
     1
  0
VERTEX
  5
14F
  8
0
 10
6.865963238860081
 20
9.940450874348446
 30
0.0
 42
0.4142135623730951
  0
VERTEX
  5
150
  8
0
 10
6.709713238860081
 20
9.784200874348446
 30
0.0
 42
0.4142135623730951
  0
VERTEX
  5
151
  8
0
 10
6.865963238860081
 20
9.627950874348446
 30
0.0
 42
0.4142135623730951
  0
VERTEX
  5
152
  8
0
 10
7.022213238860081
 20
9.784200874348446
 30
0.0
 42
0.4142135623730951
  0
SEQEND
  5
282
  8
0
  0
POLYLINE
  5
92
  8
0
 66
     1
 10
0.0
 20
0.0
 30
0.0
 70
     1
  0
VERTEX
  5
153
  8
0
 10
6.865963238860079
 20
5.940450874348446
 30
0.0
 42
0.4142135623730951
  0
VERTEX
  5
154
  8
0
 10
6.709713238860079
 20
5.784200874348446
 30
0.0
 42
0.4142135623730951
  0
VERTEX
  5
155
  8
0
 10
6.865963238860079
 20
5.627950874348446
 30
0.0
 42
0.4142135623730951
  0
VERTEX
  5
156
  8
0
 10
7.022213238860079
 20
5.784200874348446
 30
0.0
 42
0.4142135623730951
  0
SEQEND
  5
283
  8
0
  0
POLYLINE
  5
93
  8
0
 66
     1
 10
0.0
 20
0.0
 30
0.0
 70
     1
  0
VERTEX
  5
157
  8
0
 10
7.276327727169339
 20
19.37057466899024
 30
0.0
 42
0.4142135623730951
  0
VERTEX
  5
158
  8
0
 10
7.146327727169338
 20
19.24057466899024
 30
0.0
 42
0.4142135623730951
  0
VERTEX
  5
159
  8
0
 10
7.276327727169339
 20
19.11057466899024
 30
0.0
 42
0.4142135623730951
  0
VERTEX
  5
15A
  8
0
 10
7.406327727169338
 20
19.24057466899024
 30
0.0
 42
0.4142135623730951
  0
SEQEND
  5
284
  8
0
  0
POLYLINE
  5
94
  8
0
 66
     1
 10
0.0
 20
0.0
 30
0.0
 70
     1
  0
VERTEX
  5
15B
  8
0
 10
7.276327727169339
 20
15.44797466899022
 30
0.0
 42
0.4142135623730951
  0
VERTEX
  5
15C
  8
0
 10
7.146327727169338
 20
15.31797466899022
 30
0.0
 42
0.4142135623730951
  0
VERTEX
  5
15D
  8
0
 10
7.276327727169339
 20
15.18797466899022
 30
0.0
 42
0.4142135623730951
  0
VERTEX
  5
15E
  8
0
 10
7.406327727169338
 20
15.31797466899022
 30
0.0
 42
0.4142135623730951
  0
SEQEND
  5
285
  8
0
  0
POLYLINE
  5
95
  8
0
 66
     1
 10
0.0
 20
0.0
 30
0.0
 70
     1
  0
VERTEX
  5
15F
  8
0
 10
16.25632772716933
 20
19.37057466899024
 30
0.0
 42
0.4142135623730951
  0
VERTEX
  5
160
  8
0
 10
16.12632772716933
 20
19.24057466899024
 30
0.0
 42
0.4142135623730951
  0
VERTEX
  5
161
  8
0
 10
16.25632772716933
 20
19.11057466899024
 30
0.0
 42
0.4142135623730951
  0
VERTEX
  5
162
  8
0
 10
16.38632772716933
 20
19.24057466899024
 30
0.0
 42
0.4142135623730951
  0
SEQEND
  5
286
  8
0
  0
POLYLINE
  5
96
  8
0
 66
     1
 10
0.0
 20
0.0
 30
0.0
 70
     1
  0
VERTEX
  5
163
  8
0
 10
16.25632772716933
 20
15.44797466899022
 30
0.0
 42
0.4142135623730951
  0
VERTEX
  5
164
  8
0
 10
16.12632772716933
 20
15.31797466899022
 30
0.0
 42
0.4142135623730951
  0
VERTEX
  5
165
  8
0
 10
16.25632772716933
 20
15.18797466899022
 30
0.0
 42
0.4142135623730951
  0
VERTEX
  5
166
  8
0
 10
16.38632772716933
 20
15.31797466899022
 30
0.0
 42
0.4142135623730951
  0
SEQEND
  5
287
  8
0
  0
POLYLINE
  5
97
  8
0
 66
     1
 10
0.0
 20
0.0
 30
0.0
 70
     1
  0
VERTEX
  5
167
  8
0
 10
10.89132772716933
 20
17.29577466899023
 30
0.0
 42
0.4142135623730951
  0
VERTEX
  5
168
  8
0
 10
10.76132772716933
 20
17.16577466899023
 30
0.0
 42
0.4142135623730951
  0
VERTEX
  5
169
  8
0
 10
10.89132772716933
 20
17.03577466899023
 30
0.0
 42
0.4142135623730951
  0
VERTEX
  5
16A
  8
0
 10
11.02132772716933
 20
17.16577466899023
 30
0.0
 42
0.4142135623730951
  0
SEQEND
  5
288
  8
0
  0
POLYLINE
  5
98
  8
0
 66
     1
 10
0.0
 20
0.0
 30
0.0
 70
     1
  0
VERTEX
  5
16B
  8
0
 10
14.64351219212713
 20
17.29577466899023
 30
0.0
 42
0.4142135623730951
  0
VERTEX
  5
16C
  8
0
 10
14.51351219212713
 20
17.16577466899023
 30
0.0
 42
0.4142135623730951
  0
VERTEX
  5
16D
  8
0
 10
14.64351219212713
 20
17.03577466899023
 30
0.0
 42
0.4142135623730951
  0
VERTEX
  5
16E
  8
0
 10
14.77351219212713
 20
17.16577466899023
 30
0.0
 42
0.4142135623730951
  0
SEQEND
  5
289
  8
0
  0
POLYLINE
  5
99
  8
0
 66
     1
 10
0.0
 20
0.0
 30
0.0
 70
     1
  0
VERTEX
  5
16F
  8
0
 10
5.961725633044703
 20
3.740129274870594
 30
0.0
 42
0.4142135623730951
  0
VERTEX
  5
170
  8
0
 10
5.831725633044703
 20
3.610129274870594
 30
0.0
 42
0.4142135623730951
  0
VERTEX
  5
171
  8
0
 10
5.961725633044703
 20
3.480129274870594
 30
0.0
 42
0.4142135623730951
  0
VERTEX
  5
172
  8
0
 10
6.091725633044703
 20
3.610129274870594
 30
0.0
 42
0.4142135623730951
  0
SEQEND
  5
28A
  8
0
  0
POLYLINE
  5
9A
  8
0
 66
     1
 10
0.0
 20
0.0
 30
0.0
 70
     1
  0
VERTEX
  5
173
  8
0
 10
9.883325633044699
 20
3.740129274870594
 30
0.0
 42
0.4142135623730951
  0
VERTEX
  5
174
  8
0
 10
9.7533256330447
 20
3.610129274870594
 30
0.0
 42
0.4142135623730951
  0
VERTEX
  5
175
  8
0
 10
9.883325633044699
 20
3.480129274870594
 30
0.0
 42
0.4142135623730951
  0
VERTEX
  5
176
  8
0
 10
10.0133256330447
 20
3.610129274870594
 30
0.0
 42
0.4142135623730951
  0
SEQEND
  5
28B
  8
0
  0
POLYLINE
  5
9B
  8
0
 66
     1
 10
0.0
 20
0.0
 30
0.0
 70
     1
  0
VERTEX
  5
177
  8
0
 10
7.672525633044701
 20
3.110129274870594
 30
0.0
  0
VERTEX
  5
178
  8
0
 10
7.672525633044701
 20
4.110129274870594
 30
0.0
  0
VERTEX
  5
179
  8
0
 10
8.172525633044701
 20
4.110129274870594
 30
0.0
  0
VERTEX
  5
17A
  8
0
 10
8.172525633044701
 20
3.110129274870594
 30
0.0
  0
SEQEND
  5
28C
  8
0
  0
POLYLINE
  5
9C
  8
0
 66
     1
 10
0.0
 20
0.0
 30
0.0
 70
     1
  0
VERTEX
  5
17B
  8
0
 10
6.923827666731834
 20
3.453879274870594
 30
0.0
  0
VERTEX
  5
17C
  8
0
 10
8.923827666731832
 20
3.453879274870594
 30
0.0
  0
VERTEX
  5
17D
  8
0
 10
8.923827666731832
 20
3.766379274870594
 30
0.0
  0
VERTEX
  5
17E
  8
0
 10
6.923827666731834
 20
3.766379274870594
 30
0.0
  0
SEQEND
  5
28D
  8
0
  0
POLYLINE
  5
9D
  8
0
 66
     1
 10
0.0
 20
0.0
 30
0.0
 70
     1
  0
VERTEX
  5
17F
  8
0
 10
5.610024761853288
 20
2.735129274870594
 30
0.0
  0
VERTEX
  5
180
  8
0
 10
10.23502650423611
 20
2.735129274870594
 30
0.0
  0
VERTEX
  5
181
  8
0
 10
10.23632853792325
 20
4.235129274870594
 30
0.0
  0
VERTEX
  5
182
  8
0
 10
5.611326795540419
 20
4.235129274870594
 30
0.0
  0
SEQEND
  5
28E
  8
0
  0
POLYLINE
  5
9E
  8
0
 66
     1
 10
0.0
 20
0.0
 30
0.0
 70
     1
  0
VERTEX
  5
183
  8
0
 10
6.244439939936589
 20
0.8971284187062086
 30
0.0
 42
0.4142135623730951
  0
VERTEX
  5
184
  8
0
 10
6.114439939936589
 20
0.7671284187062087
 30
0.0
 42
0.4142135623730951
  0
VERTEX
  5
185
  8
0
 10
6.244439939936589
 20
0.6371284187062087
 30
0.0
 42
0.4142135623730951
  0
VERTEX
  5
186
  8
0
 10
6.37443993993659
 20
0.7671284187062087
 30
0.0
 42
0.4142135623730951
  0
SEQEND
  5
28F
  8
0
  0
POLYLINE
  5
9F
  8
0
 66
     1
 10
0.0
 20
0.0
 30
0.0
 70
     1
  0
VERTEX
  5
187
  8
0
 10
10.16603993993659
 20
0.8971284187062086
 30
0.0
 42
0.4142135623730951
  0
VERTEX
  5
188
  8
0
 10
10.03603993993659
 20
0.7671284187062087
 30
0.0
 42
0.4142135623730951
  0
VERTEX
  5
189
  8
0
 10
10.16603993993659
 20
0.6371284187062087
 30
0.0
 42
0.4142135623730951
  0
VERTEX
  5
18A
  8
0
 10
10.29603993993659
 20
0.7671284187062087
 30
0.0
 42
0.4142135623730951
  0
SEQEND
  5
290
  8
0
  0
POLYLINE
  5
A0
  8
0
 66
     1
 10
0.0
 20
0.0
 30
0.0
 70
     1
  0
VERTEX
  5
18B
  8
0
 10
7.955239939936594
 20
0.2671284187062103
 30
0.0
  0
VERTEX
  5
18C
  8
0
 10
7.955239939936594
 20
1.267128418706207
 30
0.0
  0
VERTEX
  5
18D
  8
0
 10
8.455239939936595
 20
1.267128418706207
 30
0.0
  0
VERTEX
  5
18E
  8
0
 10
8.455239939936595
 20
0.2671284187062103
 30
0.0
  0
SEQEND
  5
291
  8
0
  0
POLYLINE
  5
A1
  8
0
 66
     1
 10
0.0
 20
0.0
 30
0.0
 70
     1
  0
VERTEX
  5
18F
  8
0
 10
7.206541973623724
 20
0.6108784187062091
 30
0.0
  0
VERTEX
  5
190
  8
0
 10
9.206541973623727
 20
0.6108784187062091
 30
0.0
  0
VERTEX
  5
191
  8
0
 10
9.206541973623727
 20
0.9233784187062087
 30
0.0
  0
VERTEX
  5
192
  8
0
 10
7.206541973623724
 20
0.9233784187062087
 30
0.0
  0
SEQEND
  5
292
  8
0
  0
POLYLINE
  5
A2
  8
0
 66
     1
 10
0.0
 20
0.0
 30
0.0
 70
     1
  0
VERTEX
  5
193
  8
0
 10
5.892739068745173
 20
-0.1078715812937886
 30
0.0
  0
VERTEX
  5
194
  8
0
 10
10.51774081112801
 20
-0.1078715812937886
 30
0.0
  0
VERTEX
  5
195
  8
0
 10
10.51904284481514
 20
1.392128418706208
 30
0.0
  0
VERTEX
  5
196
  8
0
 10
5.894041102432305
 20
1.392128418706208
 30
0.0
  0
SEQEND
  5
293
  8
0
  0
POLYLINE
  5
A3
  8
0
 66
     1
 10
0.0
 20
0.0
 30
0.0
 70
     1
  0
VERTEX
  5
197
  8
0
 10
20.28552654704721
 20
14.44155578792433
 30
0.0
 42
0.4142135623730951
  0
VERTEX
  5
198
  8
0
 10
20.41552654704721
 20
14.31155578792433
 30
0.0
 42
0.4142135623730951
  0
VERTEX
  5
199
  8
0
 10
20.54552654704721
 20
14.44155578792433
 30
0.0
 42
0.4142135623730951
  0
VERTEX
  5
19A
  8
0
 10
20.41552654704721
 20
14.57155578792433
 30
0.0
 42
0.4142135623730951
  0
SEQEND
  5
294
  8
0
  0
POLYLINE
  5
A4
  8
0
 66
     1
 10
0.0
 20
0.0
 30
0.0
 70
     1
  0
VERTEX
  5
19B
  8
0
 10
20.28552654704721
 20
18.36315578792433
 30
0.0
 42
0.4142135623730951
  0
VERTEX
  5
19C
  8
0
 10
20.41552654704721
 20
18.23315578792433
 30
0.0
 42
0.4142135623730951
  0
VERTEX
  5
19D
  8
0
 10
20.54552654704721
 20
18.36315578792433
 30
0.0
 42
0.4142135623730951
  0
VERTEX
  5
19E
  8
0
 10
20.41552654704721
 20
18.49315578792433
 30
0.0
 42
0.4142135623730951
  0
SEQEND
  5
295
  8
0
  0
POLYLINE
  5
A5
  8
0
 66
     1
 10
0.0
 20
0.0
 30
0.0
 70
     1
  0
VERTEX
  5
19F
  8
0
 10
20.91552654704721
 20
16.15235578792433
 30
0.0
  0
VERTEX
  5
1A0
  8
0
 10
19.91552654704721
 20
16.15235578792433
 30
0.0
  0
VERTEX
  5
1A1
  8
0
 10
19.91552654704721
 20
16.65235578792433
 30
0.0
  0
VERTEX
  5
1A2
  8
0
 10
20.91552654704721
 20
16.65235578792433
 30
0.0
  0
SEQEND
  5
296
  8
0
  0
POLYLINE
  5
A6
  8
0
 66
     1
 10
0.0
 20
0.0
 30
0.0
 70
     1
  0
VERTEX
  5
1A3
  8
0
 10
20.57177654704721
 20
15.40365782161146
 30
0.0
  0
VERTEX
  5
1A4
  8
0
 10
20.57177654704721
 20
17.40365782161146
 30
0.0
  0
VERTEX
  5
1A5
  8
0
 10
20.25927654704721
 20
17.40365782161146
 30
0.0
  0
VERTEX
  5
1A6
  8
0
 10
20.25927654704721
 20
15.40365782161146
 30
0.0
  0
SEQEND
  5
297
  8
0
  0
POLYLINE
  5
A7
  8
0
 66
     1
 10
0.0
 20
0.0
 30
0.0
 70
     1
  0
VERTEX
  5
1A7
  8
0
 10
21.29052654704721
 20
14.08985491673291
 30
0.0
  0
VERTEX
  5
1A8
  8
0
 10
21.29052654704721
 20
18.71485665911575
 30
0.0
  0
VERTEX
  5
1A9
  8
0
 10
19.79052654704721
 20
18.71615869280288
 30
0.0
  0
VERTEX
  5
1AA
  8
0
 10
19.79052654704721
 20
14.09115695042004
 30
0.0
  0
SEQEND
  5
298
  8
0
  0
POLYLINE
  5
A8
  8
0
 66
     1
 10
0.0
 20
0.0
 30
0.0
 70
     1
  0
VERTEX
  5
1AB
  8
0
 10
0.5229413864693636
 20
21.41558946322677
 30
0.0
 42
0.4142135623730951
  0
VERTEX
  5
1AC
  8
0
 10
0.3929413864693636
 20
21.28558946322677
 30
0.0
 42
0.4142135623730951
  0
VERTEX
  5
1AD
  8
0
 10
0.5229413864693636
 20
21.15558946322677
 30
0.0
 42
0.4142135623730951
  0
VERTEX
  5
1AE
  8
0
 10
0.6529413864693636
 20
21.28558946322677
 30
0.0
 42
0.4142135623730951
  0
SEQEND
  5
299
  8
0
  0
POLYLINE
  5
A9
  8
0
 66
     1
 10
0.0
 20
0.0
 30
0.0
 70
     1
  0
VERTEX
  5
1AF
  8
0
 10
4.444541386469364
 20
21.41558946322677
 30
0.0
 42
0.4142135623730951
  0
VERTEX
  5
1B0
  8
0
 10
4.314541386469364
 20
21.28558946322677
 30
0.0
 42
0.4142135623730951
  0
VERTEX
  5
1B1
  8
0
 10
4.444541386469364
 20
21.15558946322677
 30
0.0
 42
0.4142135623730951
  0
VERTEX
  5
1B2
  8
0
 10
4.574541386469363
 20
21.28558946322677
 30
0.0
 42
0.4142135623730951
  0
SEQEND
  5
29A
  8
0
  0
POLYLINE
  5
AA
  8
0
 66
     1
 10
0.0
 20
0.0
 30
0.0
 70
     1
  0
VERTEX
  5
1B3
  8
0
 10
2.233741386469364
 20
20.78558946322677
 30
0.0
  0
VERTEX
  5
1B4
  8
0
 10
2.233741386469364
 20
21.78558946322677
 30
0.0
  0
VERTEX
  5
1B5
  8
0
 10
2.733741386469364
 20
21.78558946322677
 30
0.0
  0
VERTEX
  5
1B6
  8
0
 10
2.733741386469364
 20
20.78558946322677
 30
0.0
  0
SEQEND
  5
29B
  8
0
  0
POLYLINE
  5
AB
  8
0
 66
     1
 10
0.0
 20
0.0
 30
0.0
 70
     1
  0
VERTEX
  5
1B7
  8
0
 10
1.485043420156495
 20
21.12933946322677
 30
0.0
  0
VERTEX
  5
1B8
  8
0
 10
3.485043420156496
 20
21.12933946322677
 30
0.0
  0
VERTEX
  5
1B9
  8
0
 10
3.485043420156496
 20
21.44183946322677
 30
0.0
  0
VERTEX
  5
1BA
  8
0
 10
1.485043420156495
 20
21.44183946322677
 30
0.0
  0
SEQEND
  5
29C
  8
0
  0
POLYLINE
  5
AC
  8
0
 66
     1
 10
0.0
 20
0.0
 30
0.0
 70
     1
  0
VERTEX
  5
1BB
  8
0
 10
0.1712405152779484
 20
20.41058946322677
 30
0.0
  0
VERTEX
  5
1BC
  8
0
 10
4.796242257660778
 20
20.41058946322677
 30
0.0
  0
VERTEX
  5
1BD
  8
0
 10
4.79754429134791
 20
21.91058946322677
 30
0.0
  0
VERTEX
  5
1BE
  8
0
 10
0.17254254896508
 20
21.91058946322677
 30
0.0
  0
SEQEND
  5
29D
  8
0
  0
POLYLINE
  5
AD
  8
0
 66
     1
 10
0.0
 20
0.0
 30
0.0
 70
     1
  0
VERTEX
  5
1BF
  8
0
 10
9.149245162539327
 20
21.41558946322677
 30
0.0
 42
0.4142135623730951
  0
VERTEX
  5
1C0
  8
0
 10
9.019245162539328
 20
21.28558946322677
 30
0.0
 42
0.4142135623730951
  0
VERTEX
  5
1C1
  8
0
 10
9.149245162539327
 20
21.15558946322677
 30
0.0
 42
0.4142135623730951
  0
VERTEX
  5
1C2
  8
0
 10
9.279245162539327
 20
21.28558946322677
 30
0.0
 42
0.4142135623730951
  0
SEQEND
  5
29E
  8
0
  0
POLYLINE
  5
AE
  8
0
 66
     1
 10
0.0
 20
0.0
 30
0.0
 70
     1
  0
VERTEX
  5
1C3
  8
0
 10
13.07084516253933
 20
21.41558946322677
 30
0.0
 42
0.4142135623730951
  0
VERTEX
  5
1C4
  8
0
 10
12.94084516253933
 20
21.28558946322677
 30
0.0
 42
0.4142135623730951
  0
VERTEX
  5
1C5
  8
0
 10
13.07084516253933
 20
21.15558946322677
 30
0.0
 42
0.4142135623730951
  0
VERTEX
  5
1C6
  8
0
 10
13.20084516253933
 20
21.28558946322677
 30
0.0
 42
0.4142135623730951
  0
SEQEND
  5
29F
  8
0
  0
POLYLINE
  5
AF
  8
0
 66
     1
 10
0.0
 20
0.0
 30
0.0
 70
     1
  0
VERTEX
  5
1C7
  8
0
 10
10.86004516253933
 20
20.78558946322677
 30
0.0
  0
VERTEX
  5
1C8
  8
0
 10
10.86004516253933
 20
21.78558946322677
 30
0.0
  0
VERTEX
  5
1C9
  8
0
 10
11.36004516253933
 20
21.78558946322677
 30
0.0
  0
VERTEX
  5
1CA
  8
0
 10
11.36004516253933
 20
20.78558946322677
 30
0.0
  0
SEQEND
  5
2A0
  8
0
  0
POLYLINE
  5
B0
  8
0
 66
     1
 10
0.0
 20
0.0
 30
0.0
 70
     1
  0
VERTEX
  5
1CB
  8
0
 10
10.11134719622646
 20
21.12933946322677
 30
0.0
  0
VERTEX
  5
1CC
  8
0
 10
12.11134719622646
 20
21.12933946322677
 30
0.0
  0
VERTEX
  5
1CD
  8
0
 10
12.11134719622646
 20
21.44183946322677
 30
0.0
  0
VERTEX
  5
1CE
  8
0
 10
10.11134719622646
 20
21.44183946322677
 30
0.0
  0
SEQEND
  5
2A1
  8
0
  0
POLYLINE
  5
B1
  8
0
 66
     1
 10
0.0
 20
0.0
 30
0.0
 70
     1
  0
VERTEX
  5
1CF
  8
0
 10
8.797544291347911
 20
20.41058946322677
 30
0.0
  0
VERTEX
  5
1D0
  8
0
 10
13.42254603373074
 20
20.41058946322677
 30
0.0
  0
VERTEX
  5
1D1
  8
0
 10
13.42384806741787
 20
21.91058946322677
 30
0.0
  0
VERTEX
  5
1D2
  8
0
 10
8.798846325035043
 20
21.91058946322677
 30
0.0
  0
SEQEND
  5
2A2
  8
0
  0
POLYLINE
  5
B2
  8
0
 66
     1
 10
0.0
 20
0.0
 30
0.0
 70
     1
  0
VERTEX
  5
1D3
  8
0
 10
17.7755489386093
 20
21.41558946322677
 30
0.0
 42
0.4142135623730951
  0
VERTEX
  5
1D4
  8
0
 10
17.64554893860929
 20
21.28558946322677
 30
0.0
 42
0.4142135623730951
  0
VERTEX
  5
1D5
  8
0
 10
17.7755489386093
 20
21.15558946322677
 30
0.0
 42
0.4142135623730951
  0
VERTEX
  5
1D6
  8
0
 10
17.9055489386093
 20
21.28558946322677
 30
0.0
 42
0.4142135623730951
  0
SEQEND
  5
2A3
  8
0
  0
POLYLINE
  5
B3
  8
0
 66
     1
 10
0.0
 20
0.0
 30
0.0
 70
     1
  0
VERTEX
  5
1D7
  8
0
 10
21.6971489386093
 20
21.41558946322677
 30
0.0
 42
0.4142135623730951
  0
VERTEX
  5
1D8
  8
0
 10
21.5671489386093
 20
21.28558946322677
 30
0.0
 42
0.4142135623730951
  0
VERTEX
  5
1D9
  8
0
 10
21.6971489386093
 20
21.15558946322677
 30
0.0
 42
0.4142135623730951
  0
VERTEX
  5
1DA
  8
0
 10
21.82714893860929
 20
21.28558946322677
 30
0.0
 42
0.4142135623730951
  0
SEQEND
  5
2A4
  8
0
  0
POLYLINE
  5
B4
  8
0
 66
     1
 10
0.0
 20
0.0
 30
0.0
 70
     1
  0
VERTEX
  5
1DB
  8
0
 10
19.4863489386093
 20
20.78558946322677
 30
0.0
  0
VERTEX
  5
1DC
  8
0
 10
19.4863489386093
 20
21.78558946322677
 30
0.0
  0
VERTEX
  5
1DD
  8
0
 10
19.9863489386093
 20
21.78558946322677
 30
0.0
  0
VERTEX
  5
1DE
  8
0
 10
19.9863489386093
 20
20.78558946322677
 30
0.0
  0
SEQEND
  5
2A5
  8
0
  0
POLYLINE
  5
B5
  8
0
 66
     1
 10
0.0
 20
0.0
 30
0.0
 70
     1
  0
VERTEX
  5
1DF
  8
0
 10
18.73765097229643
 20
21.12933946322677
 30
0.0
  0
VERTEX
  5
1E0
  8
0
 10
20.73765097229643
 20
21.12933946322677
 30
0.0
  0
VERTEX
  5
1E1
  8
0
 10
20.73765097229643
 20
21.44183946322677
 30
0.0
  0
VERTEX
  5
1E2
  8
0
 10
18.73765097229643
 20
21.44183946322677
 30
0.0
  0
SEQEND
  5
2A6
  8
0
  0
POLYLINE
  5
B6
  8
0
 66
     1
 10
0.0
 20
0.0
 30
0.0
 70
     1
  0
VERTEX
  5
1E3
  8
0
 10
17.42384806741788
 20
20.41058946322677
 30
0.0
  0
VERTEX
  5
1E4
  8
0
 10
22.04884980980071
 20
20.41058946322677
 30
0.0
  0
VERTEX
  5
1E5
  8
0
 10
22.05015184348784
 20
21.91058946322677
 30
0.0
  0
VERTEX
  5
1E6
  8
0
 10
17.42515010110501
 20
21.91058946322677
 30
0.0
  0
SEQEND
  5
2A7
  8
0
  0
POLYLINE
  5
B7
  8
0
 66
     1
 10
0.0
 20
0.0
 30
0.0
 70
     1
  0
VERTEX
  5
1E7
  8
0
 10
12.18287671232876
 20
-0.0324542929862088
 30
0.0
  0
VERTEX
  5
1E8
  8
0
 10
12.18287671232876
 20
11.96754570701379
 30
0.0
  0
VERTEX
  5
1E9
  8
0
 10
21.93287671232875
 20
11.96754570701379
 30
0.0
  0
VERTEX
  5
1EA
  8
0
 10
21.93287671232875
 20
-0.0324542929862106
 30
0.0
  0
SEQEND
  5
2A8
  8
0
  0
POLYLINE
  5
B8
  8
0
 66
     1
 10
0.0
 20
0.0
 30
0.0
 70
     1
  0
VERTEX
  5
1EB
  8
0
 10
14.61121219212713
 20
16.27105799036936
 30
0.0
  0
VERTEX
  5
1EC
  8
0
 10
15.61121219212713
 20
16.27105799036936
 30
0.0
  0
VERTEX
  5
1ED
  8
0
 10
15.61121219212713
 20
16.77105799036936
 30
0.0
  0
VERTEX
  5
1EE
  8
0
 10
14.61121219212713
 20
16.77105799036936
 30
0.0
  0
SEQEND
  5
2A9
  8
0
  0
POLYLINE
  5
B9
  8
0
 66
     1
 10
0.0
 20
0.0
 30
0.0
 70
     1
  0
VERTEX
  5
1EF
  8
0
 10
13.26632772716933
 20
17.56037466899023
 30
0.0
  0
VERTEX
  5
1F0
  8
0
 10
13.26632772716933
 20
18.06037466899024
 30
0.0
  0
VERTEX
  5
1F1
  8
0
 10
14.26632772716933
 20
18.06037466899024
 30
0.0
  0
VERTEX
  5
1F2
  8
0
 10
14.26632772716933
 20
17.56037466899023
 30
0.0
  0
SEQEND
  5
2AA
  8
0
  0
POLYLINE
  5
BA
  8
0
 66
     1
 10
0.0
 20
0.0
 30
0.0
 70
     1
  0
VERTEX
  5
1F3
  8
0
 10
11.26632772716933
 20
16.27105799036936
 30
0.0
  0
VERTEX
  5
1F4
  8
0
 10
11.26632772716933
 20
16.77105799036936
 30
0.0
  0
VERTEX
  5
1F5
  8
0
 10
12.26632772716933
 20
16.77105799036936
 30
0.0
  0
VERTEX
  5
1F6
  8
0
 10
12.26632772716933
 20
16.27105799036936
 30
0.0
  0
SEQEND
  5
2AB
  8
0
  0
POLYLINE
  5
BB
  8
0
 66
     1
 10
0.0
 20
0.0
 30
0.0
 70
     1
  0
VERTEX
  5
1F7
  8
0
 10
9.266327727169335
 20
17.56037466899023
 30
0.0
  0
VERTEX
  5
1F8
  8
0
 10
9.266327727169335
 20
18.06037466899024
 30
0.0
  0
VERTEX
  5
1F9
  8
0
 10
10.26632772716933
 20
18.06037466899024
 30
0.0
  0
VERTEX
  5
1FA
  8
0
 10
10.26632772716933
 20
17.56037466899023
 30
0.0
  0
SEQEND
  5
2AC
  8
0
  0
POLYLINE
  5
BC
  8
0
 66
     1
 10
0.0
 20
0.0
 30
0.0
 70
     1
  0
VERTEX
  5
1FB
  8
0
 10
7.92144326221154
 20
16.27105799036936
 30
0.0
  0
VERTEX
  5
1FC
  8
0
 10
8.921443262211536
 20
16.27105799036936
 30
0.0
  0
VERTEX
  5
1FD
  8
0
 10
8.921443262211536
 20
16.77105799036936
 30
0.0
  0
VERTEX
  5
1FE
  8
0
 10
7.92144326221154
 20
16.77105799036936
 30
0.0
  0
SEQEND
  5
2AD
  8
0
  0
POLYLINE
  5
BD
  8
0
 66
     1
 10
0.0
 20
0.0
 30
0.0
 70
     1
  0
VERTEX
  5
1FF
  8
0
 10
8.076643262211538
 20
13.24635899880604
 30
0.0
  0
VERTEX
  5
200
  8
0
 10
8.291443262211539
 20
13.24635899880604
 30
0.0
 42
-1.0
  0
VERTEX
  5
201
  8
0
 10
8.551443262211537
 20
13.24635899880604
 30
0.0
  0
VERTEX
  5
202
  8
0
 10
8.826643262211535
 20
13.24635899880604
 30
0.0
  0
VERTEX
  5
203
  8
0
 10
8.826643262211535
 20
12.99635899880604
 30
0.0
  0
VERTEX
  5
204
  8
0
 10
11.39132772716933
 20
12.99635899880604
 30
0.0
  0
VERTEX
  5
205
  8
0
 10
11.39132772716933
 20
13.24635899880604
 30
0.0
  0
VERTEX
  5
206
  8
0
 10
11.63632772716933
 20
13.24635899880604
 30
0.0
 42
-0.9999999999999992
  0
VERTEX
  5
207
  8
0
 10
11.89632772716933
 20
13.24635899880604
 30
0.0
  0
VERTEX
  5
208
  8
0
 10
12.14132772716933
 20
13.24635899880604
 30
0.0
  0
VERTEX
  5
209
  8
0
 10
12.14132772716933
 20
12.99635899880604
 30
0.0
  0
VERTEX
  5
20A
  8
0
 10
14.70601219212713
 20
12.99635899880604
 30
0.0
  0
VERTEX
  5
20B
  8
0
 10
14.70601219212713
 20
13.24635899880604
 30
0.0
  0
VERTEX
  5
20C
  8
0
 10
14.98121219212713
 20
13.24635899880604
 30
0.0
 42
-1.0
  0
VERTEX
  5
20D
  8
0
 10
15.24121219212713
 20
13.24635899880604
 30
0.0
  0
VERTEX
  5
20E
  8
0
 10
15.45601219212713
 20
13.24635899880604
 30
0.0
  0
VERTEX
  5
20F
  8
0
 10
15.45601219212713
 20
14.50074751380266
 30
0.0
  0
VERTEX
  5
210
  8
0
 10
14.1701171754083
 20
14.50074751380266
 30
0.0
 42
-0.775965215660547
  0
VERTEX
  5
211
  8
0
 10
12.70742274388817
 20
14.50074751380266
 30
0.0
  0
VERTEX
  5
212
  8
0
 10
10.8252327104505
 20
14.50074751380266
 30
0.0
 42
-0.775965215660547
  0
VERTEX
  5
213
  8
0
 10
9.36253827893037
 20
14.50074751380266
 30
0.0
  0
VERTEX
  5
214
  8
0
 10
8.076643262211538
 20
14.50074751380266
 30
0.0
  0
SEQEND
  5
2AE
  8
0
  0
POLYLINE
  5
BE
  8
0
 66
     1
 10
0.0
 20
0.0
 30
0.0
 70
     1
  0
VERTEX
  5
215
  8
0
 10
6.391327727169339
 20
15.03787466899022
 30
0.0
  0
VERTEX
  5
216
  8
0
 10
6.391327727169339
 20
19.56037466899024
 30
0.0
  0
VERTEX
  5
217
  8
0
 10
9.266327727169337
 20
19.56037466899024
 30
0.0
  0
VERTEX
  5
218
  8
0
 10
9.266327727169337
 20
18.81037466899024
 30
0.0
 42
1.0
  0
VERTEX
  5
219
  8
0
 10
9.516327727169335
 20
18.81037466899024
 30
0.0
  0
VERTEX
  5
21A
  8
0
 10
9.641327727169335
 20
18.81037466899024
 30
0.0
 42
1.0
  0
VERTEX
  5
21B
  8
0
 10
9.891327727169335
 20
18.81037466899024
 30
0.0
  0
VERTEX
  5
21C
  8
0
 10
13.64132772716933
 20
18.81037466899024
 30
0.0
 42
1.0
  0
VERTEX
  5
21D
  8
0
 10
13.89132772716933
 20
18.81037466899024
 30
0.0
  0
VERTEX
  5
21E
  8
0
 10
14.01632772716933
 20
18.81037466899024
 30
0.0
 42
1.0
  0
VERTEX
  5
21F
  8
0
 10
14.26632772716933
 20
18.81037466899024
 30
0.0
  0
VERTEX
  5
220
  8
0
 10
14.26632772716933
 20
19.56037466899024
 30
0.0
  0
VERTEX
  5
221
  8
0
 10
17.14132772716934
 20
19.56037466899024
 30
0.0
  0
VERTEX
  5
222
  8
0
 10
17.14132772716933
 20
15.03787466899022
 30
0.0
  0
VERTEX
  5
223
  8
0
 10
15.64351219212713
 20
15.03787466899022
 30
0.0
  0
VERTEX
  5
224
  8
0
 10
15.64351219212713
 20
15.40037466899022
 30
0.0
  0
VERTEX
  5
225
  8
0
 10
15.24121219212713
 20
15.40037466899022
 30
0.0
 42
1.0
  0
VERTEX
  5
226
  8
0
 10
14.98121219212713
 20
15.40037466899022
 30
0.0
  0
VERTEX
  5
227
  8
0
 10
14.1701171754083
 20
15.40037466899022
 30
0.0
 42
0.7759652156605463
  0
VERTEX
  5
228
  8
0
 10
12.70742274388817
 20
15.40037466899022
 30
0.0
  0
VERTEX
  5
229
  8
0
 10
11.89632772716933
 20
15.40037466899022
 30
0.0
 42
0.9999999999999992
  0
VERTEX
  5
22A
  8
0
 10
11.63632772716933
 20
15.40037466899022
 30
0.0
  0
VERTEX
  5
22B
  8
0
 10
10.8252327104505
 20
15.40037466899022
 30
0.0
 42
0.775965215660547
  0
VERTEX
  5
22C
  8
0
 10
9.362538278930362
 20
15.40037466899022
 30
0.0
  0
VERTEX
  5
22D
  8
0
 10
8.551443262211537
 20
15.40037466899022
 30
0.0
 42
1.0
  0
VERTEX
  5
22E
  8
0
 10
8.291443262211539
 20
15.40037466899022
 30
0.0
  0
VERTEX
  5
22F
  8
0
 10
7.889143262211538
 20
15.40037466899022
 30
0.0
  0
VERTEX
  5
230
  8
0
 10
7.889143262211538
 20
15.03787466899022
 30
0.0
  0
SEQEND
  5
2AF
  8
0
  0
POLYLINE
  5
BF
  8
0
 66
     1
 10
0.0
 20
0.0
 30
0.0
 70
     1
  0
VERTEX
  5
231
  8
0
 10
0.0534632388600797
 20
17.25652921829251
 30
0.0
  0
VERTEX
  5
232
  8
0
 10
0.0534632388600761
 20
1.576244208430545
 30
0.0
  0
VERTEX
  5
233
  8
0
 10
1.053463238860076
 20
1.576244208430547
 30
0.0
  0
VERTEX
  5
234
  8
0
 10
1.053463238860074
 20
0.0762442084305464
 30
0.0
  0
VERTEX
  5
235
  8
0
 10
2.241463238860081
 20
0.0762442084305484
 30
0.0
  0
VERTEX
  5
236
  8
0
 10
2.241463238860069
 20
0.8262442084305484
 30
0.0
  0
VERTEX
  5
237
  8
0
 10
2.241463238860076
 20
2.064701988046223
 30
0.0
 42
-0.8797272671653722
  0
VERTEX
  5
238
  8
0
 10
2.241463238860077
 20
4.243786428814866
 30
0.0
  0
VERTEX
  5
239
  8
0
 10
2.241463238860072
 20
5.326244208430548
 30
0.0
  0
VERTEX
  5
23A
  8
0
 10
2.521463238860076
 20
5.326244208430548
 30
0.0
  0
VERTEX
  5
23B
  8
0
 10
2.521463238860076
 20
4.243786428814868
 30
0.0
 42
-0.8797232082161284
  0
VERTEX
  5
23C
  8
0
 10
2.521473210905552
 20
2.064703269443933
 30
0.0
  0
VERTEX
  5
23D
  8
0
 10
2.519660621835947
 20
0.0762442084305484
 30
0.0
  0
VERTEX
  5
23E
  8
0
 10
3.709459056542264
 20
0.0762442084305503
 30
0.0
  0
VERTEX
  5
23F
  8
0
 10
3.713797313047722
 20
1.57624420843055
 30
0.0
  0
VERTEX
  5
240
  8
0
 10
4.713801495365536
 20
1.576244208430552
 30
0.0
  0
VERTEX
  5
241
  8
0
 10
4.724990965790032
 20
5.445126930239397
 30
0.0
  0
VERTEX
  5
242
  8
0
 10
8.602958185297108
 20
5.453848021637358
 30
0.0
  0
VERTEX
  5
243
  8
0
 10
8.602958185297105
 20
6.641351024507029
 30
0.0
  0
VERTEX
  5
244
  8
0
 10
10.1029581852971
 20
6.644724347786066
 30
0.0
  0
VERTEX
  5
245
  8
0
 10
10.1029581852971
 20
7.6452213449164
 30
0.0
  0
VERTEX
  5
246
  8
0
 10
8.114500405681428
 20
7.645221344916402
 30
0.0
 42
-0.8797272671653795
  0
VERTEX
  5
247
  8
0
 10
5.935415964912789
 20
7.645221344916402
 30
0.0
  0
VERTEX
  5
248
  8
0
 10
4.852958185297108
 20
7.645221344916401
 30
0.0
  0
VERTEX
  5
249
  8
0
 10
4.852958185297106
 20
7.925221344916403
 30
0.0
  0
VERTEX
  5
24A
  8
0
 10
5.935415964912788
 20
7.925221344916403
 30
0.0
 42
-0.8797272671653813
  0
VERTEX
  5
24B
  8
0
 10
8.11450040568143
 20
7.925221344916404
 30
0.0
  0
VERTEX
  5
24C
  8
0
 10
10.1029581852971
 20
7.925221344916401
 30
0.0
  0
VERTEX
  5
24D
  8
0
 10
10.1029581852971
 20
8.925719285567782
 30
0.0
  0
VERTEX
  5
24E
  8
0
 10
8.6029581852971
 20
8.922925747637503
 30
0.0
  0
VERTEX
  5
24F
  8
0
 10
8.602958185297105
 20
10.11042780698611
 30
0.0
  0
VERTEX
  5
250
  8
0
 10
4.7694335130039
 20
10.10328840926695
 30
0.0
  0
VERTEX
  5
251
  8
0
 10
4.719858813558744
 20
17.25652921829247
 30
0.0
  0
VERTEX
  5
252
  8
0
 10
3.719834798741915
 20
17.25652921829248
 30
0.0
  0
VERTEX
  5
253
  8
0
 10
3.709439224043254
 20
18.75652921829248
 30
0.0
  0
VERTEX
  5
254
  8
0
 10
2.521463238860078
 20
18.75652921829248
 30
0.0
  0
VERTEX
  5
255
  8
0
 10
2.521463238860078
 20
16.7680714386768
 30
0.0
 42
-0.8797272671653812
  0
VERTEX
  5
256
  8
0
 10
2.521463238860076
 20
14.58898699790815
 30
0.0
  0
VERTEX
  5
257
  8
0
 10
2.521463238860076
 20
13.50652921829247
 30
0.0
  0
VERTEX
  5
258
  8
0
 10
2.241463238860079
 20
13.50652921829247
 30
0.0
  0
VERTEX
  5
259
  8
0
 10
2.241463238860076
 20
14.58898699790815
 30
0.0
 42
-0.8797272671653764
  0
VERTEX
  5
25A
  8
0
 10
2.241463238860077
 20
16.7680714386768
 30
0.0
  0
VERTEX
  5
25B
  8
0
 10
2.241463238860077
 20
18.75652921829248
 30
0.0
  0
VERTEX
  5
25C
  8
0
 10
1.053463238860079
 20
18.75652921829249
 30
0.0
  0
VERTEX
  5
25D
  8
0
 10
1.053463238860079
 20
17.25652921829249
 30
0.0
  0
SEQEND
  5
2B0
  8
0
  0
ENDSEC
  0
EOF
