  0
SECTION
  2
HEADER
  9
$ACADVER
  1
AC1009
  9
$DWGCODEPAGE
  3
ansi_1252
  9
$INSBASE
 10
0.0
 20
0.0
 30
0.0
  9
$EXTMIN
 10
0.1281441596579467
 20
0.3117707851250771
 30
0.0
  9
$EXTMAX
 10
21.62393190672895
 20
21.60673386335873
 30
0.0
  9
$LIMMIN
 10
0.0
 20
0.0
  9
$LIMMAX
 10
12.0
 20
9.0
  9
$ORTHOMODE
 70
     0
  9
$REGENMODE
 70
     1
  9
$FILLMODE
 70
     1
  9
$QTEXTMODE
 70
     0
  9
$MIRRTEXT
 70
     1
  9
$DRAGMODE
 70
     2
  9
$LTSCALE
 40
1.0
  9
$OSMODE
 70
    37
  9
$ATTMODE
 70
     1
  9
$TEXTSIZE
 40
0.2
  9
$TRACEWID
 40
0.05
  9
$TEXTSTYLE
  7
STANDARD
  9
$CLAYER
  8
0
  9
$CELTYPE
  6
BYLAYER
  9
$CECOLOR
 62
   256
  9
$DIMSCALE
 40
1.0
  9
$DIMASZ
 40
0.18
  9
$DIMEXO
 40
0.0625
  9
$DIMDLI
 40
0.38
  9
$DIMRND
 40
0.0
  9
$DIMDLE
 40
0.0
  9
$DIMEXE
 40
0.18
  9
$DIMTP
 40
0.0
  9
$DIMTM
 40
0.0
  9
$DIMTXT
 40
0.18
  9
$DIMCEN
 40
0.09
  9
$DIMTSZ
 40
0.0
  9
$DIMTOL
 70
     0
  9
$DIMLIM
 70
     0
  9
$DIMTIH
 70
     1
  9
$DIMTOH
 70
     1
  9
$DIMSE1
 70
     0
  9
$DIMSE2
 70
     0
  9
$DIMTAD
 70
     0
  9
$DIMZIN
 70
     0
  9
$DIMBLK
  1

  9
$DIMASO
 70
     1
  9
$DIMSHO
 70
     1
  9
$DIMPOST
  1

  9
$DIMAPOST
  1

  9
$DIMALT
 70
     0
  9
$DIMALTD
 70
     2
  9
$DIMALTF
 40
25.4
  9
$DIMLFAC
 40
1.0
  9
$DIMTOFL
 70
     0
  9
$DIMTVP
 40
0.0
  9
$DIMTIX
 70
     0
  9
$DIMSOXD
 70
     0
  9
$DIMSAH
 70
     0
  9
$DIMBLK1
  1

  9
$DIMBLK2
  1

  9
$DIMSTYLE
  2
STANDARD
  9
$DIMCLRD
 70
     0
  9
$DIMCLRE
 70
     0
  9
$DIMCLRT
 70
     0
  9
$DIMTFAC
 40
1.0
  9
$DIMGAP
 40
0.09
  9
$LUNITS
 70
     2
  9
$LUPREC
 70
     4
  9
$SKETCHINC
 40
0.1
  9
$FILLETRAD
 40
0.5
  9
$AUNITS
 70
     0
  9
$AUPREC
 70
     0
  9
$MENU
  1
.
  9
$ELEVATION
 40
0.0
  9
$PELEVATION
 40
0.0
  9
$THICKNESS
 40
0.0
  9
$LIMCHECK
 70
     0
  9
$CHAMFERA
 40
0.0
  9
$CHAMFERB
 40
0.0
  9
$SKPOLY
 70
     0
  9
$TDCREATE
 40
2454910.5
  9
$TDUPDATE
 40
2458224.63961059
  9
$TDINDWG
 40
0.0000000116
  9
$TDUSRTIMER
 40
0.0000000116
  9
$USRTIMER
 70
     1
  9
$ANGBASE
 50
0.0
  9
$ANGDIR
 70
     0
  9
$PDMODE
 70
     0
  9
$PDSIZE
 40
0.0
  9
$PLINEWID
 40
0.0
  9
$COORDS
 70
     1
  9
$SPLFRAME
 70
     0
  9
$SPLINETYPE
 70
     6
  9
$SPLINESEGS
 70
     8
  9
$ATTDIA
 70
     0
  9
$ATTREQ
 70
     1
  9
$HANDLING
 70
     1
  9
$HANDSEED
  5
362
  9
$SURFTAB1
 70
     6
  9
$SURFTAB2
 70
     6
  9
$SURFTYPE
 70
     6
  9
$SURFU
 70
     6
  9
$SURFV
 70
     6
  9
$UCSNAME
  2

  9
$UCSORG
 10
0.0
 20
0.0
 30
0.0
  9
$UCSXDIR
 10
1.0
 20
0.0
 30
0.0
  9
$UCSYDIR
 10
0.0
 20
1.0
 30
0.0
  9
$PUCSNAME
  2

  9
$PUCSORG
 10
0.0
 20
0.0
 30
0.0
  9
$PUCSXDIR
 10
1.0
 20
0.0
 30
0.0
  9
$PUCSYDIR
 10
0.0
 20
1.0
 30
0.0
  9
$USERI1
 70
     0
  9
$USERI2
 70
     0
  9
$USERI3
 70
     0
  9
$USERI4
 70
     0
  9
$USERI5
 70
     0
  9
$USERR1
 40
0.0
  9
$USERR2
 40
0.0
  9
$USERR3
 40
0.0
  9
$USERR4
 40
0.0
  9
$USERR5
 40
0.0
  9
$WORLDVIEW
 70
     1
  9
$SHADEDGE
 70
     3
  9
$SHADEDIF
 70
    70
  9
$TILEMODE
 70
     1
  9
$MAXACTVP
 70
    64
  9
$PLIMCHECK
 70
     0
  9
$PEXTMIN
 10
1.000000000000000E+20
 20
1.000000000000000E+20
 30
1.000000000000000E+20
  9
$PEXTMAX
 10
-1.000000000000000E+20
 20
-1.000000000000000E+20
 30
-1.000000000000000E+20
  9
$PLIMMIN
 10
0.0
 20
0.0
  9
$PLIMMAX
 10
12.0
 20
9.0
  9
$UNITMODE
 70
     0
  9
$VISRETAIN
 70
     1
  9
$PLINEGEN
 70
     0
  9
$PSLTSCALE
 70
     1
  0
ENDSEC
  0
SECTION
  2
TABLES
  0
TABLE
  2
VPORT
 70
     1
  0
VPORT
  2
*ACTIVE
 70
     0
 10
0.0
 20
0.0
 11
1.0
 21
1.0
 12
10.42990654205607
 22
4.5
 13
0.0
 23
0.0
 14
0.5
 24
0.5
 15
0.5
 25
0.5
 16
0.0
 26
0.0
 36
1.0
 17
0.0
 27
0.0
 37
0.0
 40
9.0
 41
1.972972972850329
 42
50.0
 43
0.0
 44
0.0
 50
0.0
 51
0.0
 71
     0
 72
   100
 73
     1
 74
     3
 75
     0
 76
     0
 77
     0
 78
     0
  0
ENDTAB
  0
TABLE
  2
LTYPE
 70
     2
  0
LTYPE
  2
CONTINUOUS
 70
     0
  3
Solid line
 72
    65
 73
     0
 40
0.0
  0
LTYPE
  2
CONTINUOUS2
 70
     0
  3
Solid Line
 72
    65
 73
     0
 40
0.0
  0
ENDTAB
  0
TABLE
  2
LAYER
 70
     1
  0
LAYER
  2
0
 70
     0
 62
     7
  6
CONTINUOUS
  0
ENDTAB
  0
TABLE
  2
STYLE
 70
     1
  0
STYLE
  2
STANDARD
 70
     0
 40
0.0
 41
1.0
 50
0.0
 71
     0
 42
0.2
  3
txt
  4

  0
ENDTAB
  0
TABLE
  2
VIEW
 70
     0
  0
ENDTAB
  0
TABLE
  2
UCS
 70
     0
  0
ENDTAB
  0
TABLE
  2
APPID
 70
     1
  0
APPID
  2
ACAD
 70
     0
  0
ENDTAB
  0
TABLE
  2
DIMSTYLE
 70
     1
  0
DIMSTYLE
  2
STANDARD
 70
     0
  3

  4

  5

  6

  7

 40
1.0
 41
0.18
 42
0.0625
 43
0.38
 44
0.18
 45
0.0
 46
0.0
 47
0.0
 48
0.0
140
0.18
141
0.09
142
0.0
143
25.4
144
1.0
145
0.0
146
1.0
147
0.09
 71
     0
 72
     0
 73
     1
 74
     1
 75
     0
 76
     0
 77
     0
 78
     0
170
     0
171
     2
172
     0
173
     0
174
     0
175
     0
176
     0
177
     0
178
     0
  0
ENDTAB
  0
ENDSEC
  0
SECTION
  2
BLOCKS
  0
BLOCK
  8
0
  2
$MODEL_SPACE
 70
     0
 10
0.0
 20
0.0
 30
0.0
  3
$MODEL_SPACE
  1

  0
ENDBLK
  5
21
  8
0
  0
BLOCK
 67
     1
  8
0
  2
$PAPER_SPACE
 70
     0
 10
0.0
 20
0.0
 30
0.0
  3
$PAPER_SPACE
  1

  0
ENDBLK
  5
1D
 67
     1
  8
0
  0
ENDSEC
  0
SECTION
  2
ENTITIES
  0
POLYLINE
  5
6F
  8
0
 66
     1
 10
0.0
 20
0.0
 30
0.0
 70
     1
  0
VERTEX
  5
C9
  8
0
 10
3.906067854337115
 20
5.462495588607691
 30
0.0
 42
0.4142135623730951
  0
VERTEX
  5
CA
  8
0
 10
4.046067854337113
 20
5.602495588607692
 30
0.0
 42
0.4142135623730951
  0
VERTEX
  5
CB
  8
0
 10
3.906067854337115
 20
5.742495588607692
 30
0.0
 42
0.4142135623730951
  0
VERTEX
  5
CC
  8
0
 10
3.766067854337114
 20
5.602495588607692
 30
0.0
 42
0.4142135623730951
  0
SEQEND
  5
30F
  8
0
  0
POLYLINE
  5
70
  8
0
 66
     1
 10
0.0
 20
0.0
 30
0.0
 70
     1
  0
VERTEX
  5
CD
  8
0
 10
1.028667854337108
 20
5.462495588607691
 30
0.0
 42
0.4142135623730951
  0
VERTEX
  5
CE
  8
0
 10
1.16866785433711
 20
5.602495588607692
 30
0.0
 42
0.4142135623730951
  0
VERTEX
  5
CF
  8
0
 10
1.028667854337108
 20
5.742495588607692
 30
0.0
 42
0.4142135623730951
  0
VERTEX
  5
D0
  8
0
 10
0.8886678543371066
 20
5.602495588607692
 30
0.0
 42
0.4142135623730951
  0
SEQEND
  5
310
  8
0
  0
POLYLINE
  5
71
  8
0
 66
     1
 10
0.0
 20
0.0
 30
0.0
 70
     1
  0
VERTEX
  5
D1
  8
0
 10
9.475852245524969
 20
5.481136184757978
 30
0.0
 42
0.4142135623730951
  0
VERTEX
  5
D2
  8
0
 10
9.615852245524971
 20
5.621136184757978
 30
0.0
 42
0.4142135623730951
  0
VERTEX
  5
D3
  8
0
 10
9.475852245524969
 20
5.761136184757977
 30
0.0
 42
0.4142135623730951
  0
VERTEX
  5
D4
  8
0
 10
9.335852245524967
 20
5.621136184757978
 30
0.0
 42
0.4142135623730951
  0
SEQEND
  5
311
  8
0
  0
POLYLINE
  5
72
  8
0
 66
     1
 10
0.0
 20
0.0
 30
0.0
 70
     1
  0
VERTEX
  5
D5
  8
0
 10
6.598452245524951
 20
5.481136184757978
 30
0.0
 42
0.4142135623730951
  0
VERTEX
  5
D6
  8
0
 10
6.738452245524953
 20
5.621136184757978
 30
0.0
 42
0.4142135623730951
  0
VERTEX
  5
D7
  8
0
 10
6.598452245524951
 20
5.761136184757977
 30
0.0
 42
0.4142135623730951
  0
VERTEX
  5
D8
  8
0
 10
6.45845224552495
 20
5.621136184757978
 30
0.0
 42
0.4142135623730951
  0
SEQEND
  5
312
  8
0
  0
POLYLINE
  5
73
  8
0
 66
     1
 10
0.0
 20
0.0
 30
0.0
 70
     1
  0
VERTEX
  5
D9
  8
0
 10
20.6790974908302
 20
13.60130906516938
 30
0.0
 42
0.4142135623730951
  0
VERTEX
  5
DA
  8
0
 10
20.8190974908302
 20
13.74130906516938
 30
0.0
 42
0.4142135623730951
  0
VERTEX
  5
DB
  8
0
 10
20.6790974908302
 20
13.88130906516938
 30
0.0
 42
0.4142135623730951
  0
VERTEX
  5
DC
  8
0
 10
20.5390974908302
 20
13.74130906516938
 30
0.0
 42
0.4142135623730951
  0
SEQEND
  5
313
  8
0
  0
POLYLINE
  5
74
  8
0
 66
     1
 10
0.0
 20
0.0
 30
0.0
 70
     1
  0
VERTEX
  5
DD
  8
0
 10
17.80169749083021
 20
13.60130906516938
 30
0.0
 42
0.4142135623730951
  0
VERTEX
  5
DE
  8
0
 10
17.94169749083022
 20
13.74130906516938
 30
0.0
 42
0.4142135623730951
  0
VERTEX
  5
DF
  8
0
 10
17.80169749083021
 20
13.88130906516938
 30
0.0
 42
0.4142135623730951
  0
VERTEX
  5
E0
  8
0
 10
17.66169749083021
 20
13.74130906516938
 30
0.0
 42
0.4142135623730951
  0
SEQEND
  5
314
  8
0
  0
POLYLINE
  5
75
  8
0
 66
     1
 10
0.0
 20
0.0
 30
0.0
 70
     1
  0
VERTEX
  5
E1
  8
0
 10
15.03993662283092
 20
5.595091451473635
 30
0.0
 42
0.4142135623730951
  0
VERTEX
  5
E2
  8
0
 10
15.17993662283092
 20
5.735091451473635
 30
0.0
 42
0.4142135623730951
  0
VERTEX
  5
E3
  8
0
 10
15.03993662283092
 20
5.875091451473637
 30
0.0
 42
0.4142135623730951
  0
VERTEX
  5
E4
  8
0
 10
14.89993662283091
 20
5.735091451473635
 30
0.0
 42
0.4142135623730951
  0
SEQEND
  5
315
  8
0
  0
POLYLINE
  5
76
  8
0
 66
     1
 10
0.0
 20
0.0
 30
0.0
 70
     1
  0
VERTEX
  5
E5
  8
0
 10
12.16253662283088
 20
5.595091451473639
 30
0.0
 42
0.4142135623730951
  0
VERTEX
  5
E6
  8
0
 10
12.30253662283089
 20
5.735091451473636
 30
0.0
 42
0.4142135623730951
  0
VERTEX
  5
E7
  8
0
 10
12.16253662283088
 20
5.875091451473637
 30
0.0
 42
0.4142135623730951
  0
VERTEX
  5
E8
  8
0
 10
12.02253662283088
 20
5.735091451473636
 30
0.0
 42
0.4142135623730951
  0
SEQEND
  5
316
  8
0
  0
POLYLINE
  5
77
  8
0
 66
     1
 10
0.0
 20
0.0
 30
0.0
 70
     1
  0
VERTEX
  5
E9
  8
0
 10
19.91294475332201
 20
20.64392756170519
 30
0.0
 42
0.4142135623730951
  0
VERTEX
  5
EA
  8
0
 10
20.05294475332201
 20
20.78392756170519
 30
0.0
 42
0.4142135623730951
  0
VERTEX
  5
EB
  8
0
 10
19.91294475332201
 20
20.92392756170519
 30
0.0
 42
0.4142135623730951
  0
VERTEX
  5
EC
  8
0
 10
19.77294475332201
 20
20.78392756170519
 30
0.0
 42
0.4142135623730951
  0
SEQEND
  5
317
  8
0
  0
POLYLINE
  5
78
  8
0
 66
     1
 10
0.0
 20
0.0
 30
0.0
 70
     1
  0
VERTEX
  5
ED
  8
0
 10
17.035544753322
 20
20.64392756170519
 30
0.0
 42
0.4142135623730951
  0
VERTEX
  5
EE
  8
0
 10
17.175544753322
 20
20.78392756170519
 30
0.0
 42
0.4142135623730951
  0
VERTEX
  5
EF
  8
0
 10
17.035544753322
 20
20.92392756170519
 30
0.0
 42
0.4142135623730951
  0
VERTEX
  5
F0
  8
0
 10
16.89554475332199
 20
20.78392756170519
 30
0.0
 42
0.4142135623730951
  0
SEQEND
  5
318
  8
0
  0
POLYLINE
  5
79
  8
0
 66
     1
 10
0.0
 20
0.0
 30
0.0
 70
     1
  0
VERTEX
  5
F1
  8
0
 10
20.55882144151381
 20
6.022157464212107
 30
0.0
 42
0.4142135623730951
  0
VERTEX
  5
F2
  8
0
 10
20.69882144151381
 20
6.162157464212108
 30
0.0
 42
0.4142135623730951
  0
VERTEX
  5
F3
  8
0
 10
20.55882144151381
 20
6.302157464212106
 30
0.0
 42
0.4142135623730951
  0
VERTEX
  5
F4
  8
0
 10
20.41882144151381
 20
6.162157464212108
 30
0.0
 42
0.4142135623730951
  0
SEQEND
  5
319
  8
0
  0
POLYLINE
  5
7A
  8
0
 66
     1
 10
0.0
 20
0.0
 30
0.0
 70
     1
  0
VERTEX
  5
F5
  8
0
 10
17.68142144151382
 20
6.022157464212111
 30
0.0
 42
0.4142135623730951
  0
VERTEX
  5
F6
  8
0
 10
17.82142144151382
 20
6.162157464212108
 30
0.0
 42
0.4142135623730951
  0
VERTEX
  5
F7
  8
0
 10
17.68142144151382
 20
6.302157464212107
 30
0.0
 42
0.4142135623730951
  0
VERTEX
  5
F8
  8
0
 10
17.54142144151382
 20
6.162157464212108
 30
0.0
 42
0.4142135623730951
  0
SEQEND
  5
31A
  8
0
  0
POLYLINE
  5
7B
  8
0
 66
     1
 10
0.0
 20
0.0
 30
0.0
 70
     1
  0
VERTEX
  5
F9
  8
0
 10
6.922337077130539
 20
18.52873386335873
 30
0.0
 42
0.4142135623730951
  0
VERTEX
  5
FA
  8
0
 10
7.05233707713054
 20
18.39873386335873
 30
0.0
 42
0.4142135623730951
  0
VERTEX
  5
FB
  8
0
 10
7.182337077130541
 20
18.52873386335873
 30
0.0
 42
0.4142135623730951
  0
VERTEX
  5
FC
  8
0
 10
7.05233707713054
 20
18.65873386335873
 30
0.0
 42
0.4142135623730951
  0
SEQEND
  5
31B
  8
0
  0
POLYLINE
  5
7C
  8
0
 66
     1
 10
0.0
 20
0.0
 30
0.0
 70
     1
  0
VERTEX
  5
FD
  8
0
 10
6.922337077130539
 20
20.02873386335873
 30
0.0
 42
0.4142135623730951
  0
VERTEX
  5
FE
  8
0
 10
7.05233707713054
 20
19.89873386335873
 30
0.0
 42
0.4142135623730951
  0
VERTEX
  5
FF
  8
0
 10
7.182337077130541
 20
20.02873386335873
 30
0.0
 42
0.4142135623730951
  0
VERTEX
  5
100
  8
0
 10
7.05233707713054
 20
20.15873386335873
 30
0.0
 42
0.4142135623730951
  0
SEQEND
  5
31C
  8
0
  0
POLYLINE
  5
7D
  8
0
 66
     1
 10
0.0
 20
0.0
 30
0.0
 70
     1
  0
VERTEX
  5
101
  8
0
 10
6.999645683159188
 20
13.27314623112325
 30
0.0
 42
0.4142135623730951
  0
VERTEX
  5
102
  8
0
 10
7.129645683159191
 20
13.14314623112325
 30
0.0
 42
0.4142135623730951
  0
VERTEX
  5
103
  8
0
 10
7.25964568315919
 20
13.27314623112325
 30
0.0
 42
0.4142135623730951
  0
VERTEX
  5
104
  8
0
 10
7.129645683159191
 20
13.40314623112325
 30
0.0
 42
0.4142135623730951
  0
SEQEND
  5
31D
  8
0
  0
POLYLINE
  5
7E
  8
0
 66
     1
 10
0.0
 20
0.0
 30
0.0
 70
     1
  0
VERTEX
  5
105
  8
0
 10
6.999645683159188
 20
14.77314623112325
 30
0.0
 42
0.4142135623730951
  0
VERTEX
  5
106
  8
0
 10
7.129645683159191
 20
14.64314623112325
 30
0.0
 42
0.4142135623730951
  0
VERTEX
  5
107
  8
0
 10
7.25964568315919
 20
14.77314623112325
 30
0.0
 42
0.4142135623730951
  0
VERTEX
  5
108
  8
0
 10
7.129645683159191
 20
14.90314623112326
 30
0.0
 42
0.4142135623730951
  0
SEQEND
  5
31E
  8
0
  0
POLYLINE
  5
7F
  8
0
 66
     1
 10
0.0
 20
0.0
 30
0.0
 70
     1
  0
VERTEX
  5
109
  8
0
 10
15.0593185826117
 20
8.285978115851995
 30
0.0
 42
0.4142135623730951
  0
VERTEX
  5
10A
  8
0
 10
15.1893185826117
 20
8.415978115851988
 30
0.0
 42
0.4142135623730951
  0
VERTEX
  5
10B
  8
0
 10
15.0593185826117
 20
8.54597811585199
 30
0.0
 42
0.4142135623730951
  0
VERTEX
  5
10C
  8
0
 10
14.9293185826117
 20
8.415978115851988
 30
0.0
 42
0.4142135623730951
  0
SEQEND
  5
31F
  8
0
  0
POLYLINE
  5
80
  8
0
 66
     1
 10
0.0
 20
0.0
 30
0.0
 70
     1
  0
VERTEX
  5
10D
  8
0
 10
12.7724361176539
 20
8.285978115851995
 30
0.0
 42
0.4142135623730951
  0
VERTEX
  5
10E
  8
0
 10
12.9024361176539
 20
8.415978115851996
 30
0.0
 42
0.4142135623730951
  0
VERTEX
  5
10F
  8
0
 10
12.7724361176539
 20
8.54597811585199
 30
0.0
 42
0.4142135623730951
  0
VERTEX
  5
110
  8
0
 10
12.64243611765391
 20
8.415978115851996
 30
0.0
 42
0.4142135623730951
  0
SEQEND
  5
320
  8
0
  0
POLYLINE
  5
81
  8
0
 66
     1
 10
0.0
 20
0.0
 30
0.0
 70
     1
  0
VERTEX
  5
111
  8
0
 10
11.71443411765391
 20
8.285978115851995
 30
0.0
 42
0.4142135623730951
  0
VERTEX
  5
112
  8
0
 10
11.8444341176539
 20
8.415978115851988
 30
0.0
 42
0.4142135623730951
  0
VERTEX
  5
113
  8
0
 10
11.71443411765391
 20
8.54597811585199
 30
0.0
 42
0.4142135623730951
  0
VERTEX
  5
114
  8
0
 10
11.58443411765391
 20
8.415978115851988
 30
0.0
 42
0.4142135623730951
  0
SEQEND
  5
321
  8
0
  0
POLYLINE
  5
82
  8
0
 66
     1
 10
0.0
 20
0.0
 30
0.0
 70
     1
  0
VERTEX
  5
115
  8
0
 10
9.427551652696115
 20
8.285978115851998
 30
0.0
 42
0.4142135623730951
  0
VERTEX
  5
116
  8
0
 10
9.557551652696116
 20
8.415978115851996
 30
0.0
 42
0.4142135623730951
  0
VERTEX
  5
117
  8
0
 10
9.427551652696115
 20
8.545978115851996
 30
0.0
 42
0.4142135623730951
  0
VERTEX
  5
118
  8
0
 10
9.297551652696118
 20
8.415978115851996
 30
0.0
 42
0.4142135623730951
  0
SEQEND
  5
322
  8
0
  0
POLYLINE
  5
83
  8
0
 66
     1
 10
0.0
 20
0.0
 30
0.0
 70
     1
  0
VERTEX
  5
119
  8
0
 10
6.633712089573525
 20
9.318600508487169
 30
0.0
 42
0.4142135623730951
  0
VERTEX
  5
11A
  8
0
 10
6.763712089573523
 20
9.448600508487171
 30
0.0
 42
0.4142135623730951
  0
VERTEX
  5
11B
  8
0
 10
6.633712089573525
 20
9.578600508487167
 30
0.0
 42
0.4142135623730951
  0
VERTEX
  5
11C
  8
0
 10
6.503712089573522
 20
9.448600508487171
 30
0.0
 42
0.4142135623730951
  0
SEQEND
  5
323
  8
0
  0
POLYLINE
  5
84
  8
0
 66
     1
 10
0.0
 20
0.0
 30
0.0
 70
     1
  0
VERTEX
  5
11D
  8
0
 10
4.346829624615731
 20
9.318600508487165
 30
0.0
 42
0.4142135623730951
  0
VERTEX
  5
11E
  8
0
 10
4.476829624615732
 20
9.448600508487164
 30
0.0
 42
0.4142135623730951
  0
VERTEX
  5
11F
  8
0
 10
4.346829624615731
 20
9.578600508487167
 30
0.0
 42
0.4142135623730951
  0
VERTEX
  5
120
  8
0
 10
4.216829624615732
 20
9.448600508487164
 30
0.0
 42
0.4142135623730951
  0
SEQEND
  5
324
  8
0
  0
POLYLINE
  5
85
  8
0
 66
     1
 10
0.0
 20
0.0
 30
0.0
 70
     1
  0
VERTEX
  5
121
  8
0
 10
3.288827624615736
 20
9.318600508487169
 30
0.0
 42
0.4142135623730951
  0
VERTEX
  5
122
  8
0
 10
3.418827624615735
 20
9.448600508487171
 30
0.0
 42
0.4142135623730951
  0
VERTEX
  5
123
  8
0
 10
3.288827624615736
 20
9.578600508487167
 30
0.0
 42
0.4142135623730951
  0
VERTEX
  5
124
  8
0
 10
3.158827624615737
 20
9.448600508487171
 30
0.0
 42
0.4142135623730951
  0
SEQEND
  5
325
  8
0
  0
POLYLINE
  5
86
  8
0
 66
     1
 10
0.0
 20
0.0
 30
0.0
 70
     1
  0
VERTEX
  5
125
  8
0
 10
1.001945159657944
 20
9.318600508487169
 30
0.0
 42
0.4142135623730951
  0
VERTEX
  5
126
  8
0
 10
1.131945159657946
 20
9.448600508487168
 30
0.0
 42
0.4142135623730951
  0
VERTEX
  5
127
  8
0
 10
1.001945159657944
 20
9.578600508487167
 30
0.0
 42
0.4142135623730951
  0
VERTEX
  5
128
  8
0
 10
0.8719451596579446
 20
9.448600508487168
 30
0.0
 42
0.4142135623730951
  0
SEQEND
  5
326
  8
0
  0
POLYLINE
  5
87
  8
0
 66
     1
 10
0.0
 20
0.0
 30
0.0
 70
     1
  0
VERTEX
  5
129
  8
0
 10
1.749941497609769
 20
9.533188389313938
 30
0.0
  0
VERTEX
  5
12A
  8
0
 10
1.479308558927138
 20
9.689438389313942
 30
0.0
  0
VERTEX
  5
12B
  8
0
 10
0.4793085589271412
 20
7.957387581745059
 30
0.0
  0
VERTEX
  5
12C
  8
0
 10
0.749941497609776
 20
7.801137581745058
 30
0.0
  0
SEQEND
  5
327
  8
0
  0
POLYLINE
  5
88
  8
0
 66
     1
 10
0.0
 20
0.0
 30
0.0
 70
     1
  0
VERTEX
  5
12D
  8
0
 10
9.028550652696117
 20
10.33328527436698
 30
0.0
  0
VERTEX
  5
12E
  8
0
 10
8.768550652696119
 20
10.33328527436698
 30
0.0
  0
VERTEX
  5
12F
  8
0
 10
8.768550652696119
 20
7.415560574936778
 30
0.0
  0
VERTEX
  5
130
  8
0
 10
9.02855065269612
 20
7.415560574936778
 30
0.0
  0
SEQEND
  5
328
  8
0
  0
POLYLINE
  5
89
  8
0
 66
     1
 10
0.0
 20
0.0
 30
0.0
 70
     1
  0
VERTEX
  5
131
  8
0
 10
3.811464225346538
 20
7.957387581745055
 30
0.0
  0
VERTEX
  5
132
  8
0
 10
3.5408312866639
 20
7.801137581745055
 30
0.0
  0
VERTEX
  5
133
  8
0
 10
2.54083128666391
 20
9.533188389313938
 30
0.0
  0
VERTEX
  5
134
  8
0
 10
2.811464225346548
 20
9.689438389313938
 30
0.0
  0
SEQEND
  5
329
  8
0
  0
POLYLINE
  5
8A
  8
0
 66
     1
 10
0.0
 20
0.0
 30
0.0
 70
     1
  0
VERTEX
  5
135
  8
0
 10
5.094825962567556
 20
9.533188389313938
 30
0.0
  0
VERTEX
  5
136
  8
0
 10
4.094825962567562
 20
7.801137581745055
 30
0.0
  0
VERTEX
  5
137
  8
0
 10
3.824193023884924
 20
7.957387581745055
 30
0.0
  0
VERTEX
  5
138
  8
0
 10
4.824193023884924
 20
9.689438389313938
 30
0.0
  0
SEQEND
  5
32A
  8
0
  0
POLYLINE
  5
8B
  8
0
 66
     1
 10
0.0
 20
0.0
 30
0.0
 70
     1
  0
VERTEX
  5
139
  8
0
 10
12.3734351176539
 20
10.33328527436698
 30
0.0
  0
VERTEX
  5
13A
  8
0
 10
12.11343511765391
 20
10.33328527436698
 30
0.0
  0
VERTEX
  5
13B
  8
0
 10
12.11343511765391
 20
7.415560574936778
 30
0.0
  0
VERTEX
  5
13C
  8
0
 10
12.3734351176539
 20
7.415560574936778
 30
0.0
  0
SEQEND
  5
32B
  8
0
  0
POLYLINE
  5
8C
  8
0
 66
     1
 10
0.0
 20
0.0
 30
0.0
 70
     1
  0
VERTEX
  5
13D
  8
0
 10
7.156348690304327
 20
7.957387581745055
 30
0.0
  0
VERTEX
  5
13E
  8
0
 10
6.885715751621688
 20
7.801137581745055
 30
0.0
  0
VERTEX
  5
13F
  8
0
 10
5.885715751621699
 20
9.533188389313938
 30
0.0
  0
VERTEX
  5
140
  8
0
 10
6.156348690304332
 20
9.689438389313938
 30
0.0
  0
SEQEND
  5
32C
  8
0
  0
POLYLINE
  5
8D
  8
0
 66
     1
 10
0.0
 20
0.0
 30
0.0
 70
     1
  0
VERTEX
  5
141
  8
0
 10
7.507513089573523
 20
10.32415806550225
 30
0.0
  0
VERTEX
  5
142
  8
0
 10
7.50751308957352
 20
7.656293349972175
 30
0.0
  0
VERTEX
  5
143
  8
0
 10
6.365386929632834
 20
7.656293349972175
 30
0.0
  0
VERTEX
  5
144
  8
0
 10
6.365386929632836
 20
8.366751000087113
 30
0.0
  0
VERTEX
  5
145
  8
0
 10
7.081209986364694
 20
8.780031634583388
 30
0.0
  0
VERTEX
  5
146
  8
0
 10
6.831209986364693
 20
9.213044336475612
 30
0.0
  0
VERTEX
  5
147
  8
0
 10
6.12858228080003
 20
8.80738204152776
 30
0.0
  0
VERTEX
  5
148
  8
0
 10
5.911748768811037
 20
9.061992510793072
 30
0.0
  0
VERTEX
  5
149
  8
0
 10
5.068792945378219
 20
9.061992510793075
 30
0.0
  0
VERTEX
  5
14A
  8
0
 10
4.851959433389226
 20
8.80738204152776
 30
0.0
  0
VERTEX
  5
14B
  8
0
 10
4.149331727824562
 20
9.213044336475612
 30
0.0
  0
VERTEX
  5
14C
  8
0
 10
3.899331727824562
 20
8.780031634583388
 30
0.0
  0
VERTEX
  5
14D
  8
0
 10
4.61515478455642
 20
8.366751000087113
 30
0.0
  0
VERTEX
  5
14E
  8
0
 10
4.615154784556418
 20
7.656293349972175
 30
0.0
  0
VERTEX
  5
14F
  8
0
 10
3.020502464675045
 20
7.656293349972175
 30
0.0
  0
VERTEX
  5
150
  8
0
 10
3.020502464675045
 20
8.366751000087113
 30
0.0
  0
VERTEX
  5
151
  8
0
 10
3.736325521406904
 20
8.780031634583388
 30
0.0
  0
VERTEX
  5
152
  8
0
 10
3.486325521406905
 20
9.213044336475612
 30
0.0
  0
VERTEX
  5
153
  8
0
 10
2.783697815842246
 20
8.80738204152776
 30
0.0
  0
VERTEX
  5
154
  8
0
 10
2.566864303853248
 20
9.061992510793072
 30
0.0
  0
VERTEX
  5
155
  8
0
 10
1.723908480420431
 20
9.061992510793075
 30
0.0
  0
VERTEX
  5
156
  8
0
 10
1.50707496843144
 20
8.80738204152776
 30
0.0
  0
VERTEX
  5
157
  8
0
 10
0.804447262866774
 20
9.213044336475615
 30
0.0
  0
VERTEX
  5
158
  8
0
 10
0.5544472628667775
 20
8.780031634583388
 30
0.0
  0
VERTEX
  5
159
  8
0
 10
1.270270319598635
 20
8.366751000087113
 30
0.0
  0
VERTEX
  5
15A
  8
0
 10
1.270270319598631
 20
7.656293349972179
 30
0.0
  0
VERTEX
  5
15B
  8
0
 10
0.1281441596579467
 20
7.656293349972179
 30
0.0
  0
VERTEX
  5
15C
  8
0
 10
0.1281441596579467
 20
10.32415806550225
 30
0.0
  0
VERTEX
  5
15D
  8
0
 10
1.491920443956681
 20
10.32415806550225
 30
0.0
 42
0.5766742720863316
  0
VERTEX
  5
15E
  8
0
 10
2.798852340317002
 20
10.32415806550225
 30
0.0
  0
VERTEX
  5
15F
  8
0
 10
4.836804908914466
 20
10.32415806550225
 30
0.0
 42
0.5766742720863308
  0
VERTEX
  5
160
  8
0
 10
6.143736805274786
 20
10.32415806550225
 30
0.0
  0
SEQEND
  5
32D
  8
0
  0
POLYLINE
  5
8E
  8
0
 66
     1
 10
0.0
 20
0.0
 30
0.0
 70
     1
  0
VERTEX
  5
161
  8
0
 10
15.7183195826117
 20
10.33328527436698
 30
0.0
  0
VERTEX
  5
162
  8
0
 10
15.4583195826117
 20
10.33328527436698
 30
0.0
  0
VERTEX
  5
163
  8
0
 10
15.4583195826117
 20
7.415560574936778
 30
0.0
  0
VERTEX
  5
164
  8
0
 10
15.7183195826117
 20
7.415560574936778
 30
0.0
  0
SEQEND
  5
32E
  8
0
  0
POLYLINE
  5
8F
  8
0
 66
     1
 10
0.0
 20
0.0
 30
0.0
 70
     1
  0
VERTEX
  5
165
  8
0
 10
15.9331195826117
 20
10.20828527436698
 30
0.0
  0
VERTEX
  5
166
  8
0
 10
14.79099342267101
 20
10.20828527436698
 30
0.0
  0
VERTEX
  5
167
  8
0
 10
14.79099342267101
 20
9.49782762425205
 30
0.0
  0
VERTEX
  5
168
  8
0
 10
15.50681647940287
 20
9.084546989755768
 30
0.0
  0
VERTEX
  5
169
  8
0
 10
15.25681647940287
 20
8.651534287863543
 30
0.0
  0
VERTEX
  5
16A
  8
0
 10
14.55418877383821
 20
9.057196582811397
 30
0.0
  0
VERTEX
  5
16B
  8
0
 10
14.33735526184921
 20
8.80258611354609
 30
0.0
  0
VERTEX
  5
16C
  8
0
 10
13.4943994384164
 20
8.80258611354609
 30
0.0
  0
VERTEX
  5
16D
  8
0
 10
13.2775659264274
 20
9.057196582811397
 30
0.0
  0
VERTEX
  5
16E
  8
0
 10
12.57493822086274
 20
8.65153428786355
 30
0.0
  0
VERTEX
  5
16F
  8
0
 10
12.32493822086274
 20
9.084546989755768
 30
0.0
  0
VERTEX
  5
170
  8
0
 10
13.0407612775946
 20
9.49782762425205
 30
0.0
  0
VERTEX
  5
171
  8
0
 10
13.04076127759459
 20
10.20828527436698
 30
0.0
  0
VERTEX
  5
172
  8
0
 10
11.44610895771322
 20
10.20828527436698
 30
0.0
  0
VERTEX
  5
173
  8
0
 10
11.44610895771322
 20
9.49782762425205
 30
0.0
  0
VERTEX
  5
174
  8
0
 10
12.16193201444507
 20
9.084546989755768
 30
0.0
  0
VERTEX
  5
175
  8
0
 10
11.91193201444507
 20
8.65153428786355
 30
0.0
  0
VERTEX
  5
176
  8
0
 10
11.20930430888041
 20
9.057196582811397
 30
0.0
  0
VERTEX
  5
177
  8
0
 10
10.99247079689142
 20
8.80258611354609
 30
0.0
  0
VERTEX
  5
178
  8
0
 10
10.14951497345861
 20
8.80258611354609
 30
0.0
  0
VERTEX
  5
179
  8
0
 10
9.932681461469606
 20
9.057196582811397
 30
0.0
  0
VERTEX
  5
17A
  8
0
 10
9.23005375590495
 20
8.651534287863543
 30
0.0
  0
VERTEX
  5
17B
  8
0
 10
8.98005375590495
 20
9.084546989755768
 30
0.0
  0
VERTEX
  5
17C
  8
0
 10
9.695876812636808
 20
9.49782762425205
 30
0.0
  0
VERTEX
  5
17D
  8
0
 10
9.695876812636804
 20
10.20828527436698
 30
0.0
  0
VERTEX
  5
17E
  8
0
 10
8.553750652696118
 20
10.20828527436698
 30
0.0
  0
VERTEX
  5
17F
  8
0
 10
8.553750652696118
 20
7.540560574936778
 30
0.0
  0
VERTEX
  5
180
  8
0
 10
9.91752713163946
 20
7.540560574936778
 30
0.0
 42
-0.5766739291467136
  0
VERTEX
  5
181
  8
0
 10
11.22445863871056
 20
7.540560574936778
 30
0.0
  0
VERTEX
  5
182
  8
0
 10
13.26241159659725
 20
7.540560574936778
 30
0.0
 42
-0.5766739291467126
  0
VERTEX
  5
183
  8
0
 10
14.56934310366835
 20
7.540560574936778
 30
0.0
  0
VERTEX
  5
184
  8
0
 10
15.9331195826117
 20
7.540560574936778
 30
0.0
  0
SEQEND
  5
32F
  8
0
  0
POLYLINE
  5
90
  8
0
 66
     1
 10
0.0
 20
0.0
 30
0.0
 70
     1
  0
VERTEX
  5
185
  8
0
 10
3.97710139904445
 20
0.8750857677441559
 30
0.0
 42
0.4142135623730951
  0
VERTEX
  5
186
  8
0
 10
4.11710139904445
 20
1.015085767744157
 30
0.0
 42
0.4142135623730951
  0
VERTEX
  5
187
  8
0
 10
3.97710139904445
 20
1.155085767744157
 30
0.0
 42
0.4142135623730951
  0
VERTEX
  5
188
  8
0
 10
3.837101399044448
 20
1.015085767744157
 30
0.0
 42
0.4142135623730951
  0
SEQEND
  5
330
  8
0
  0
POLYLINE
  5
91
  8
0
 66
     1
 10
0.0
 20
0.0
 30
0.0
 70
     1
  0
VERTEX
  5
189
  8
0
 10
1.09970139904445
 20
0.8750857677441559
 30
0.0
 42
0.4142135623730951
  0
VERTEX
  5
18A
  8
0
 10
1.239701399044445
 20
1.015085767744157
 30
0.0
 42
0.4142135623730951
  0
VERTEX
  5
18B
  8
0
 10
1.09970139904445
 20
1.155085767744157
 30
0.0
 42
0.4142135623730951
  0
VERTEX
  5
18C
  8
0
 10
0.959701399044448
 20
1.015085767744157
 30
0.0
 42
0.4142135623730951
  0
SEQEND
  5
331
  8
0
  0
POLYLINE
  5
92
  8
0
 66
     1
 10
0.0
 20
0.0
 30
0.0
 70
     1
  0
VERTEX
  5
18D
  8
0
 10
0.7104112919484302
 20
3.037392926259154
 30
0.0
  0
VERTEX
  5
18E
  8
0
 10
0.7127461049699428
 20
0.3475857677441597
 30
0.0
  0
VERTEX
  5
18F
  8
0
 10
0.4427460032524642
 20
0.3475857677441597
 30
0.0
  0
VERTEX
  5
190
  8
0
 10
0.4404111902309515
 20
3.037392926259154
 30
0.0
  0
SEQEND
  5
332
  8
0
  0
POLYLINE
  5
93
  8
0
 66
     1
 10
0.0
 20
0.0
 30
0.0
 70
     1
  0
VERTEX
  5
191
  8
0
 10
4.848858244737816
 20
2.869892926259157
 30
0.0
  0
VERTEX
  5
192
  8
0
 10
4.850902270235871
 20
0.5150857677441565
 30
0.0
  0
VERTEX
  5
193
  8
0
 10
0.2259005278530303
 20
0.5150857677441565
 30
0.0
  0
VERTEX
  5
194
  8
0
 10
0.2238565023549789
 20
2.86989292625915
 30
0.0
  0
VERTEX
  5
195
  8
0
 10
1.359934228193952
 20
2.869892926259157
 30
0.0
  0
VERTEX
  5
196
  8
0
 10
1.359934228193952
 20
2.100067421332272
 30
0.0
  0
VERTEX
  5
197
  8
0
 10
0.6399186837554304
 20
1.684366252929969
 30
0.0
  0
VERTEX
  5
198
  8
0
 10
0.8899186837554315
 20
1.251353551037748
 30
0.0
  0
VERTEX
  5
199
  8
0
 10
1.589633752697335
 20
1.655334234447401
 30
0.0
  0
VERTEX
  5
19A
  8
0
 10
2.025082188821733
 20
1.161328220994835
 30
0.0
  0
VERTEX
  5
19B
  8
0
 10
3.050598703341572
 20
1.161328220994835
 30
0.0
  0
VERTEX
  5
19C
  8
0
 10
3.472134344481844
 20
1.656304234703568
 30
0.0
  0
VERTEX
  5
19D
  8
0
 10
4.17476205004651
 20
1.250641939755713
 30
0.0
  0
VERTEX
  5
19E
  8
0
 10
4.424762050046515
 20
1.68365464164794
 30
0.0
  0
VERTEX
  5
19F
  8
0
 10
3.708938993314647
 20
2.096935276144217
 30
0.0
  0
VERTEX
  5
1A0
  8
0
 10
3.708938993314651
 20
2.869892926259157
 30
0.0
  0
SEQEND
  5
333
  8
0
  0
POLYLINE
  5
94
  8
0
 66
     1
 10
0.0
 20
0.0
 30
0.0
 70
     1
  0
VERTEX
  5
1A1
  8
0
 10
4.634146198863902
 20
3.037392926259154
 30
0.0
  0
VERTEX
  5
1A2
  8
0
 10
4.3641461988639
 20
3.037392926259154
 30
0.0
  0
VERTEX
  5
1A3
  8
0
 10
4.364146198863897
 20
0.3475857677441597
 30
0.0
  0
VERTEX
  5
1A4
  8
0
 10
4.634146198863898
 20
0.3475857677441597
 30
0.0
  0
SEQEND
  5
334
  8
0
  0
POLYLINE
  5
95
  8
0
 66
     1
 10
0.0
 20
0.0
 30
0.0
 70
     1
  0
VERTEX
  5
1A5
  8
0
 10
1.493583680897561
 20
5.842621858152434
 30
0.0
  0
VERTEX
  5
1A6
  8
0
 10
0.493583680897562
 20
4.110571050583545
 30
0.0
  0
VERTEX
  5
1A7
  8
0
 10
0.764216619580196
 20
3.954321050583544
 30
0.0
  0
VERTEX
  5
1A8
  8
0
 10
1.764216619580194
 20
5.68637185815243
 30
0.0
  0
SEQEND
  5
335
  8
0
  0
POLYLINE
  5
96
  8
0
 66
     1
 10
0.0
 20
0.0
 30
0.0
 70
     1
  0
VERTEX
  5
1A9
  8
0
 10
3.428704455067922
 20
5.843333469434462
 30
0.0
  0
VERTEX
  5
1AA
  8
0
 10
4.428704455067924
 20
4.111282661865573
 30
0.0
  0
VERTEX
  5
1AB
  8
0
 10
4.158071516385281
 20
3.95503266186558
 30
0.0
  0
VERTEX
  5
1AC
  8
0
 10
3.158071516385283
 20
5.687083469434459
 30
0.0
  0
SEQEND
  5
336
  8
0
  0
POLYLINE
  5
97
  8
0
 66
     1
 10
0.0
 20
0.0
 30
0.0
 70
     1
  0
VERTEX
  5
1AD
  8
0
 10
4.779868854337118
 20
6.102495588607695
 30
0.0
  0
VERTEX
  5
1AE
  8
0
 10
0.1548668543371099
 20
6.102495588607695
 30
0.0
  0
VERTEX
  5
1AF
  8
0
 10
0.1548668543371099
 20
3.747688430092697
 30
0.0
  0
VERTEX
  5
1B0
  8
0
 10
1.268737929275717
 20
3.747688430092697
 30
0.0
  0
VERTEX
  5
1B1
  8
0
 10
1.268737929275717
 20
4.529060940403372
 30
0.0
  0
VERTEX
  5
1B2
  8
0
 10
0.5687223848371984
 20
4.93321510342188
 30
0.0
  0
VERTEX
  5
1B3
  8
0
 10
0.8187223848372003
 20
5.3662278053141
 30
0.0
  0
VERTEX
  5
1B4
  8
0
 10
1.518437453779103
 20
4.962247121904447
 30
0.0
  0
VERTEX
  5
1B5
  8
0
 10
1.953885889903505
 20
5.456253135357013
 30
0.0
  0
VERTEX
  5
1B6
  8
0
 10
2.979402404423343
 20
5.456253135357013
 30
0.0
  0
VERTEX
  5
1B7
  8
0
 10
3.40093804556362
 20
4.96127712164828
 30
0.0
  0
VERTEX
  5
1B8
  8
0
 10
4.103565751128285
 20
5.366939416596136
 30
0.0
  0
VERTEX
  5
1B9
  8
0
 10
4.353565751128284
 20
4.933926714703915
 30
0.0
  0
VERTEX
  5
1BA
  8
0
 10
3.637742694396424
 20
4.52064608020763
 30
0.0
  0
VERTEX
  5
1BB
  8
0
 10
3.637742694396421
 20
3.74768843009269
 30
0.0
  0
VERTEX
  5
1BC
  8
0
 10
4.779868854337118
 20
3.74768843009269
 30
0.0
  0
SEQEND
  5
337
  8
0
  0
POLYLINE
  5
98
  8
0
 66
     1
 10
0.0
 20
0.0
 30
0.0
 70
     1
  0
VERTEX
  5
1BD
  8
0
 10
9.546885790232302
 20
0.893726363894454
 30
0.0
 42
0.4142135623730951
  0
VERTEX
  5
1BE
  8
0
 10
9.686885790232305
 20
1.033726363894455
 30
0.0
 42
0.4142135623730951
  0
VERTEX
  5
1BF
  8
0
 10
9.546885790232302
 20
1.173726363894455
 30
0.0
 42
0.4142135623730951
  0
VERTEX
  5
1C0
  8
0
 10
9.406885790232302
 20
1.033726363894455
 30
0.0
 42
0.4142135623730951
  0
SEQEND
  5
338
  8
0
  0
POLYLINE
  5
99
  8
0
 66
     1
 10
0.0
 20
0.0
 30
0.0
 70
     1
  0
VERTEX
  5
1C1
  8
0
 10
6.669485790232285
 20
0.893726363894454
 30
0.0
 42
0.4142135623730951
  0
VERTEX
  5
1C2
  8
0
 10
6.809485790232286
 20
1.033726363894455
 30
0.0
 42
0.4142135623730951
  0
VERTEX
  5
1C3
  8
0
 10
6.669485790232285
 20
1.173726363894455
 30
0.0
 42
0.4142135623730951
  0
VERTEX
  5
1C4
  8
0
 10
6.529485790232285
 20
1.033726363894455
 30
0.0
 42
0.4142135623730951
  0
SEQEND
  5
339
  8
0
  0
POLYLINE
  5
9A
  8
0
 66
     1
 10
0.0
 20
0.0
 30
0.0
 70
     1
  0
VERTEX
  5
1C5
  8
0
 10
6.280195683136267
 20
3.056033522409452
 30
0.0
  0
VERTEX
  5
1C6
  8
0
 10
6.282530496157786
 20
0.3662263638944577
 30
0.0
  0
VERTEX
  5
1C7
  8
0
 10
6.012530394440299
 20
0.3662263638944577
 30
0.0
  0
VERTEX
  5
1C8
  8
0
 10
6.010195581418779
 20
3.056033522409452
 30
0.0
  0
SEQEND
  5
33A
  8
0
  0
POLYLINE
  5
9B
  8
0
 66
     1
 10
0.0
 20
0.0
 30
0.0
 70
     1
  0
VERTEX
  5
1C9
  8
0
 10
10.41864263592567
 20
2.888533522409455
 30
0.0
  0
VERTEX
  5
1CA
  8
0
 10
10.42068666142373
 20
0.5337263638944546
 30
0.0
  0
VERTEX
  5
1CB
  8
0
 10
5.795684919040867
 20
0.5337263638944546
 30
0.0
  0
VERTEX
  5
1CC
  8
0
 10
5.793640893542809
 20
2.888533522409448
 30
0.0
  0
VERTEX
  5
1CD
  8
0
 10
6.929718619381788
 20
2.888533522409455
 30
0.0
  0
VERTEX
  5
1CE
  8
0
 10
6.929718619381788
 20
2.11870801748257
 30
0.0
  0
VERTEX
  5
1CF
  8
0
 10
6.209703074943268
 20
1.703006849080267
 30
0.0
  0
VERTEX
  5
1D0
  8
0
 10
6.459703074943268
 20
1.269994147188046
 30
0.0
  0
VERTEX
  5
1D1
  8
0
 10
7.159418143885179
 20
1.673974830597699
 30
0.0
  0
VERTEX
  5
1D2
  8
0
 10
7.594866580009583
 20
1.179968817145133
 30
0.0
  0
VERTEX
  5
1D3
  8
0
 10
8.620383094529425
 20
1.179968817145133
 30
0.0
  0
VERTEX
  5
1D4
  8
0
 10
9.041918735669695
 20
1.674944830853867
 30
0.0
  0
VERTEX
  5
1D5
  8
0
 10
9.744546441234373
 20
1.269282535906011
 30
0.0
  0
VERTEX
  5
1D6
  8
0
 10
9.994546441234375
 20
1.702295237798238
 30
0.0
  0
VERTEX
  5
1D7
  8
0
 10
9.278723384502504
 20
2.115575872294516
 30
0.0
  0
VERTEX
  5
1D8
  8
0
 10
9.278723384502504
 20
2.888533522409455
 30
0.0
  0
SEQEND
  5
33B
  8
0
  0
POLYLINE
  5
9C
  8
0
 66
     1
 10
0.0
 20
0.0
 30
0.0
 70
     1
  0
VERTEX
  5
1D9
  8
0
 10
10.20393059005175
 20
3.056033522409452
 30
0.0
  0
VERTEX
  5
1DA
  8
0
 10
9.933930590051757
 20
3.056033522409452
 30
0.0
  0
VERTEX
  5
1DB
  8
0
 10
9.933930590051757
 20
0.3662263638944577
 30
0.0
  0
VERTEX
  5
1DC
  8
0
 10
10.20393059005175
 20
0.3662263638944577
 30
0.0
  0
SEQEND
  5
33C
  8
0
  0
POLYLINE
  5
9D
  8
0
 66
     1
 10
0.0
 20
0.0
 30
0.0
 70
     1
  0
VERTEX
  5
1DD
  8
0
 10
7.063368072085404
 20
5.861262454302718
 30
0.0
  0
VERTEX
  5
1DE
  8
0
 10
6.063368072085392
 20
4.129211646733839
 30
0.0
  0
VERTEX
  5
1DF
  8
0
 10
6.334001010768031
 20
3.972961646733839
 30
0.0
  0
VERTEX
  5
1E0
  8
0
 10
7.334001010768038
 20
5.705012454302715
 30
0.0
  0
SEQEND
  5
33D
  8
0
  0
POLYLINE
  5
9E
  8
0
 66
     1
 10
0.0
 20
0.0
 30
0.0
 70
     1
  0
VERTEX
  5
1E1
  8
0
 10
8.998488846255766
 20
5.861974065584747
 30
0.0
  0
VERTEX
  5
1E2
  8
0
 10
9.99848884625578
 20
4.129923258015867
 30
0.0
  0
VERTEX
  5
1E3
  8
0
 10
9.72785590757314
 20
3.973673258015875
 30
0.0
  0
VERTEX
  5
1E4
  8
0
 10
8.727855907573124
 20
5.705724065584744
 30
0.0
  0
SEQEND
  5
33E
  8
0
  0
POLYLINE
  5
9F
  8
0
 66
     1
 10
0.0
 20
0.0
 30
0.0
 70
     1
  0
VERTEX
  5
1E5
  8
0
 10
10.34965324552498
 20
6.121136184757979
 30
0.0
  0
VERTEX
  5
1E6
  8
0
 10
5.724651245524948
 20
6.121136184757979
 30
0.0
  0
VERTEX
  5
1E7
  8
0
 10
5.724651245524948
 20
3.766329026242993
 30
0.0
  0
VERTEX
  5
1E8
  8
0
 10
6.838522320463562
 20
3.766329026242993
 30
0.0
  0
VERTEX
  5
1E9
  8
0
 10
6.838522320463562
 20
4.547701536553665
 30
0.0
  0
VERTEX
  5
1EA
  8
0
 10
6.138506776025035
 20
4.951855699572169
 30
0.0
  0
VERTEX
  5
1EB
  8
0
 10
6.388506776025037
 20
5.384868401464387
 30
0.0
  0
VERTEX
  5
1EC
  8
0
 10
7.088221844966946
 20
4.980887718054737
 30
0.0
  0
VERTEX
  5
1ED
  8
0
 10
7.523670281091352
 20
5.4748937315073
 30
0.0
  0
VERTEX
  5
1EE
  8
0
 10
8.549186795611192
 20
5.4748937315073
 30
0.0
  0
VERTEX
  5
1EF
  8
0
 10
8.97072243675147
 20
4.979917717798569
 30
0.0
  0
VERTEX
  5
1F0
  8
0
 10
9.67335014231614
 20
5.385580012746423
 30
0.0
  0
VERTEX
  5
1F1
  8
0
 10
9.923350142316137
 20
4.952567310854205
 30
0.0
  0
VERTEX
  5
1F2
  8
0
 10
9.207527085584278
 20
4.539286676357922
 30
0.0
  0
VERTEX
  5
1F3
  8
0
 10
9.207527085584278
 20
3.766329026242986
 30
0.0
  0
VERTEX
  5
1F4
  8
0
 10
10.34965324552498
 20
3.766329026242986
 30
0.0
  0
SEQEND
  5
33F
  8
0
  0
POLYLINE
  5
A0
  8
0
 66
     1
 10
0.0
 20
0.0
 30
0.0
 70
     1
  0
VERTEX
  5
1F5
  8
0
 10
20.75013103553753
 20
8.821219729930958
 30
0.0
 42
0.4142135623730951
  0
VERTEX
  5
1F6
  8
0
 10
20.89013103553753
 20
8.961219729930958
 30
0.0
 42
0.4142135623730951
  0
VERTEX
  5
1F7
  8
0
 10
20.75013103553753
 20
9.101219729930959
 30
0.0
 42
0.4142135623730951
  0
VERTEX
  5
1F8
  8
0
 10
20.61013103553753
 20
8.961219729930958
 30
0.0
 42
0.4142135623730951
  0
SEQEND
  5
340
  8
0
  0
POLYLINE
  5
A1
  8
0
 66
     1
 10
0.0
 20
0.0
 30
0.0
 70
     1
  0
VERTEX
  5
1F9
  8
0
 10
17.87273103553755
 20
8.821219729930958
 30
0.0
 42
0.4142135623730951
  0
VERTEX
  5
1FA
  8
0
 10
18.01273103553755
 20
8.961219729930958
 30
0.0
 42
0.4142135623730951
  0
VERTEX
  5
1FB
  8
0
 10
17.87273103553755
 20
9.101219729930959
 30
0.0
 42
0.4142135623730951
  0
VERTEX
  5
1FC
  8
0
 10
17.73273103553755
 20
8.961219729930958
 30
0.0
 42
0.4142135623730951
  0
SEQEND
  5
341
  8
0
  0
POLYLINE
  5
A2
  8
0
 66
     1
 10
0.0
 20
0.0
 30
0.0
 70
     1
  0
VERTEX
  5
1FD
  8
0
 10
17.48344092844153
 20
10.98352688844596
 30
0.0
  0
VERTEX
  5
1FE
  8
0
 10
17.48577574146305
 20
8.29371972993096
 30
0.0
  0
VERTEX
  5
1FF
  8
0
 10
17.21577563974557
 20
8.29371972993096
 30
0.0
  0
VERTEX
  5
200
  8
0
 10
17.21344082672405
 20
10.98352688844596
 30
0.0
  0
SEQEND
  5
342
  8
0
  0
POLYLINE
  5
A3
  8
0
 66
     1
 10
0.0
 20
0.0
 30
0.0
 70
     1
  0
VERTEX
  5
201
  8
0
 10
21.62188788123089
 20
10.81602688844595
 30
0.0
  0
VERTEX
  5
202
  8
0
 10
21.62393190672895
 20
8.461219729930955
 30
0.0
  0
VERTEX
  5
203
  8
0
 10
16.99893016434613
 20
8.461219729930955
 30
0.0
  0
VERTEX
  5
204
  8
0
 10
16.99688613884808
 20
10.81602688844595
 30
0.0
  0
VERTEX
  5
205
  8
0
 10
18.13296386468705
 20
10.81602688844595
 30
0.0
  0
VERTEX
  5
206
  8
0
 10
18.13296386468705
 20
10.04620138351907
 30
0.0
  0
VERTEX
  5
207
  8
0
 10
17.41294832024853
 20
9.63050021511677
 30
0.0
  0
VERTEX
  5
208
  8
0
 10
17.66294832024853
 20
9.19748751322455
 30
0.0
  0
VERTEX
  5
209
  8
0
 10
18.36266338919044
 20
9.601468196634203
 30
0.0
  0
VERTEX
  5
20A
  8
0
 10
18.79811182531484
 20
9.107462183181637
 30
0.0
  0
VERTEX
  5
20B
  8
0
 10
19.82362833983467
 20
9.107462183181637
 30
0.0
  0
VERTEX
  5
20C
  8
0
 10
20.24516398097494
 20
9.60243819689037
 30
0.0
  0
VERTEX
  5
20D
  8
0
 10
20.9477916865396
 20
9.196775901942514
 30
0.0
  0
VERTEX
  5
20E
  8
0
 10
21.1977916865396
 20
9.629788603834735
 30
0.0
  0
VERTEX
  5
20F
  8
0
 10
20.48196862980774
 20
10.04306923833102
 30
0.0
  0
VERTEX
  5
210
  8
0
 10
20.48196862980774
 20
10.81602688844595
 30
0.0
  0
SEQEND
  5
343
  8
0
  0
POLYLINE
  5
A4
  8
0
 66
     1
 10
0.0
 20
0.0
 30
0.0
 70
     1
  0
VERTEX
  5
211
  8
0
 10
21.40717583535698
 20
10.98352688844596
 30
0.0
  0
VERTEX
  5
212
  8
0
 10
21.13717583535698
 20
10.98352688844596
 30
0.0
  0
VERTEX
  5
213
  8
0
 10
21.13717583535698
 20
8.29371972993096
 30
0.0
  0
VERTEX
  5
214
  8
0
 10
21.40717583535698
 20
8.29371972993096
 30
0.0
  0
SEQEND
  5
344
  8
0
  0
POLYLINE
  5
A5
  8
0
 66
     1
 10
0.0
 20
0.0
 30
0.0
 70
     1
  0
VERTEX
  5
215
  8
0
 10
18.26661331739066
 20
13.98143533471413
 30
0.0
  0
VERTEX
  5
216
  8
0
 10
17.26661331739066
 20
12.24938452714524
 30
0.0
  0
VERTEX
  5
217
  8
0
 10
17.5372462560733
 20
12.09313452714524
 30
0.0
  0
VERTEX
  5
218
  8
0
 10
18.5372462560733
 20
13.82518533471412
 30
0.0
  0
SEQEND
  5
345
  8
0
  0
POLYLINE
  5
A6
  8
0
 66
     1
 10
0.0
 20
0.0
 30
0.0
 70
     1
  0
VERTEX
  5
219
  8
0
 10
20.20173409156101
 20
13.98214694599616
 30
0.0
  0
VERTEX
  5
21A
  8
0
 10
21.201734091561
 20
12.25009613842727
 30
0.0
  0
VERTEX
  5
21B
  8
0
 10
20.93110115287837
 20
12.09384613842727
 30
0.0
  0
VERTEX
  5
21C
  8
0
 10
19.93110115287837
 20
13.82589694599616
 30
0.0
  0
SEQEND
  5
346
  8
0
  0
POLYLINE
  5
A7
  8
0
 66
     1
 10
0.0
 20
0.0
 30
0.0
 70
     1
  0
VERTEX
  5
21D
  8
0
 10
21.5528984908302
 20
14.24130906516939
 30
0.0
  0
VERTEX
  5
21E
  8
0
 10
16.92789649083021
 20
14.24130906516939
 30
0.0
  0
VERTEX
  5
21F
  8
0
 10
16.92789649083021
 20
11.88650190665438
 30
0.0
  0
VERTEX
  5
220
  8
0
 10
18.04176756576882
 20
11.88650190665438
 30
0.0
  0
VERTEX
  5
221
  8
0
 10
18.04176756576882
 20
12.66787441696506
 30
0.0
  0
VERTEX
  5
222
  8
0
 10
17.3417520213303
 20
13.07202857998357
 30
0.0
  0
VERTEX
  5
223
  8
0
 10
17.5917520213303
 20
13.50504128187579
 30
0.0
  0
VERTEX
  5
224
  8
0
 10
18.29146709027221
 20
13.10106059846614
 30
0.0
  0
VERTEX
  5
225
  8
0
 10
18.72691552639661
 20
13.59506661191871
 30
0.0
  0
VERTEX
  5
226
  8
0
 10
19.75243204091644
 20
13.59506661191871
 30
0.0
  0
VERTEX
  5
227
  8
0
 10
20.17396768205671
 20
13.10009059820998
 30
0.0
  0
VERTEX
  5
228
  8
0
 10
20.87659538762137
 20
13.50575289315783
 30
0.0
  0
VERTEX
  5
229
  8
0
 10
21.12659538762136
 20
13.0727401912656
 30
0.0
  0
VERTEX
  5
22A
  8
0
 10
20.41077233088951
 20
12.65945955676932
 30
0.0
  0
VERTEX
  5
22B
  8
0
 10
20.41077233088951
 20
11.88650190665438
 30
0.0
  0
VERTEX
  5
22C
  8
0
 10
21.5528984908302
 20
11.88650190665438
 30
0.0
  0
SEQEND
  5
347
  8
0
  0
POLYLINE
  5
A8
  8
0
 66
     1
 10
0.0
 20
0.0
 30
0.0
 70
     1
  0
VERTEX
  5
22D
  8
0
 10
15.17218605491777
 20
0.8688921679119784
 30
0.0
 42
0.4142135623730951
  0
VERTEX
  5
22E
  8
0
 10
15.31218605491777
 20
1.008892167911977
 30
0.0
 42
0.4142135623730951
  0
VERTEX
  5
22F
  8
0
 10
15.17218605491777
 20
1.148892167911978
 30
0.0
 42
0.4142135623730951
  0
VERTEX
  5
230
  8
0
 10
15.03218605491777
 20
1.008892167911977
 30
0.0
 42
0.4142135623730951
  0
SEQEND
  5
348
  8
0
  0
POLYLINE
  5
A9
  8
0
 66
     1
 10
0.0
 20
0.0
 30
0.0
 70
     1
  0
VERTEX
  5
231
  8
0
 10
12.29478605491777
 20
0.8688921679119793
 30
0.0
 42
0.4142135623730951
  0
VERTEX
  5
232
  8
0
 10
12.43478605491777
 20
1.008892167911977
 30
0.0
 42
0.4142135623730951
  0
VERTEX
  5
233
  8
0
 10
12.29478605491777
 20
1.148892167911978
 30
0.0
 42
0.4142135623730951
  0
VERTEX
  5
234
  8
0
 10
12.15478605491777
 20
1.008892167911977
 30
0.0
 42
0.4142135623730951
  0
SEQEND
  5
349
  8
0
  0
POLYLINE
  5
AA
  8
0
 66
     1
 10
0.0
 20
0.0
 30
0.0
 70
     1
  0
VERTEX
  5
235
  8
0
 10
11.90549594782176
 20
3.031199326426969
 30
0.0
  0
VERTEX
  5
236
  8
0
 10
11.90783076084328
 20
0.3413921679119847
 30
0.0
  0
VERTEX
  5
237
  8
0
 10
11.63783065912579
 20
0.3413921679119847
 30
0.0
  0
VERTEX
  5
238
  8
0
 10
11.63549584610427
 20
3.031199326426969
 30
0.0
  0
SEQEND
  5
34A
  8
0
  0
POLYLINE
  5
AB
  8
0
 66
     1
 10
0.0
 20
0.0
 30
0.0
 70
     1
  0
VERTEX
  5
239
  8
0
 10
16.04394290061114
 20
2.86369932642697
 30
0.0
  0
VERTEX
  5
23A
  8
0
 10
16.0459869261092
 20
0.5088921679119816
 30
0.0
  0
VERTEX
  5
23B
  8
0
 10
11.42098518372636
 20
0.5088921679119789
 30
0.0
  0
VERTEX
  5
23C
  8
0
 10
11.4189411582283
 20
2.863699326426967
 30
0.0
  0
VERTEX
  5
23D
  8
0
 10
12.55501888406727
 20
2.863699326426971
 30
0.0
  0
VERTEX
  5
23E
  8
0
 10
12.55501888406727
 20
2.09387382150009
 30
0.0
  0
VERTEX
  5
23F
  8
0
 10
11.83500333962876
 20
1.678172653097792
 30
0.0
  0
VERTEX
  5
240
  8
0
 10
12.08500333962876
 20
1.245159951205574
 30
0.0
  0
VERTEX
  5
241
  8
0
 10
12.78471840857066
 20
1.64914063461522
 30
0.0
  0
VERTEX
  5
242
  8
0
 10
13.22016684469506
 20
1.155134621162656
 30
0.0
  0
VERTEX
  5
243
  8
0
 10
14.2456833592149
 20
1.15513462116266
 30
0.0
  0
VERTEX
  5
244
  8
0
 10
14.66721900035517
 20
1.650110634871387
 30
0.0
  0
VERTEX
  5
245
  8
0
 10
15.36984670591984
 20
1.244448339923541
 30
0.0
  0
VERTEX
  5
246
  8
0
 10
15.61984670591985
 20
1.677461041815759
 30
0.0
  0
VERTEX
  5
247
  8
0
 10
14.90402364918798
 20
2.090741676312038
 30
0.0
  0
VERTEX
  5
248
  8
0
 10
14.90402364918798
 20
2.86369932642697
 30
0.0
  0
SEQEND
  5
34B
  8
0
  0
POLYLINE
  5
AC
  8
0
 66
     1
 10
0.0
 20
0.0
 30
0.0
 70
     1
  0
VERTEX
  5
249
  8
0
 10
15.82923085473723
 20
3.031199326426971
 30
0.0
  0
VERTEX
  5
24A
  8
0
 10
15.55923085473722
 20
3.031199326426971
 30
0.0
  0
VERTEX
  5
24B
  8
0
 10
15.55923085473722
 20
0.3413921679119838
 30
0.0
  0
VERTEX
  5
24C
  8
0
 10
15.82923085473723
 20
0.3413921679119838
 30
0.0
  0
SEQEND
  5
34C
  8
0
  0
POLYLINE
  5
AD
  8
0
 66
     1
 10
0.0
 20
0.0
 30
0.0
 70
     1
  0
VERTEX
  5
24D
  8
0
 10
12.62745244939134
 20
5.975217721018375
 30
0.0
  0
VERTEX
  5
24E
  8
0
 10
11.62745244939131
 20
4.243166913449494
 30
0.0
  0
VERTEX
  5
24F
  8
0
 10
11.89808538807396
 20
4.086916913449494
 30
0.0
  0
VERTEX
  5
250
  8
0
 10
12.89808538807397
 20
5.818967721018375
 30
0.0
  0
SEQEND
  5
34D
  8
0
  0
POLYLINE
  5
AE
  8
0
 66
     1
 10
0.0
 20
0.0
 30
0.0
 70
     1
  0
VERTEX
  5
251
  8
0
 10
14.56257322356172
 20
5.97592933230041
 30
0.0
  0
VERTEX
  5
252
  8
0
 10
15.56257322356173
 20
4.243878524731525
 30
0.0
  0
VERTEX
  5
253
  8
0
 10
15.29194028487908
 20
4.087628524731529
 30
0.0
  0
VERTEX
  5
254
  8
0
 10
14.29194028487908
 20
5.81967933230041
 30
0.0
  0
SEQEND
  5
34E
  8
0
  0
POLYLINE
  5
AF
  8
0
 66
     1
 10
0.0
 20
0.0
 30
0.0
 70
     1
  0
VERTEX
  5
255
  8
0
 10
15.91373762283093
 20
6.235091451473637
 30
0.0
  0
VERTEX
  5
256
  8
0
 10
11.28873562283086
 20
6.235091451473638
 30
0.0
  0
VERTEX
  5
257
  8
0
 10
11.28873562283086
 20
3.880284292958649
 30
0.0
  0
VERTEX
  5
258
  8
0
 10
12.40260669776949
 20
3.880284292958649
 30
0.0
  0
VERTEX
  5
259
  8
0
 10
12.40260669776949
 20
4.66165680326932
 30
0.0
  0
VERTEX
  5
25A
  8
0
 10
11.70259115333096
 20
5.065810966287826
 30
0.0
  0
VERTEX
  5
25B
  8
0
 10
11.95259115333096
 20
5.498823668180044
 30
0.0
  0
VERTEX
  5
25C
  8
0
 10
12.65230622227288
 20
5.094842984770396
 30
0.0
  0
VERTEX
  5
25D
  8
0
 10
13.08775465839729
 20
5.588848998222956
 30
0.0
  0
VERTEX
  5
25E
  8
0
 10
14.11327117291714
 20
5.588848998222956
 30
0.0
  0
VERTEX
  5
25F
  8
0
 10
14.53480681405743
 20
5.093872984514232
 30
0.0
  0
VERTEX
  5
260
  8
0
 10
15.23743451962209
 20
5.499535279462078
 30
0.0
  0
VERTEX
  5
261
  8
0
 10
15.48743451962208
 20
5.06652257756986
 30
0.0
  0
VERTEX
  5
262
  8
0
 10
14.77161146289023
 20
4.653241943073577
 30
0.0
  0
VERTEX
  5
263
  8
0
 10
14.77161146289023
 20
3.880284292958645
 30
0.0
  0
VERTEX
  5
264
  8
0
 10
15.91373762283093
 20
3.880284292958645
 30
0.0
  0
SEQEND
  5
34F
  8
0
  0
POLYLINE
  5
B0
  8
0
 66
     1
 10
0.0
 20
0.0
 30
0.0
 70
     1
  0
VERTEX
  5
265
  8
0
 10
19.98397829802935
 20
15.96017798365424
 30
0.0
 42
0.4142135623730951
  0
VERTEX
  5
266
  8
0
 10
20.12397829802935
 20
16.10017798365424
 30
0.0
 42
0.4142135623730951
  0
VERTEX
  5
267
  8
0
 10
19.98397829802935
 20
16.24017798365424
 30
0.0
 42
0.4142135623730951
  0
VERTEX
  5
268
  8
0
 10
19.84397829802934
 20
16.10017798365424
 30
0.0
 42
0.4142135623730951
  0
SEQEND
  5
350
  8
0
  0
POLYLINE
  5
B1
  8
0
 66
     1
 10
0.0
 20
0.0
 30
0.0
 70
     1
  0
VERTEX
  5
269
  8
0
 10
17.10657829802933
 20
15.96017798365424
 30
0.0
 42
0.4142135623730951
  0
VERTEX
  5
26A
  8
0
 10
17.24657829802933
 20
16.10017798365424
 30
0.0
 42
0.4142135623730951
  0
VERTEX
  5
26B
  8
0
 10
17.10657829802933
 20
16.24017798365424
 30
0.0
 42
0.4142135623730951
  0
VERTEX
  5
26C
  8
0
 10
16.96657829802933
 20
16.10017798365424
 30
0.0
 42
0.4142135623730951
  0
SEQEND
  5
351
  8
0
  0
POLYLINE
  5
B2
  8
0
 66
     1
 10
0.0
 20
0.0
 30
0.0
 70
     1
  0
VERTEX
  5
26D
  8
0
 10
16.71728819093331
 20
18.12248514216923
 30
0.0
  0
VERTEX
  5
26E
  8
0
 10
16.71962300395483
 20
15.43267798365424
 30
0.0
  0
VERTEX
  5
26F
  8
0
 10
16.44962290223734
 20
15.43267798365424
 30
0.0
  0
VERTEX
  5
270
  8
0
 10
16.44728808921582
 20
18.12248514216923
 30
0.0
  0
SEQEND
  5
352
  8
0
  0
POLYLINE
  5
B3
  8
0
 66
     1
 10
0.0
 20
0.0
 30
0.0
 70
     1
  0
VERTEX
  5
271
  8
0
 10
20.85573514372271
 20
17.95498514216922
 30
0.0
  0
VERTEX
  5
272
  8
0
 10
20.85777916922077
 20
15.60017798365424
 30
0.0
  0
VERTEX
  5
273
  8
0
 10
16.23277742683791
 20
15.60017798365424
 30
0.0
  0
VERTEX
  5
274
  8
0
 10
16.23073340133985
 20
17.95498514216922
 30
0.0
  0
VERTEX
  5
275
  8
0
 10
17.36681112717883
 20
17.95498514216923
 30
0.0
  0
VERTEX
  5
276
  8
0
 10
17.36681112717883
 20
17.18515963724235
 30
0.0
  0
VERTEX
  5
277
  8
0
 10
16.64679558274031
 20
16.76945846884005
 30
0.0
  0
VERTEX
  5
278
  8
0
 10
16.89679558274031
 20
16.33644576694784
 30
0.0
  0
VERTEX
  5
279
  8
0
 10
17.59651065168222
 20
16.74042645035748
 30
0.0
  0
VERTEX
  5
27A
  8
0
 10
18.03195908780663
 20
16.24642043690492
 30
0.0
  0
VERTEX
  5
27B
  8
0
 10
19.05747560232647
 20
16.24642043690492
 30
0.0
  0
VERTEX
  5
27C
  8
0
 10
19.47901124346674
 20
16.74139645061365
 30
0.0
  0
VERTEX
  5
27D
  8
0
 10
20.18163894903141
 20
16.3357341556658
 30
0.0
  0
VERTEX
  5
27E
  8
0
 10
20.43163894903142
 20
16.76874685755802
 30
0.0
  0
VERTEX
  5
27F
  8
0
 10
19.71581589229955
 20
17.1820274920543
 30
0.0
  0
VERTEX
  5
280
  8
0
 10
19.71581589229955
 20
17.95498514216922
 30
0.0
  0
SEQEND
  5
353
  8
0
  0
POLYLINE
  5
B4
  8
0
 66
     1
 10
0.0
 20
0.0
 30
0.0
 70
     1
  0
VERTEX
  5
281
  8
0
 10
20.64102309784879
 20
18.12248514216923
 30
0.0
  0
VERTEX
  5
282
  8
0
 10
20.37102309784879
 20
18.12248514216923
 30
0.0
  0
VERTEX
  5
283
  8
0
 10
20.37102309784879
 20
15.43267798365423
 30
0.0
  0
VERTEX
  5
284
  8
0
 10
20.64102309784879
 20
15.43267798365423
 30
0.0
  0
SEQEND
  5
354
  8
0
  0
POLYLINE
  5
B5
  8
0
 66
     1
 10
0.0
 20
0.0
 30
0.0
 70
     1
  0
VERTEX
  5
285
  8
0
 10
17.50046057988245
 20
21.02405383124993
 30
0.0
  0
VERTEX
  5
286
  8
0
 10
16.50046057988243
 20
19.29200302368105
 30
0.0
  0
VERTEX
  5
287
  8
0
 10
16.77109351856507
 20
19.13575302368105
 30
0.0
  0
VERTEX
  5
288
  8
0
 10
17.77109351856508
 20
20.86780383124993
 30
0.0
  0
SEQEND
  5
355
  8
0
  0
POLYLINE
  5
B6
  8
0
 66
     1
 10
0.0
 20
0.0
 30
0.0
 70
     1
  0
VERTEX
  5
289
  8
0
 10
19.43558135405281
 20
21.02476544253196
 30
0.0
  0
VERTEX
  5
28A
  8
0
 10
20.43558135405282
 20
19.29271463496308
 30
0.0
  0
VERTEX
  5
28B
  8
0
 10
20.16494841537018
 20
19.13646463496309
 30
0.0
  0
VERTEX
  5
28C
  8
0
 10
19.16494841537017
 20
20.86851544253196
 30
0.0
  0
SEQEND
  5
356
  8
0
  0
POLYLINE
  5
B7
  8
0
 66
     1
 10
0.0
 20
0.0
 30
0.0
 70
     1
  0
VERTEX
  5
28D
  8
0
 10
20.78674575332202
 20
21.28392756170519
 30
0.0
  0
VERTEX
  5
28E
  8
0
 10
16.16174375332199
 20
21.28392756170519
 30
0.0
  0
VERTEX
  5
28F
  8
0
 10
16.16174375332199
 20
18.92912040319021
 30
0.0
  0
VERTEX
  5
290
  8
0
 10
17.2756148282606
 20
18.92912040319021
 30
0.0
  0
VERTEX
  5
291
  8
0
 10
17.2756148282606
 20
19.71049291350088
 30
0.0
  0
VERTEX
  5
292
  8
0
 10
16.57559928382208
 20
20.11464707651938
 30
0.0
  0
VERTEX
  5
293
  8
0
 10
16.82559928382208
 20
20.5476597784116
 30
0.0
  0
VERTEX
  5
294
  8
0
 10
17.52531435276399
 20
20.14367909500195
 30
0.0
  0
VERTEX
  5
295
  8
0
 10
17.9607627888884
 20
20.63768510845451
 30
0.0
  0
VERTEX
  5
296
  8
0
 10
18.98627930340824
 20
20.63768510845451
 30
0.0
  0
VERTEX
  5
297
  8
0
 10
19.40781494454852
 20
20.14270909474579
 30
0.0
  0
VERTEX
  5
298
  8
0
 10
20.11044265011318
 20
20.54837138969363
 30
0.0
  0
VERTEX
  5
299
  8
0
 10
20.36044265011317
 20
20.11535868780141
 30
0.0
  0
VERTEX
  5
29A
  8
0
 10
19.64461959338132
 20
19.70207805330513
 30
0.0
  0
VERTEX
  5
29B
  8
0
 10
19.64461959338132
 20
18.9291204031902
 30
0.0
  0
VERTEX
  5
29C
  8
0
 10
20.78674575332202
 20
18.9291204031902
 30
0.0
  0
SEQEND
  5
357
  8
0
  0
POLYLINE
  5
B8
  8
0
 66
     1
 10
0.0
 20
0.0
 30
0.0
 70
     1
  0
VERTEX
  5
29D
  8
0
 10
20.68324069519741
 20
1.339270785125069
 30
0.0
 42
0.4142135623730951
  0
VERTEX
  5
29E
  8
0
 10
20.82324069519741
 20
1.479270785125069
 30
0.0
 42
0.4142135623730951
  0
VERTEX
  5
29F
  8
0
 10
20.68324069519741
 20
1.619270785125067
 30
0.0
 42
0.4142135623730951
  0
VERTEX
  5
2A0
  8
0
 10
20.54324069519741
 20
1.479270785125069
 30
0.0
 42
0.4142135623730951
  0
SEQEND
  5
358
  8
0
  0
POLYLINE
  5
B9
  8
0
 66
     1
 10
0.0
 20
0.0
 30
0.0
 70
     1
  0
VERTEX
  5
2A1
  8
0
 10
17.80584069519741
 20
1.33927078512507
 30
0.0
 42
0.4142135623730951
  0
VERTEX
  5
2A2
  8
0
 10
17.94584069519741
 20
1.47927078512507
 30
0.0
 42
0.4142135623730951
  0
VERTEX
  5
2A3
  8
0
 10
17.80584069519741
 20
1.619270785125067
 30
0.0
 42
0.4142135623730951
  0
VERTEX
  5
2A4
  8
0
 10
17.66584069519741
 20
1.47927078512507
 30
0.0
 42
0.4142135623730951
  0
SEQEND
  5
359
  8
0
  0
POLYLINE
  5
BA
  8
0
 66
     1
 10
0.0
 20
0.0
 30
0.0
 70
     1
  0
VERTEX
  5
2A5
  8
0
 10
18.4169702067569
 20
6.246033733756844
 30
0.0
  0
VERTEX
  5
2A6
  8
0
 10
18.14633726807427
 20
6.402283733756843
 30
0.0
  0
VERTEX
  5
2A7
  8
0
 10
17.14633726807427
 20
4.670232926187976
 30
0.0
  0
VERTEX
  5
2A8
  8
0
 10
17.41697020675691
 20
4.513982926187976
 30
0.0
  0
SEQEND
  5
35A
  8
0
  0
POLYLINE
  5
BB
  8
0
 66
     1
 10
0.0
 20
0.0
 30
0.0
 70
     1
  0
VERTEX
  5
2A9
  8
0
 10
17.41931941235196
 20
0.3117707851250806
 30
0.0
  0
VERTEX
  5
2AA
  8
0
 10
17.41655058810139
 20
3.501577943640037
 30
0.0
  0
VERTEX
  5
2AB
  8
0
 10
17.14655048638391
 20
3.501577943640037
 30
0.0
  0
VERTEX
  5
2AC
  8
0
 10
17.14931931063447
 20
0.3117707851250771
 30
0.0
  0
SEQEND
  5
35B
  8
0
  0
POLYLINE
  5
BC
  8
0
 66
     1
 10
0.0
 20
0.0
 30
0.0
 70
     1
  0
VERTEX
  5
2AD
  8
0
 10
21.08145804224462
 20
4.670944537470008
 30
0.0
  0
VERTEX
  5
2AE
  8
0
 10
20.81082510356198
 20
4.514694537470012
 30
0.0
  0
VERTEX
  5
2AF
  8
0
 10
19.81082510356199
 20
6.246745345038876
 30
0.0
  0
VERTEX
  5
2B0
  8
0
 10
20.08145804224462
 20
6.402995345038876
 30
0.0
  0
SEQEND
  5
35C
  8
0
  0
POLYLINE
  5
BD
  8
0
 66
     1
 10
0.0
 20
0.0
 30
0.0
 70
     1
  0
VERTEX
  5
2B1
  8
0
 10
21.43262244151381
 20
4.307350305697132
 30
0.0
  0
VERTEX
  5
2B2
  8
0
 10
21.43262244151381
 20
7.16215746421211
 30
0.0
  0
VERTEX
  5
2B3
  8
0
 10
16.80762044151382
 20
7.162157464212111
 30
0.0
  0
VERTEX
  5
2B4
  8
0
 10
16.80762044151382
 20
4.307350305697133
 30
0.0
  0
VERTEX
  5
2B5
  8
0
 10
17.92149151645243
 20
4.307350305697133
 30
0.0
  0
VERTEX
  5
2B6
  8
0
 10
17.92149151645243
 20
5.088722816007802
 30
0.0
  0
VERTEX
  5
2B7
  8
0
 10
17.22147597201391
 20
5.492876979026299
 30
0.0
  0
VERTEX
  5
2B8
  8
0
 10
17.47147597201391
 20
5.925889680918516
 30
0.0
  0
VERTEX
  5
2B9
  8
0
 10
18.17119104095581
 20
5.521908997508873
 30
0.0
  0
VERTEX
  5
2BA
  8
0
 10
18.60663947708021
 20
6.015915010961429
 30
0.0
  0
VERTEX
  5
2BB
  8
0
 10
19.63215599160005
 20
6.015915010961429
 30
0.0
  0
VERTEX
  5
2BC
  8
0
 10
20.05369163274032
 20
5.520938997252705
 30
0.0
  0
VERTEX
  5
2BD
  8
0
 10
20.75631933830498
 20
5.926601292200548
 30
0.0
  0
VERTEX
  5
2BE
  8
0
 10
21.00631933830498
 20
5.493588590308334
 30
0.0
  0
VERTEX
  5
2BF
  8
0
 10
20.29049628157312
 20
5.080307955812058
 30
0.0
  0
VERTEX
  5
2C0
  8
0
 10
20.29049628157312
 20
4.307350305697132
 30
0.0
  0
SEQEND
  5
35D
  8
0
  0
POLYLINE
  5
BE
  8
0
 66
     1
 10
0.0
 20
0.0
 30
0.0
 70
     1
  0
VERTEX
  5
2C1
  8
0
 10
21.34028549501686
 20
0.3117707851250797
 30
0.0
  0
VERTEX
  5
2C2
  8
0
 10
21.07028549501686
 20
0.3117707851250797
 30
0.0
  0
VERTEX
  5
2C3
  8
0
 10
21.07028549501686
 20
3.50157794364004
 30
0.0
  0
VERTEX
  5
2C4
  8
0
 10
21.34028549501686
 20
3.50157794364004
 30
0.0
  0
SEQEND
  5
35E
  8
0
  0
POLYLINE
  5
BF
  8
0
 66
     1
 10
0.0
 20
0.0
 30
0.0
 70
     1
  0
VERTEX
  5
2C5
  8
0
 10
21.55747557761787
 20
0.4792707851250766
 30
0.0
  0
VERTEX
  5
2C6
  8
0
 10
21.55499754089077
 20
3.334077943640039
 30
0.0
  0
VERTEX
  5
2C7
  8
0
 10
20.41507828946761
 20
3.33407794364004
 30
0.0
  0
VERTEX
  5
2C8
  8
0
 10
20.41507828946761
 20
2.561120293525118
 30
0.0
  0
VERTEX
  5
2C9
  8
0
 10
21.13090134619947
 20
2.147839659028842
 30
0.0
  0
VERTEX
  5
2CA
  8
0
 10
20.88090134619947
 20
1.714826957136625
 30
0.0
  0
VERTEX
  5
2CB
  8
0
 10
20.17827364063481
 20
2.120489252084472
 30
0.0
  0
VERTEX
  5
2CC
  8
0
 10
19.75673799949454
 20
1.625513238375746
 30
0.0
  0
VERTEX
  5
2CD
  8
0
 10
18.7312214849747
 20
1.625513238375746
 30
0.0
  0
VERTEX
  5
2CE
  8
0
 10
18.2957730488503
 20
2.119519251828304
 30
0.0
  0
VERTEX
  5
2CF
  8
0
 10
17.5960579799084
 20
1.715538568418658
 30
0.0
  0
VERTEX
  5
2D0
  8
0
 10
17.34605797990839
 20
2.148551270310875
 30
0.0
  0
VERTEX
  5
2D1
  8
0
 10
18.06607352434692
 20
2.564252438713169
 30
0.0
  0
VERTEX
  5
2D2
  8
0
 10
18.06607352434692
 20
3.33407794364004
 30
0.0
  0
VERTEX
  5
2D3
  8
0
 10
16.92999579850794
 20
3.334077943640036
 30
0.0
  0
VERTEX
  5
2D4
  8
0
 10
16.93247383523504
 20
0.4792707851250775
 30
0.0
  0
SEQEND
  5
35F
  8
0
  0
POLYLINE
  5
C0
  8
0
 66
     1
 10
0.0
 20
0.0
 30
0.0
 70
     1
  0
VERTEX
  5
2D5
  8
0
 10
0.2913266248431665
 20
17.95073386335873
 30
0.0
  0
VERTEX
  5
2D6
  8
0
 10
0.2913266248431665
 20
19.14053648038286
 30
0.0
  0
VERTEX
  5
2D7
  8
0
 10
2.279785685856577
 20
19.13872389131326
 30
0.0
 42
0.8797232082161243
  0
VERTEX
  5
2D8
  8
0
 10
4.458868845227539
 20
19.13873386335873
 30
0.0
  0
VERTEX
  5
2D9
  8
0
 10
5.541326624843227
 20
19.13873386335873
 30
0.0
  0
VERTEX
  5
2DA
  8
0
 10
5.541326624843227
 20
19.41873386335873
 30
0.0
  0
VERTEX
  5
2DB
  8
0
 10
4.458868845227539
 20
19.41873386335873
 30
0.0
 42
0.8797272671651013
  0
VERTEX
  5
2DC
  8
0
 10
2.279784404458954
 20
19.41873386335941
 30
0.0
  0
VERTEX
  5
2DD
  8
0
 10
0.2913266248431665
 20
19.41873386335873
 30
0.0
  0
VERTEX
  5
2DE
  8
0
 10
0.2913266248431665
 20
20.60673386335873
 30
0.0
  0
VERTEX
  5
2DF
  8
0
 10
1.541326624843182
 20
20.60673386335873
 30
0.0
  0
VERTEX
  5
2E0
  8
0
 10
1.541326624843182
 20
21.60673386335873
 30
0.0
  0
VERTEX
  5
2E1
  8
0
 10
12.56334752941783
 20
21.60673386335873
 30
0.0
  0
VERTEX
  5
2E2
  8
0
 10
12.56334752941783
 20
20.60673386335873
 30
0.0
  0
VERTEX
  5
2E3
  8
0
 10
13.81334752941783
 20
20.60673386335873
 30
0.0
  0
VERTEX
  5
2E4
  8
0
 10
13.81334752941783
 20
19.41873386335873
 30
0.0
  0
VERTEX
  5
2E5
  8
0
 10
11.83386884522755
 20
19.41873386335873
 30
0.0
 42
0.8797272671653771
  0
VERTEX
  5
2E6
  8
0
 10
9.654784404458912
 20
19.41873386335873
 30
0.0
  0
VERTEX
  5
2E7
  8
0
 10
8.563347529417843
 20
19.41873386335873
 30
0.0
  0
VERTEX
  5
2E8
  8
0
 10
8.563347529417843
 20
19.13873386335873
 30
0.0
  0
VERTEX
  5
2E9
  8
0
 10
9.65478440445891
 20
19.13873386335873
 30
0.0
 42
0.8797272671653811
  0
VERTEX
  5
2EA
  8
0
 10
11.83386884522755
 20
19.13873386335873
 30
0.0
  0
VERTEX
  5
2EB
  8
0
 10
13.81334752941783
 20
19.13873386335873
 30
0.0
  0
VERTEX
  5
2EC
  8
0
 10
13.81334752941783
 20
17.95073386335873
 30
0.0
  0
VERTEX
  5
2ED
  8
0
 10
12.56334752941783
 20
17.95073386335873
 30
0.0
  0
VERTEX
  5
2EE
  8
0
 10
12.56334752941783
 20
16.95073386335873
 30
0.0
  0
VERTEX
  5
2EF
  8
0
 10
1.541326624843182
 20
16.95073386335874
 30
0.0
  0
VERTEX
  5
2F0
  8
0
 10
1.541326624843182
 20
17.95073386335873
 30
0.0
  0
SEQEND
  5
360
  8
0
  0
POLYLINE
  5
C1
  8
0
 66
     1
 10
0.0
 20
0.0
 30
0.0
 70
     1
  0
VERTEX
  5
2F1
  8
0
 10
0.3686352308718176
 20
12.69514623112325
 30
0.0
  0
VERTEX
  5
2F2
  8
0
 10
0.3686352308718176
 20
13.88494884814738
 30
0.0
  0
VERTEX
  5
2F3
  8
0
 10
2.357094291885226
 20
13.88313625907779
 30
0.0
 42
0.8797232082161243
  0
VERTEX
  5
2F4
  8
0
 10
4.536177451256187
 20
13.88314623112326
 30
0.0
  0
VERTEX
  5
2F5
  8
0
 10
5.618635230871875
 20
13.88314623112326
 30
0.0
  0
VERTEX
  5
2F6
  8
0
 10
5.618635230871875
 20
14.16314623112326
 30
0.0
  0
VERTEX
  5
2F7
  8
0
 10
4.536177451256187
 20
14.16314623112326
 30
0.0
 42
0.8797272671651013
  0
VERTEX
  5
2F8
  8
0
 10
2.357093010487604
 20
14.16314623112394
 30
0.0
  0
VERTEX
  5
2F9
  8
0
 10
0.3686352308718176
 20
14.16314623112326
 30
0.0
  0
VERTEX
  5
2FA
  8
0
 10
0.3686352308718176
 20
15.35114623112326
 30
0.0
  0
VERTEX
  5
2FB
  8
0
 10
1.618635230871832
 20
15.35114623112326
 30
0.0
  0
VERTEX
  5
2FC
  8
0
 10
1.618635230871832
 20
16.35114623112326
 30
0.0
  0
VERTEX
  5
2FD
  8
0
 10
12.64065613544648
 20
16.35114623112326
 30
0.0
  0
VERTEX
  5
2FE
  8
0
 10
12.64065613544648
 20
15.35114623112325
 30
0.0
  0
VERTEX
  5
2FF
  8
0
 10
13.89065613544648
 20
15.35114623112325
 30
0.0
  0
VERTEX
  5
300
  8
0
 10
13.89065613544648
 20
14.16314623112326
 30
0.0
  0
VERTEX
  5
301
  8
0
 10
11.9111774512562
 20
14.16314623112326
 30
0.0
 42
0.8797272671653771
  0
VERTEX
  5
302
  8
0
 10
9.732093010487562
 20
14.16314623112326
 30
0.0
  0
VERTEX
  5
303
  8
0
 10
8.640656135446493
 20
14.16314623112326
 30
0.0
  0
VERTEX
  5
304
  8
0
 10
8.640656135446493
 20
13.88314623112326
 30
0.0
  0
VERTEX
  5
305
  8
0
 10
9.732093010487562
 20
13.88314623112326
 30
0.0
 42
0.8797272671653811
  0
VERTEX
  5
306
  8
0
 10
11.9111774512562
 20
13.88314623112326
 30
0.0
  0
VERTEX
  5
307
  8
0
 10
13.89065613544648
 20
13.88314623112326
 30
0.0
  0
VERTEX
  5
308
  8
0
 10
13.89065613544648
 20
12.69514623112325
 30
0.0
  0
VERTEX
  5
309
  8
0
 10
12.64065613544648
 20
12.69514623112325
 30
0.0
  0
VERTEX
  5
30A
  8
0
 10
12.64065613544648
 20
11.69514623112324
 30
0.0
  0
VERTEX
  5
30B
  8
0
 10
1.618635230871832
 20
11.69514623112325
 30
0.0
  0
VERTEX
  5
30C
  8
0
 10
1.618635230871832
 20
12.69514623112325
 30
0.0
  0
SEQEND
  5
361
  8
0
  0
ENDSEC
  0
EOF
