  0
SECTION
  2
HEADER
  9
$ACADVER
  1
AC1009
  9
$DWGCODEPAGE
  3
ansi_1252
  9
$INSBASE
 10
0.0
 20
0.0
 30
0.0
  9
$EXTMIN
 10
0.0000000000000004
 20
0.021837249014825
 30
0.0
  9
$EXTMAX
 10
21.81796982294656
 20
21.89293055245823
 30
0.0
  9
$LIMMIN
 10
0.0
 20
0.0
  9
$LIMMAX
 10
12.0
 20
9.0
  9
$ORTHOMODE
 70
     0
  9
$REGENMODE
 70
     1
  9
$FILLMODE
 70
     1
  9
$QTEXTMODE
 70
     0
  9
$MIRRTEXT
 70
     1
  9
$DRAGMODE
 70
     2
  9
$LTSCALE
 40
1.0
  9
$OSMODE
 70
    37
  9
$ATTMODE
 70
     1
  9
$TEXTSIZE
 40
0.2
  9
$TRACEWID
 40
0.05
  9
$TEXTSTYLE
  7
STANDARD
  9
$CLAYER
  8
0
  9
$CELTYPE
  6
BYLAYER
  9
$CECOLOR
 62
   256
  9
$DIMSCALE
 40
1.0
  9
$DIMASZ
 40
0.18
  9
$DIMEXO
 40
0.0625
  9
$DIMDLI
 40
0.38
  9
$DIMRND
 40
0.0
  9
$DIMDLE
 40
0.0
  9
$DIMEXE
 40
0.18
  9
$DIMTP
 40
0.0
  9
$DIMTM
 40
0.0
  9
$DIMTXT
 40
0.18
  9
$DIMCEN
 40
0.09
  9
$DIMTSZ
 40
0.0
  9
$DIMTOL
 70
     0
  9
$DIMLIM
 70
     0
  9
$DIMTIH
 70
     1
  9
$DIMTOH
 70
     1
  9
$DIMSE1
 70
     0
  9
$DIMSE2
 70
     0
  9
$DIMTAD
 70
     0
  9
$DIMZIN
 70
     0
  9
$DIMBLK
  1

  9
$DIMASO
 70
     1
  9
$DIMSHO
 70
     1
  9
$DIMPOST
  1

  9
$DIMAPOST
  1

  9
$DIMALT
 70
     0
  9
$DIMALTD
 70
     2
  9
$DIMALTF
 40
25.4
  9
$DIMLFAC
 40
1.0
  9
$DIMTOFL
 70
     0
  9
$DIMTVP
 40
0.0
  9
$DIMTIX
 70
     0
  9
$DIMSOXD
 70
     0
  9
$DIMSAH
 70
     0
  9
$DIMBLK1
  1

  9
$DIMBLK2
  1

  9
$DIMSTYLE
  2
STANDARD
  9
$DIMCLRD
 70
     0
  9
$DIMCLRE
 70
     0
  9
$DIMCLRT
 70
     0
  9
$DIMTFAC
 40
1.0
  9
$DIMGAP
 40
0.09
  9
$LUNITS
 70
     2
  9
$LUPREC
 70
     4
  9
$SKETCHINC
 40
0.1
  9
$FILLETRAD
 40
0.5
  9
$AUNITS
 70
     0
  9
$AUPREC
 70
     0
  9
$MENU
  1
.
  9
$ELEVATION
 40
0.0
  9
$PELEVATION
 40
0.0
  9
$THICKNESS
 40
0.0
  9
$LIMCHECK
 70
     0
  9
$CHAMFERA
 40
0.0
  9
$CHAMFERB
 40
0.0
  9
$SKPOLY
 70
     0
  9
$TDCREATE
 40
2454910.5
  9
$TDUPDATE
 40
2458224.632385232
  9
$TDINDWG
 40
0.0000000116
  9
$TDUSRTIMER
 40
0.0000000116
  9
$USRTIMER
 70
     1
  9
$ANGBASE
 50
0.0
  9
$ANGDIR
 70
     0
  9
$PDMODE
 70
     0
  9
$PDSIZE
 40
0.0
  9
$PLINEWID
 40
0.0
  9
$COORDS
 70
     1
  9
$SPLFRAME
 70
     0
  9
$SPLINETYPE
 70
     6
  9
$SPLINESEGS
 70
     8
  9
$ATTDIA
 70
     0
  9
$ATTREQ
 70
     1
  9
$HANDLING
 70
     1
  9
$HANDSEED
  5
3D2
  9
$SURFTAB1
 70
     6
  9
$SURFTAB2
 70
     6
  9
$SURFTYPE
 70
     6
  9
$SURFU
 70
     6
  9
$SURFV
 70
     6
  9
$UCSNAME
  2

  9
$UCSORG
 10
0.0
 20
0.0
 30
0.0
  9
$UCSXDIR
 10
1.0
 20
0.0
 30
0.0
  9
$UCSYDIR
 10
0.0
 20
1.0
 30
0.0
  9
$PUCSNAME
  2

  9
$PUCSORG
 10
0.0
 20
0.0
 30
0.0
  9
$PUCSXDIR
 10
1.0
 20
0.0
 30
0.0
  9
$PUCSYDIR
 10
0.0
 20
1.0
 30
0.0
  9
$USERI1
 70
     0
  9
$USERI2
 70
     0
  9
$USERI3
 70
     0
  9
$USERI4
 70
     0
  9
$USERI5
 70
     0
  9
$USERR1
 40
0.0
  9
$USERR2
 40
0.0
  9
$USERR3
 40
0.0
  9
$USERR4
 40
0.0
  9
$USERR5
 40
0.0
  9
$WORLDVIEW
 70
     1
  9
$SHADEDGE
 70
     3
  9
$SHADEDIF
 70
    70
  9
$TILEMODE
 70
     1
  9
$MAXACTVP
 70
    64
  9
$PLIMCHECK
 70
     0
  9
$PEXTMIN
 10
1.000000000000000E+20
 20
1.000000000000000E+20
 30
1.000000000000000E+20
  9
$PEXTMAX
 10
-1.000000000000000E+20
 20
-1.000000000000000E+20
 30
-1.000000000000000E+20
  9
$PLIMMIN
 10
0.0
 20
0.0
  9
$PLIMMAX
 10
12.0
 20
9.0
  9
$UNITMODE
 70
     0
  9
$VISRETAIN
 70
     1
  9
$PLINEGEN
 70
     0
  9
$PSLTSCALE
 70
     1
  0
ENDSEC
  0
SECTION
  2
TABLES
  0
TABLE
  2
VPORT
 70
     1
  0
VPORT
  2
*ACTIVE
 70
     0
 10
0.0
 20
0.0
 11
1.0
 21
1.0
 12
10.42990654205607
 22
4.5
 13
0.0
 23
0.0
 14
0.5
 24
0.5
 15
0.5
 25
0.5
 16
0.0
 26
0.0
 36
1.0
 17
0.0
 27
0.0
 37
0.0
 40
9.0
 41
1.972972972850329
 42
50.0
 43
0.0
 44
0.0
 50
0.0
 51
0.0
 71
     0
 72
   100
 73
     1
 74
     3
 75
     0
 76
     0
 77
     0
 78
     0
  0
ENDTAB
  0
TABLE
  2
LTYPE
 70
     2
  0
LTYPE
  2
CONTINUOUS
 70
     0
  3
Solid line
 72
    65
 73
     0
 40
0.0
  0
LTYPE
  2
CONTINUOUS2
 70
     0
  3
Solid Line
 72
    65
 73
     0
 40
0.0
  0
ENDTAB
  0
TABLE
  2
LAYER
 70
     1
  0
LAYER
  2
0
 70
     0
 62
     7
  6
CONTINUOUS
  0
ENDTAB
  0
TABLE
  2
STYLE
 70
     1
  0
STYLE
  2
STANDARD
 70
     0
 40
0.0
 41
1.0
 50
0.0
 71
     0
 42
0.2
  3
txt
  4

  0
ENDTAB
  0
TABLE
  2
VIEW
 70
     0
  0
ENDTAB
  0
TABLE
  2
UCS
 70
     0
  0
ENDTAB
  0
TABLE
  2
APPID
 70
     1
  0
APPID
  2
ACAD
 70
     0
  0
ENDTAB
  0
TABLE
  2
DIMSTYLE
 70
     1
  0
DIMSTYLE
  2
STANDARD
 70
     0
  3

  4

  5

  6

  7

 40
1.0
 41
0.18
 42
0.0625
 43
0.38
 44
0.18
 45
0.0
 46
0.0
 47
0.0
 48
0.0
140
0.18
141
0.09
142
0.0
143
25.4
144
1.0
145
0.0
146
1.0
147
0.09
 71
     0
 72
     0
 73
     1
 74
     1
 75
     0
 76
     0
 77
     0
 78
     0
170
     0
171
     2
172
     0
173
     0
174
     0
175
     0
176
     0
177
     0
178
     0
  0
ENDTAB
  0
ENDSEC
  0
SECTION
  2
BLOCKS
  0
BLOCK
  8
0
  2
$MODEL_SPACE
 70
     0
 10
0.0
 20
0.0
 30
0.0
  3
$MODEL_SPACE
  1

  0
ENDBLK
  5
21
  8
0
  0
BLOCK
 67
     1
  8
0
  2
$PAPER_SPACE
 70
     0
 10
0.0
 20
0.0
 30
0.0
  3
$PAPER_SPACE
  1

  0
ENDBLK
  5
1D
 67
     1
  8
0
  0
ENDSEC
  0
SECTION
  2
ENTITIES
  0
POLYLINE
  5
6F
  8
0
 66
     1
 10
0.0
 20
0.0
 30
0.0
 70
     1
  0
VERTEX
  5
F0
  8
0
 10
8.344485079282414
 20
18.83043055245826
 30
0.0
 42
0.4142135623730951
  0
VERTEX
  5
F1
  8
0
 10
7.781985079282412
 20
18.26793055245827
 30
0.0
 42
0.4142135623730951
  0
VERTEX
  5
F2
  8
0
 10
8.344485079282414
 20
17.70543055245827
 30
0.0
 42
0.4142135623730951
  0
VERTEX
  5
F3
  8
0
 10
8.906985079282414
 20
18.26793055245827
 30
0.0
 42
0.4142135623730951
  0
SEQEND
  5
358
  8
0
  0
POLYLINE
  5
70
  8
0
 66
     1
 10
0.0
 20
0.0
 30
0.0
 70
     1
  0
VERTEX
  5
F4
  8
0
 10
7.344485079282416
 20
17.11168055245828
 30
0.0
 42
0.4142135623730951
  0
VERTEX
  5
F5
  8
0
 10
6.938235079282412
 20
16.70543055245828
 30
0.0
 42
0.4142135623730951
  0
VERTEX
  5
F6
  8
0
 10
7.344485079282416
 20
16.29918055245829
 30
0.0
 42
0.4142135623730951
  0
VERTEX
  5
F7
  8
0
 10
7.750735079282412
 20
16.70543055245828
 30
0.0
 42
0.4142135623730951
  0
SEQEND
  5
359
  8
0
  0
POLYLINE
  5
71
  8
0
 66
     1
 10
0.0
 20
0.0
 30
0.0
 70
     1
  0
VERTEX
  5
F8
  8
0
 10
7.344485079282416
 20
20.23668055245825
 30
0.0
 42
0.4142135623730951
  0
VERTEX
  5
F9
  8
0
 10
6.938235079282412
 20
19.83043055245825
 30
0.0
 42
0.4142135623730951
  0
VERTEX
  5
FA
  8
0
 10
7.344485079282416
 20
19.42418055245826
 30
0.0
 42
0.4142135623730951
  0
VERTEX
  5
FB
  8
0
 10
7.750735079282412
 20
19.83043055245825
 30
0.0
 42
0.4142135623730951
  0
SEQEND
  5
35A
  8
0
  0
POLYLINE
  5
72
  8
0
 66
     1
 10
0.0
 20
0.0
 30
0.0
 70
     1
  0
VERTEX
  5
FC
  8
0
 10
9.84448507928242
 20
20.23668055245825
 30
0.0
 42
0.4142135623730951
  0
VERTEX
  5
FD
  8
0
 10
9.43823507928242
 20
19.83043055245825
 30
0.0
 42
0.4142135623730951
  0
VERTEX
  5
FE
  8
0
 10
9.84448507928242
 20
19.42418055245826
 30
0.0
 42
0.4142135623730951
  0
VERTEX
  5
FF
  8
0
 10
10.25073507928242
 20
19.83043055245825
 30
0.0
 42
0.4142135623730951
  0
SEQEND
  5
35B
  8
0
  0
POLYLINE
  5
73
  8
0
 66
     1
 10
0.0
 20
0.0
 30
0.0
 70
     1
  0
VERTEX
  5
100
  8
0
 10
9.844485079282416
 20
17.11168055245828
 30
0.0
 42
0.4142135623730951
  0
VERTEX
  5
101
  8
0
 10
9.438235079282416
 20
16.70543055245828
 30
0.0
 42
0.4142135623730951
  0
VERTEX
  5
102
  8
0
 10
9.844485079282416
 20
16.29918055245829
 30
0.0
 42
0.4142135623730951
  0
VERTEX
  5
103
  8
0
 10
10.25073507928242
 20
16.70543055245828
 30
0.0
 42
0.4142135623730951
  0
SEQEND
  5
35C
  8
0
  0
POLYLINE
  5
74
  8
0
 66
     1
 10
0.0
 20
0.0
 30
0.0
 70
     1
  0
VERTEX
  5
104
  8
0
 10
8.344485079282414
 20
18.70543055245826
 30
0.0
 42
0.4142135623730951
  0
VERTEX
  5
105
  8
0
 10
7.906985079282412
 20
18.26793055245827
 30
0.0
 42
0.4142135623730951
  0
VERTEX
  5
106
  8
0
 10
8.344485079282414
 20
17.83043055245827
 30
0.0
 42
0.4142135623730951
  0
VERTEX
  5
107
  8
0
 10
8.781985079282418
 20
18.26793055245827
 30
0.0
 42
0.4142135623730951
  0
SEQEND
  5
35D
  8
0
  0
POLYLINE
  5
75
  8
0
 66
     1
 10
0.0
 20
0.0
 30
0.0
 70
     1
  0
VERTEX
  5
108
  8
0
 10
7.344485079282416
 20
19.96043055245825
 30
0.0
 42
0.4142135623730951
  0
VERTEX
  5
109
  8
0
 10
7.214485079282412
 20
19.83043055245825
 30
0.0
 42
0.4142135623730951
  0
VERTEX
  5
10A
  8
0
 10
7.344485079282416
 20
19.70043055245825
 30
0.0
 42
0.4142135623730951
  0
VERTEX
  5
10B
  8
0
 10
7.474485079282411
 20
19.83043055245825
 30
0.0
 42
0.4142135623730951
  0
SEQEND
  5
35E
  8
0
  0
POLYLINE
  5
76
  8
0
 66
     1
 10
0.0
 20
0.0
 30
0.0
 70
     1
  0
VERTEX
  5
10C
  8
0
 10
9.84448507928242
 20
19.96043055245825
 30
0.0
 42
0.4142135623730951
  0
VERTEX
  5
10D
  8
0
 10
9.714485079282419
 20
19.83043055245825
 30
0.0
 42
0.4142135623730951
  0
VERTEX
  5
10E
  8
0
 10
9.84448507928242
 20
19.70043055245825
 30
0.0
 42
0.4142135623730951
  0
VERTEX
  5
10F
  8
0
 10
9.97448507928242
 20
19.83043055245825
 30
0.0
 42
0.4142135623730951
  0
SEQEND
  5
35F
  8
0
  0
POLYLINE
  5
77
  8
0
 66
     1
 10
0.0
 20
0.0
 30
0.0
 70
     1
  0
VERTEX
  5
110
  8
0
 10
7.344485079282416
 20
16.83543055245828
 30
0.0
 42
0.4142135623730951
  0
VERTEX
  5
111
  8
0
 10
7.214485079282412
 20
16.70543055245828
 30
0.0
 42
0.4142135623730951
  0
VERTEX
  5
112
  8
0
 10
7.344485079282416
 20
16.57543055245828
 30
0.0
 42
0.4142135623730951
  0
VERTEX
  5
113
  8
0
 10
7.474485079282411
 20
16.70543055245828
 30
0.0
 42
0.4142135623730951
  0
SEQEND
  5
360
  8
0
  0
POLYLINE
  5
78
  8
0
 66
     1
 10
0.0
 20
0.0
 30
0.0
 70
     1
  0
VERTEX
  5
114
  8
0
 10
9.844485079282416
 20
16.83543055245828
 30
0.0
 42
0.4142135623730951
  0
VERTEX
  5
115
  8
0
 10
9.714485079282415
 20
16.70543055245828
 30
0.0
 42
0.4142135623730951
  0
VERTEX
  5
116
  8
0
 10
9.844485079282416
 20
16.57543055245828
 30
0.0
 42
0.4142135623730951
  0
VERTEX
  5
117
  8
0
 10
9.974485079282417
 20
16.70543055245828
 30
0.0
 42
0.4142135623730951
  0
SEQEND
  5
361
  8
0
  0
POLYLINE
  5
79
  8
0
 66
     1
 10
0.0
 20
0.0
 30
0.0
 70
     1
  0
VERTEX
  5
118
  8
0
 10
8.511019033807637
 20
12.54162427455981
 30
0.0
 42
0.4142135623730951
  0
VERTEX
  5
119
  8
0
 10
7.94851903380764
 20
11.97912427455981
 30
0.0
 42
0.4142135623730951
  0
VERTEX
  5
11A
  8
0
 10
8.511019033807637
 20
11.41662427455981
 30
0.0
 42
0.4142135623730951
  0
VERTEX
  5
11B
  8
0
 10
9.073519033807633
 20
11.97912427455981
 30
0.0
 42
0.4142135623730951
  0
SEQEND
  5
362
  8
0
  0
POLYLINE
  5
7A
  8
0
 66
     1
 10
0.0
 20
0.0
 30
0.0
 70
     1
  0
VERTEX
  5
11C
  8
0
 10
8.511019033807637
 20
12.41662427455981
 30
0.0
 42
0.4142135623730951
  0
VERTEX
  5
11D
  8
0
 10
8.073519033807639
 20
11.97912427455981
 30
0.0
 42
0.4142135623730951
  0
VERTEX
  5
11E
  8
0
 10
8.511019033807637
 20
11.54162427455981
 30
0.0
 42
0.4142135623730951
  0
VERTEX
  5
11F
  8
0
 10
8.948519033807635
 20
11.97912427455981
 30
0.0
 42
0.4142135623730951
  0
SEQEND
  5
363
  8
0
  0
POLYLINE
  5
7B
  8
0
 66
     1
 10
0.0
 20
0.0
 30
0.0
 70
     1
  0
VERTEX
  5
120
  8
0
 10
7.011019033807644
 20
13.67162427455981
 30
0.0
 42
0.4142135623730951
  0
VERTEX
  5
121
  8
0
 10
6.881019033807643
 20
13.54162427455981
 30
0.0
 42
0.4142135623730951
  0
VERTEX
  5
122
  8
0
 10
7.011019033807644
 20
13.41162427455981
 30
0.0
 42
0.4142135623730951
  0
VERTEX
  5
123
  8
0
 10
7.141019033807643
 20
13.54162427455981
 30
0.0
 42
0.4142135623730951
  0
SEQEND
  5
364
  8
0
  0
POLYLINE
  5
7C
  8
0
 66
     1
 10
0.0
 20
0.0
 30
0.0
 70
     1
  0
VERTEX
  5
124
  8
0
 10
9.511019033807631
 20
13.67162427455981
 30
0.0
 42
0.4142135623730951
  0
VERTEX
  5
125
  8
0
 10
9.38101903380763
 20
13.54162427455981
 30
0.0
 42
0.4142135623730951
  0
VERTEX
  5
126
  8
0
 10
9.511019033807631
 20
13.41162427455981
 30
0.0
 42
0.4142135623730951
  0
VERTEX
  5
127
  8
0
 10
9.641019033807632
 20
13.54162427455981
 30
0.0
 42
0.4142135623730951
  0
SEQEND
  5
365
  8
0
  0
POLYLINE
  5
7D
  8
0
 66
     1
 10
0.0
 20
0.0
 30
0.0
 70
     1
  0
VERTEX
  5
128
  8
0
 10
9.511019033807631
 20
10.54662427455981
 30
0.0
 42
0.4142135623730951
  0
VERTEX
  5
129
  8
0
 10
9.38101903380763
 20
10.41662427455981
 30
0.0
 42
0.4142135623730951
  0
VERTEX
  5
12A
  8
0
 10
9.511019033807631
 20
10.28662427455981
 30
0.0
 42
0.4142135623730951
  0
VERTEX
  5
12B
  8
0
 10
9.641019033807632
 20
10.41662427455981
 30
0.0
 42
0.4142135623730951
  0
SEQEND
  5
366
  8
0
  0
POLYLINE
  5
7E
  8
0
 66
     1
 10
0.0
 20
0.0
 30
0.0
 70
     1
  0
VERTEX
  5
12C
  8
0
 10
7.011019033807644
 20
10.54662427455981
 30
0.0
 42
0.4142135623730951
  0
VERTEX
  5
12D
  8
0
 10
6.881019033807643
 20
10.41662427455981
 30
0.0
 42
0.4142135623730951
  0
VERTEX
  5
12E
  8
0
 10
7.011019033807644
 20
10.28662427455981
 30
0.0
 42
0.4142135623730951
  0
VERTEX
  5
12F
  8
0
 10
7.141019033807643
 20
10.41662427455981
 30
0.0
 42
0.4142135623730951
  0
SEQEND
  5
367
  8
0
  0
POLYLINE
  5
7F
  8
0
 66
     1
 10
0.0
 20
0.0
 30
0.0
 70
     1
  0
VERTEX
  5
130
  8
0
 10
13.39782219896024
 20
12.72912427455979
 30
0.0
 42
0.4142135623730951
  0
VERTEX
  5
131
  8
0
 10
12.64782219896023
 20
11.97912427455979
 30
0.0
 42
0.4142135623730951
  0
VERTEX
  5
132
  8
0
 10
13.39782219896024
 20
11.22912427455979
 30
0.0
 42
0.4142135623730951
  0
VERTEX
  5
133
  8
0
 10
14.14782219896024
 20
11.97912427455979
 30
0.0
 42
0.4142135623730951
  0
SEQEND
  5
368
  8
0
  0
POLYLINE
  5
80
  8
0
 66
     1
 10
0.0
 20
0.0
 30
0.0
 70
     1
  0
VERTEX
  5
134
  8
0
 10
12.39782219896023
 20
13.67162427455982
 30
0.0
 42
0.4142135623730951
  0
VERTEX
  5
135
  8
0
 10
12.26782219896023
 20
13.54162427455982
 30
0.0
 42
0.4142135623730951
  0
VERTEX
  5
136
  8
0
 10
12.39782219896023
 20
13.41162427455982
 30
0.0
 42
0.4142135623730951
  0
VERTEX
  5
137
  8
0
 10
12.52782219896023
 20
13.54162427455982
 30
0.0
 42
0.4142135623730951
  0
SEQEND
  5
369
  8
0
  0
POLYLINE
  5
81
  8
0
 66
     1
 10
0.0
 20
0.0
 30
0.0
 70
     1
  0
VERTEX
  5
138
  8
0
 10
14.89782219896026
 20
13.67162427455981
 30
0.0
 42
0.4142135623730951
  0
VERTEX
  5
139
  8
0
 10
14.76782219896026
 20
13.54162427455981
 30
0.0
 42
0.4142135623730951
  0
VERTEX
  5
13A
  8
0
 10
14.89782219896026
 20
13.41162427455981
 30
0.0
 42
0.4142135623730951
  0
VERTEX
  5
13B
  8
0
 10
15.02782219896026
 20
13.54162427455981
 30
0.0
 42
0.4142135623730951
  0
SEQEND
  5
36A
  8
0
  0
POLYLINE
  5
82
  8
0
 66
     1
 10
0.0
 20
0.0
 30
0.0
 70
     1
  0
VERTEX
  5
13C
  8
0
 10
12.39782219896023
 20
10.54662427455985
 30
0.0
 42
0.4142135623730951
  0
VERTEX
  5
13D
  8
0
 10
12.26782219896023
 20
10.41662427455985
 30
0.0
 42
0.4142135623730951
  0
VERTEX
  5
13E
  8
0
 10
12.39782219896023
 20
10.28662427455985
 30
0.0
 42
0.4142135623730951
  0
VERTEX
  5
13F
  8
0
 10
12.52782219896023
 20
10.41662427455985
 30
0.0
 42
0.4142135623730951
  0
SEQEND
  5
36B
  8
0
  0
POLYLINE
  5
83
  8
0
 66
     1
 10
0.0
 20
0.0
 30
0.0
 70
     1
  0
VERTEX
  5
140
  8
0
 10
14.89782219896025
 20
10.54662427455979
 30
0.0
 42
0.4142135623730951
  0
VERTEX
  5
141
  8
0
 10
14.76782219896025
 20
10.41662427455979
 30
0.0
 42
0.4142135623730951
  0
VERTEX
  5
142
  8
0
 10
14.89782219896025
 20
10.28662427455979
 30
0.0
 42
0.4142135623730951
  0
VERTEX
  5
143
  8
0
 10
15.02782219896025
 20
10.41662427455979
 30
0.0
 42
0.4142135623730951
  0
SEQEND
  5
36C
  8
0
  0
POLYLINE
  5
84
  8
0
 66
     1
 10
0.0
 20
0.0
 30
0.0
 70
     1
  0
VERTEX
  5
144
  8
0
 10
12.42220536082002
 20
21.18293055245824
 30
0.0
 42
0.4142135623730951
  0
VERTEX
  5
145
  8
0
 10
12.29220536082002
 20
21.05293055245824
 30
0.0
 42
0.4142135623730951
  0
VERTEX
  5
146
  8
0
 10
12.42220536082002
 20
20.92293055245824
 30
0.0
 42
0.4142135623730951
  0
VERTEX
  5
147
  8
0
 10
12.55220536082002
 20
21.05293055245824
 30
0.0
 42
0.4142135623730951
  0
SEQEND
  5
36D
  8
0
  0
POLYLINE
  5
85
  8
0
 66
     1
 10
0.0
 20
0.0
 30
0.0
 70
     1
  0
VERTEX
  5
148
  8
0
 10
14.27000536082003
 20
19.57013055245825
 30
0.0
 42
0.4142135623730951
  0
VERTEX
  5
149
  8
0
 10
14.14000536082003
 20
19.44013055245825
 30
0.0
 42
0.4142135623730951
  0
VERTEX
  5
14A
  8
0
 10
14.27000536082003
 20
19.31013055245825
 30
0.0
 42
0.4142135623730951
  0
VERTEX
  5
14B
  8
0
 10
14.40000536082003
 20
19.44013055245825
 30
0.0
 42
0.4142135623730951
  0
SEQEND
  5
36E
  8
0
  0
POLYLINE
  5
86
  8
0
 66
     1
 10
0.0
 20
0.0
 30
0.0
 70
     1
  0
VERTEX
  5
14C
  8
0
 10
14.27000536082002
 20
15.81803055245828
 30
0.0
 42
0.4142135623730951
  0
VERTEX
  5
14D
  8
0
 10
14.14000536082002
 20
15.68803055245828
 30
0.0
 42
0.4142135623730951
  0
VERTEX
  5
14E
  8
0
 10
14.27000536082002
 20
15.55803055245828
 30
0.0
 42
0.4142135623730951
  0
VERTEX
  5
14F
  8
0
 10
14.40000536082002
 20
15.68803055245828
 30
0.0
 42
0.4142135623730951
  0
SEQEND
  5
36F
  8
0
  0
POLYLINE
  5
87
  8
0
 66
     1
 10
0.0
 20
0.0
 30
0.0
 70
     1
  0
VERTEX
  5
150
  8
0
 10
13.39782219896024
 20
13.42132427455979
 30
0.0
 42
0.4142135623730951
  0
VERTEX
  5
151
  8
0
 10
13.26782219896024
 20
13.29132427455979
 30
0.0
 42
0.4142135623730951
  0
VERTEX
  5
152
  8
0
 10
13.39782219896024
 20
13.16132427455979
 30
0.0
 42
0.4142135623730951
  0
VERTEX
  5
153
  8
0
 10
13.52782219896024
 20
13.29132427455979
 30
0.0
 42
0.4142135623730951
  0
SEQEND
  5
370
  8
0
  0
POLYLINE
  5
88
  8
0
 66
     1
 10
0.0
 20
0.0
 30
0.0
 70
     1
  0
VERTEX
  5
154
  8
0
 10
14.71002219896025
 20
12.10912427455979
 30
0.0
 42
0.4142135623730951
  0
VERTEX
  5
155
  8
0
 10
14.58002219896025
 20
11.97912427455979
 30
0.0
 42
0.4142135623730951
  0
VERTEX
  5
156
  8
0
 10
14.71002219896025
 20
11.8491242745598
 30
0.0
 42
0.4142135623730951
  0
VERTEX
  5
157
  8
0
 10
14.84002219896025
 20
11.97912427455979
 30
0.0
 42
0.4142135623730951
  0
SEQEND
  5
371
  8
0
  0
POLYLINE
  5
89
  8
0
 66
     1
 10
0.0
 20
0.0
 30
0.0
 70
     1
  0
VERTEX
  5
158
  8
0
 10
13.39782219896024
 20
10.79692427455979
 30
0.0
 42
0.4142135623730951
  0
VERTEX
  5
159
  8
0
 10
13.26782219896024
 20
10.6669242745598
 30
0.0
 42
0.4142135623730951
  0
VERTEX
  5
15A
  8
0
 10
13.39782219896024
 20
10.53692427455979
 30
0.0
 42
0.4142135623730951
  0
VERTEX
  5
15B
  8
0
 10
13.52782219896024
 20
10.6669242745598
 30
0.0
 42
0.4142135623730951
  0
SEQEND
  5
372
  8
0
  0
POLYLINE
  5
8A
  8
0
 66
     1
 10
0.0
 20
0.0
 30
0.0
 70
     1
  0
VERTEX
  5
15C
  8
0
 10
12.08562219896023
 20
12.10912427455979
 30
0.0
 42
0.4142135623730951
  0
VERTEX
  5
15D
  8
0
 10
11.95562219896022
 20
11.97912427455979
 30
0.0
 42
0.4142135623730951
  0
VERTEX
  5
15E
  8
0
 10
12.08562219896023
 20
11.8491242745598
 30
0.0
 42
0.4142135623730951
  0
VERTEX
  5
15F
  8
0
 10
12.21562219896023
 20
11.97912427455979
 30
0.0
 42
0.4142135623730951
  0
SEQEND
  5
373
  8
0
  0
POLYLINE
  5
8B
  8
0
 66
     1
 10
0.0
 20
0.0
 30
0.0
 70
     1
  0
VERTEX
  5
160
  8
0
 10
9.131082969124705
 20
8.604544183449988
 30
0.0
 42
0.4142135623730951
  0
VERTEX
  5
161
  8
0
 10
9.261082969124704
 20
8.474544183449988
 30
0.0
 42
0.4142135623730951
  0
VERTEX
  5
162
  8
0
 10
9.391082969124705
 20
8.604544183449988
 30
0.0
 42
0.4142135623730951
  0
VERTEX
  5
163
  8
0
 10
9.261082969124704
 20
8.734544183449987
 30
0.0
 42
0.4142135623730951
  0
SEQEND
  5
374
  8
0
  0
POLYLINE
  5
8C
  8
0
 66
     1
 10
0.0
 20
0.0
 30
0.0
 70
     1
  0
VERTEX
  5
164
  8
0
 10
13.12808296912471
 20
8.604544183449988
 30
0.0
 42
0.4142135623730951
  0
VERTEX
  5
165
  8
0
 10
13.25808296912471
 20
8.474544183449988
 30
0.0
 42
0.4142135623730951
  0
VERTEX
  5
166
  8
0
 10
13.38808296912471
 20
8.604544183449988
 30
0.0
 42
0.4142135623730951
  0
VERTEX
  5
167
  8
0
 10
13.25808296912471
 20
8.734544183449987
 30
0.0
 42
0.4142135623730951
  0
SEQEND
  5
375
  8
0
  0
POLYLINE
  5
8D
  8
0
 66
     1
 10
0.0
 20
0.0
 30
0.0
 70
     1
  0
VERTEX
  5
168
  8
0
 10
0.531082969124713
 20
8.75454418344999
 30
0.0
 42
0.4142135623730951
  0
VERTEX
  5
169
  8
0
 10
0.6610829691247115
 20
8.62454418344999
 30
0.0
 42
0.4142135623730951
  0
VERTEX
  5
16A
  8
0
 10
0.7910829691247141
 20
8.75454418344999
 30
0.0
 42
0.4142135623730951
  0
VERTEX
  5
16B
  8
0
 10
0.6610829691247115
 20
8.88454418344999
 30
0.0
 42
0.4142135623730951
  0
SEQEND
  5
376
  8
0
  0
POLYLINE
  5
8E
  8
0
 66
     1
 10
0.0
 20
0.0
 30
0.0
 70
     1
  0
VERTEX
  5
16C
  8
0
 10
4.381782969124705
 20
8.75454418344999
 30
0.0
 42
0.4142135623730951
  0
VERTEX
  5
16D
  8
0
 10
4.511782969124704
 20
8.62454418344999
 30
0.0
 42
0.4142135623730951
  0
VERTEX
  5
16E
  8
0
 10
4.641782969124707
 20
8.75454418344999
 30
0.0
 42
0.4142135623730951
  0
VERTEX
  5
16F
  8
0
 10
4.511782969124704
 20
8.88454418344999
 30
0.0
 42
0.4142135623730951
  0
SEQEND
  5
377
  8
0
  0
POLYLINE
  5
8F
  8
0
 66
     1
 10
0.0
 20
0.0
 30
0.0
 70
     1
  0
VERTEX
  5
170
  8
0
 10
8.231082969124705
 20
8.754544183449989
 30
0.0
 42
0.4142135623730951
  0
VERTEX
  5
171
  8
0
 10
8.361082969124704
 20
8.624544183449988
 30
0.0
 42
0.4142135623730951
  0
VERTEX
  5
172
  8
0
 10
8.491082969124705
 20
8.754544183449989
 30
0.0
 42
0.4142135623730951
  0
VERTEX
  5
173
  8
0
 10
8.361082969124704
 20
8.884544183449988
 30
0.0
 42
0.4142135623730951
  0
SEQEND
  5
378
  8
0
  0
POLYLINE
  5
90
  8
0
 66
     1
 10
0.0
 20
0.0
 30
0.0
 70
     1
  0
VERTEX
  5
174
  8
0
 10
2.124142029089058
 20
19.77738472701788
 30
0.0
 42
0.4142135623730951
  0
VERTEX
  5
175
  8
0
 10
1.374142029089058
 20
19.02738472701789
 30
0.0
 42
0.4142135623730951
  0
VERTEX
  5
176
  8
0
 10
2.124142029089058
 20
18.27738472701789
 30
0.0
 42
0.4142135623730951
  0
VERTEX
  5
177
  8
0
 10
2.874142029089058
 20
19.02738472701789
 30
0.0
 42
0.4142135623730951
  0
SEQEND
  5
379
  8
0
  0
POLYLINE
  5
91
  8
0
 66
     1
 10
0.0
 20
0.0
 30
0.0
 70
     1
  0
VERTEX
  5
178
  8
0
 10
4.196242029089056
 20
20.11153472701788
 30
0.0
 42
0.4142135623730951
  0
VERTEX
  5
179
  8
0
 10
4.039992029089056
 20
19.95528472701788
 30
0.0
 42
0.4142135623730951
  0
VERTEX
  5
17A
  8
0
 10
4.196242029089056
 20
19.79903472701788
 30
0.0
 42
0.4142135623730951
  0
VERTEX
  5
17B
  8
0
 10
4.352492029089056
 20
19.95528472701788
 30
0.0
 42
0.4142135623730951
  0
SEQEND
  5
37A
  8
0
  0
POLYLINE
  5
92
  8
0
 66
     1
 10
0.0
 20
0.0
 30
0.0
 70
     1
  0
VERTEX
  5
17C
  8
0
 10
3.831786390555319
 20
13.74919994518584
 30
0.0
 42
0.4142135623730951
  0
VERTEX
  5
17D
  8
0
 10
3.081786390555319
 20
12.99919994518584
 30
0.0
 42
0.4142135623730951
  0
VERTEX
  5
17E
  8
0
 10
3.831786390555319
 20
12.24919994518583
 30
0.0
 42
0.4142135623730951
  0
VERTEX
  5
17F
  8
0
 10
4.581786390555321
 20
12.99919994518584
 30
0.0
 42
0.4142135623730951
  0
SEQEND
  5
37B
  8
0
  0
POLYLINE
  5
93
  8
0
 66
     1
 10
0.0
 20
0.0
 30
0.0
 70
     1
  0
VERTEX
  5
180
  8
0
 10
1.75968639055532
 20
14.08334994518584
 30
0.0
 42
0.4142135623730951
  0
VERTEX
  5
181
  8
0
 10
1.603436390555318
 20
13.92709994518584
 30
0.0
 42
0.4142135623730951
  0
VERTEX
  5
182
  8
0
 10
1.75968639055532
 20
13.77084994518584
 30
0.0
 42
0.4142135623730951
  0
VERTEX
  5
183
  8
0
 10
1.915936390555319
 20
13.92709994518584
 30
0.0
 42
0.4142135623730951
  0
SEQEND
  5
37C
  8
0
  0
POLYLINE
  5
94
  8
0
 66
     1
 10
0.0
 20
0.0
 30
0.0
 70
     1
  0
VERTEX
  5
184
  8
0
 10
1.00968639055532
 20
15.45540314551638
 30
0.0
 42
0.4142135623730951
  0
VERTEX
  5
185
  8
0
 10
0.8796863905553187
 20
15.32540314551638
 30
0.0
 42
0.4142135623730951
  0
VERTEX
  5
186
  8
0
 10
1.00968639055532
 20
15.19540314551638
 30
0.0
 42
0.4142135623730951
  0
VERTEX
  5
187
  8
0
 10
1.139686390555318
 20
15.32540314551638
 30
0.0
 42
0.4142135623730951
  0
SEQEND
  5
37D
  8
0
  0
POLYLINE
  5
95
  8
0
 66
     1
 10
0.0
 20
0.0
 30
0.0
 70
     1
  0
VERTEX
  5
188
  8
0
 10
4.884686390555322
 20
15.45540314551638
 30
0.0
 42
0.4142135623730951
  0
VERTEX
  5
189
  8
0
 10
4.754686390555321
 20
15.32540314551638
 30
0.0
 42
0.4142135623730951
  0
VERTEX
  5
18A
  8
0
 10
4.884686390555322
 20
15.19540314551638
 30
0.0
 42
0.4142135623730951
  0
VERTEX
  5
18B
  8
0
 10
5.014686390555321
 20
15.32540314551638
 30
0.0
 42
0.4142135623730951
  0
SEQEND
  5
37E
  8
0
  0
POLYLINE
  5
96
  8
0
 66
     1
 10
0.0
 20
0.0
 30
0.0
 70
     1
  0
VERTEX
  5
18C
  8
0
 10
1.009686390555318
 20
11.45540314551638
 30
0.0
 42
0.4142135623730951
  0
VERTEX
  5
18D
  8
0
 10
0.8796863905553187
 20
11.32540314551638
 30
0.0
 42
0.4142135623730951
  0
VERTEX
  5
18E
  8
0
 10
1.009686390555318
 20
11.19540314551638
 30
0.0
 42
0.4142135623730951
  0
VERTEX
  5
18F
  8
0
 10
1.139686390555318
 20
11.32540314551638
 30
0.0
 42
0.4142135623730951
  0
SEQEND
  5
37F
  8
0
  0
POLYLINE
  5
97
  8
0
 66
     1
 10
0.0
 20
0.0
 30
0.0
 70
     1
  0
VERTEX
  5
190
  8
0
 10
4.884686390555322
 20
11.45540314551638
 30
0.0
 42
0.4142135623730951
  0
VERTEX
  5
191
  8
0
 10
4.754686390555321
 20
11.32540314551638
 30
0.0
 42
0.4142135623730951
  0
VERTEX
  5
192
  8
0
 10
4.884686390555322
 20
11.19540314551638
 30
0.0
 42
0.4142135623730951
  0
VERTEX
  5
193
  8
0
 10
5.014686390555321
 20
11.32540314551638
 30
0.0
 42
0.4142135623730951
  0
SEQEND
  5
380
  8
0
  0
POLYLINE
  5
98
  8
0
 66
     1
 10
0.0
 20
0.0
 30
0.0
 70
     1
  0
VERTEX
  5
194
  8
0
 10
1.071242029089059
 20
17.48358792734845
 30
0.0
 42
0.4142135623730951
  0
VERTEX
  5
195
  8
0
 10
0.9412420290890586
 20
17.35358792734845
 30
0.0
 42
0.4142135623730951
  0
VERTEX
  5
196
  8
0
 10
1.071242029089059
 20
17.22358792734844
 30
0.0
 42
0.4142135623730951
  0
VERTEX
  5
197
  8
0
 10
1.201242029089058
 20
17.35358792734845
 30
0.0
 42
0.4142135623730951
  0
SEQEND
  5
381
  8
0
  0
POLYLINE
  5
99
  8
0
 66
     1
 10
0.0
 20
0.0
 30
0.0
 70
     1
  0
VERTEX
  5
198
  8
0
 10
4.946242029089056
 20
17.48358792734844
 30
0.0
 42
0.4142135623730951
  0
VERTEX
  5
199
  8
0
 10
4.816242029089057
 20
17.35358792734845
 30
0.0
 42
0.4142135623730951
  0
VERTEX
  5
19A
  8
0
 10
4.946242029089056
 20
17.22358792734844
 30
0.0
 42
0.4142135623730951
  0
VERTEX
  5
19B
  8
0
 10
5.076242029089057
 20
17.35358792734845
 30
0.0
 42
0.4142135623730951
  0
SEQEND
  5
382
  8
0
  0
POLYLINE
  5
9A
  8
0
 66
     1
 10
0.0
 20
0.0
 30
0.0
 70
     1
  0
VERTEX
  5
19C
  8
0
 10
4.946242029089056
 20
21.48358792734841
 30
0.0
 42
0.4142135623730951
  0
VERTEX
  5
19D
  8
0
 10
4.816242029089057
 20
21.35358792734841
 30
0.0
 42
0.4142135623730951
  0
VERTEX
  5
19E
  8
0
 10
4.946242029089056
 20
21.22358792734842
 30
0.0
 42
0.4142135623730951
  0
VERTEX
  5
19F
  8
0
 10
5.076242029089057
 20
21.35358792734841
 30
0.0
 42
0.4142135623730951
  0
SEQEND
  5
383
  8
0
  0
POLYLINE
  5
9B
  8
0
 66
     1
 10
0.0
 20
0.0
 30
0.0
 70
     1
  0
VERTEX
  5
1A0
  8
0
 10
1.071242029089059
 20
21.48358792734841
 30
0.0
 42
0.4142135623730951
  0
VERTEX
  5
1A1
  8
0
 10
0.9412420290890586
 20
21.35358792734841
 30
0.0
 42
0.4142135623730951
  0
VERTEX
  5
1A2
  8
0
 10
1.071242029089059
 20
21.22358792734842
 30
0.0
 42
0.4142135623730951
  0
VERTEX
  5
1A3
  8
0
 10
1.20124202908906
 20
21.35358792734841
 30
0.0
 42
0.4142135623730951
  0
SEQEND
  5
384
  8
0
  0
POLYLINE
  5
9C
  8
0
 66
     1
 10
0.0
 20
0.0
 30
0.0
 70
     1
  0
VERTEX
  5
1A4
  8
0
 10
2.903836390555318
 20
14.05714994518584
 30
0.0
 42
0.4142135623730951
  0
VERTEX
  5
1A5
  8
0
 10
2.77383639055532
 20
13.92714994518584
 30
0.0
 42
0.4142135623730951
  0
VERTEX
  5
1A6
  8
0
 10
2.903836390555318
 20
13.79714994518584
 30
0.0
 42
0.4142135623730951
  0
VERTEX
  5
1A7
  8
0
 10
3.033836390555319
 20
13.92714994518584
 30
0.0
 42
0.4142135623730951
  0
SEQEND
  5
385
  8
0
  0
POLYLINE
  5
9D
  8
0
 66
     1
 10
0.0
 20
0.0
 30
0.0
 70
     1
  0
VERTEX
  5
1A8
  8
0
 10
4.759736390555322
 20
14.05714994518584
 30
0.0
 42
0.4142135623730951
  0
VERTEX
  5
1A9
  8
0
 10
4.629736390555321
 20
13.92714994518584
 30
0.0
 42
0.4142135623730951
  0
VERTEX
  5
1AA
  8
0
 10
4.759736390555322
 20
13.79714994518584
 30
0.0
 42
0.4142135623730951
  0
VERTEX
  5
1AB
  8
0
 10
4.889736390555322
 20
13.92714994518584
 30
0.0
 42
0.4142135623730951
  0
SEQEND
  5
386
  8
0
  0
POLYLINE
  5
9E
  8
0
 66
     1
 10
0.0
 20
0.0
 30
0.0
 70
     1
  0
VERTEX
  5
1AC
  8
0
 10
4.759736390555322
 20
12.20124994518583
 30
0.0
 42
0.4142135623730951
  0
VERTEX
  5
1AD
  8
0
 10
4.629736390555321
 20
12.07124994518583
 30
0.0
 42
0.4142135623730951
  0
VERTEX
  5
1AE
  8
0
 10
4.759736390555322
 20
11.94124994518583
 30
0.0
 42
0.4142135623730951
  0
VERTEX
  5
1AF
  8
0
 10
4.889736390555322
 20
12.07124994518583
 30
0.0
 42
0.4142135623730951
  0
SEQEND
  5
387
  8
0
  0
POLYLINE
  5
9F
  8
0
 66
     1
 10
0.0
 20
0.0
 30
0.0
 70
     1
  0
VERTEX
  5
1B0
  8
0
 10
2.903836390555318
 20
12.20124994518583
 30
0.0
 42
0.4142135623730951
  0
VERTEX
  5
1B1
  8
0
 10
2.77383639055532
 20
12.07124994518583
 30
0.0
 42
0.4142135623730951
  0
VERTEX
  5
1B2
  8
0
 10
2.903836390555318
 20
11.94124994518583
 30
0.0
 42
0.4142135623730951
  0
VERTEX
  5
1B3
  8
0
 10
3.033836390555319
 20
12.07124994518583
 30
0.0
 42
0.4142135623730951
  0
SEQEND
  5
388
  8
0
  0
POLYLINE
  5
A0
  8
0
 66
     1
 10
0.0
 20
0.0
 30
0.0
 70
     1
  0
VERTEX
  5
1B4
  8
0
 10
1.196192029089059
 20
20.08533472701788
 30
0.0
 42
0.4142135623730951
  0
VERTEX
  5
1B5
  8
0
 10
1.066192029089058
 20
19.95533472701788
 30
0.0
 42
0.4142135623730951
  0
VERTEX
  5
1B6
  8
0
 10
1.196192029089059
 20
19.82533472701788
 30
0.0
 42
0.4142135623730951
  0
VERTEX
  5
1B7
  8
0
 10
1.326192029089059
 20
19.95533472701788
 30
0.0
 42
0.4142135623730951
  0
SEQEND
  5
389
  8
0
  0
POLYLINE
  5
A1
  8
0
 66
     1
 10
0.0
 20
0.0
 30
0.0
 70
     1
  0
VERTEX
  5
1B8
  8
0
 10
1.196192029089059
 20
18.22943472701789
 30
0.0
 42
0.4142135623730951
  0
VERTEX
  5
1B9
  8
0
 10
1.066192029089058
 20
18.09943472701789
 30
0.0
 42
0.4142135623730951
  0
VERTEX
  5
1BA
  8
0
 10
1.196192029089059
 20
17.96943472701789
 30
0.0
 42
0.4142135623730951
  0
VERTEX
  5
1BB
  8
0
 10
1.326192029089058
 20
18.09943472701789
 30
0.0
 42
0.4142135623730951
  0
SEQEND
  5
38A
  8
0
  0
POLYLINE
  5
A2
  8
0
 66
     1
 10
0.0
 20
0.0
 30
0.0
 70
     1
  0
VERTEX
  5
1BC
  8
0
 10
3.052092029089058
 20
18.22943472701789
 30
0.0
 42
0.4142135623730951
  0
VERTEX
  5
1BD
  8
0
 10
2.922092029089058
 20
18.09943472701789
 30
0.0
 42
0.4142135623730951
  0
VERTEX
  5
1BE
  8
0
 10
3.052092029089058
 20
17.96943472701789
 30
0.0
 42
0.4142135623730951
  0
VERTEX
  5
1BF
  8
0
 10
3.182092029089059
 20
18.09943472701789
 30
0.0
 42
0.4142135623730951
  0
SEQEND
  5
38B
  8
0
  0
POLYLINE
  5
A3
  8
0
 66
     1
 10
0.0
 20
0.0
 30
0.0
 70
     1
  0
VERTEX
  5
1C0
  8
0
 10
3.052092029089058
 20
20.08533472701788
 30
0.0
 42
0.4142135623730951
  0
VERTEX
  5
1C1
  8
0
 10
2.922092029089058
 20
19.95533472701788
 30
0.0
 42
0.4142135623730951
  0
VERTEX
  5
1C2
  8
0
 10
3.052092029089058
 20
19.82533472701788
 30
0.0
 42
0.4142135623730951
  0
VERTEX
  5
1C3
  8
0
 10
3.182092029089059
 20
19.95533472701788
 30
0.0
 42
0.4142135623730951
  0
SEQEND
  5
38C
  8
0
  0
POLYLINE
  5
A4
  8
0
 66
     1
 10
0.0
 20
0.0
 30
0.0
 70
     1
  0
VERTEX
  5
1C4
  8
0
 10
19.18796982294658
 20
6.353800216490969
 30
0.0
 42
0.4142135623730951
  0
VERTEX
  5
1C5
  8
0
 10
18.43796982294658
 20
5.603800216490969
 30
0.0
 42
0.4142135623730951
  0
VERTEX
  5
1C6
  8
0
 10
19.18796982294658
 20
4.853800216490969
 30
0.0
 42
0.4142135623730951
  0
VERTEX
  5
1C7
  8
0
 10
19.93796982294657
 20
5.603800216490969
 30
0.0
 42
0.4142135623730951
  0
SEQEND
  5
38D
  8
0
  0
POLYLINE
  5
A5
  8
0
 66
     1
 10
0.0
 20
0.0
 30
0.0
 70
     1
  0
VERTEX
  5
1C8
  8
0
 10
20.12546982294657
 20
4.00255021649097
 30
0.0
 42
0.4142135623730951
  0
VERTEX
  5
1C9
  8
0
 10
19.96921982294657
 20
3.846300216490971
 30
0.0
 42
0.4142135623730951
  0
VERTEX
  5
1CA
  8
0
 10
20.12546982294657
 20
3.690050216490971
 30
0.0
 42
0.4142135623730951
  0
VERTEX
  5
1CB
  8
0
 10
20.28171982294657
 20
3.846300216490971
 30
0.0
 42
0.4142135623730951
  0
SEQEND
  5
38E
  8
0
  0
POLYLINE
  5
A6
  8
0
 66
     1
 10
0.0
 20
0.0
 30
0.0
 70
     1
  0
VERTEX
  5
1CC
  8
0
 10
18.25046982294658
 20
4.00255021649097
 30
0.0
 42
0.4142135623730951
  0
VERTEX
  5
1CD
  8
0
 10
18.09421982294658
 20
3.846300216490971
 30
0.0
 42
0.4142135623730951
  0
VERTEX
  5
1CE
  8
0
 10
18.25046982294658
 20
3.690050216490971
 30
0.0
 42
0.4142135623730951
  0
VERTEX
  5
1CF
  8
0
 10
18.40671982294658
 20
3.846300216490971
 30
0.0
 42
0.4142135623730951
  0
SEQEND
  5
38F
  8
0
  0
POLYLINE
  5
A7
  8
0
 66
     1
 10
0.0
 20
0.0
 30
0.0
 70
     1
  0
VERTEX
  5
1D0
  8
0
 10
21.18796982294656
 20
0.718559553634484
 30
0.0
 42
0.4142135623730951
  0
VERTEX
  5
1D1
  8
0
 10
21.05796982294656
 20
0.5885595536344839
 30
0.0
 42
0.4142135623730951
  0
VERTEX
  5
1D2
  8
0
 10
21.18796982294656
 20
0.4585595536344838
 30
0.0
 42
0.4142135623730951
  0
VERTEX
  5
1D3
  8
0
 10
21.31796982294656
 20
0.5885595536344839
 30
0.0
 42
0.4142135623730951
  0
SEQEND
  5
390
  8
0
  0
POLYLINE
  5
A8
  8
0
 66
     1
 10
0.0
 20
0.0
 30
0.0
 70
     1
  0
VERTEX
  5
1D4
  8
0
 10
17.18796982294659
 20
0.7185595536344849
 30
0.0
 42
0.4142135623730951
  0
VERTEX
  5
1D5
  8
0
 10
17.05796982294659
 20
0.588559553634485
 30
0.0
 42
0.4142135623730951
  0
VERTEX
  5
1D6
  8
0
 10
17.18796982294659
 20
0.4585595536344851
 30
0.0
 42
0.4142135623730951
  0
VERTEX
  5
1D7
  8
0
 10
17.31796982294659
 20
0.588559553634485
 30
0.0
 42
0.4142135623730951
  0
SEQEND
  5
391
  8
0
  0
POLYLINE
  5
A9
  8
0
 66
     1
 10
0.0
 20
0.0
 30
0.0
 70
     1
  0
VERTEX
  5
1D8
  8
0
 10
18.26001982294659
 20
6.661750216490969
 30
0.0
 42
0.4142135623730951
  0
VERTEX
  5
1D9
  8
0
 10
18.13001982294659
 20
6.53175021649097
 30
0.0
 42
0.4142135623730951
  0
VERTEX
  5
1DA
  8
0
 10
18.26001982294659
 20
6.401750216490969
 30
0.0
 42
0.4142135623730951
  0
VERTEX
  5
1DB
  8
0
 10
18.39001982294658
 20
6.53175021649097
 30
0.0
 42
0.4142135623730951
  0
SEQEND
  5
392
  8
0
  0
POLYLINE
  5
AA
  8
0
 66
     1
 10
0.0
 20
0.0
 30
0.0
 70
     1
  0
VERTEX
  5
1DC
  8
0
 10
20.11591982294657
 20
6.661750216490969
 30
0.0
 42
0.4142135623730951
  0
VERTEX
  5
1DD
  8
0
 10
19.98591982294657
 20
6.53175021649097
 30
0.0
 42
0.4142135623730951
  0
VERTEX
  5
1DE
  8
0
 10
20.11591982294657
 20
6.401750216490969
 30
0.0
 42
0.4142135623730951
  0
VERTEX
  5
1DF
  8
0
 10
20.24591982294657
 20
6.53175021649097
 30
0.0
 42
0.4142135623730951
  0
SEQEND
  5
393
  8
0
  0
POLYLINE
  5
AB
  8
0
 66
     1
 10
0.0
 20
0.0
 30
0.0
 70
     1
  0
VERTEX
  5
1E0
  8
0
 10
20.11591982294657
 20
4.805850216490969
 30
0.0
 42
0.4142135623730951
  0
VERTEX
  5
1E1
  8
0
 10
19.98591982294657
 20
4.67585021649097
 30
0.0
 42
0.4142135623730951
  0
VERTEX
  5
1E2
  8
0
 10
20.11591982294657
 20
4.545850216490969
 30
0.0
 42
0.4142135623730951
  0
VERTEX
  5
1E3
  8
0
 10
20.24591982294657
 20
4.67585021649097
 30
0.0
 42
0.4142135623730951
  0
SEQEND
  5
394
  8
0
  0
POLYLINE
  5
AC
  8
0
 66
     1
 10
0.0
 20
0.0
 30
0.0
 70
     1
  0
VERTEX
  5
1E4
  8
0
 10
18.26001982294659
 20
4.805850216490969
 30
0.0
 42
0.4142135623730951
  0
VERTEX
  5
1E5
  8
0
 10
18.13001982294659
 20
4.67585021649097
 30
0.0
 42
0.4142135623730951
  0
VERTEX
  5
1E6
  8
0
 10
18.26001982294659
 20
4.545850216490969
 30
0.0
 42
0.4142135623730951
  0
VERTEX
  5
1E7
  8
0
 10
18.39001982294658
 20
4.67585021649097
 30
0.0
 42
0.4142135623730951
  0
SEQEND
  5
395
  8
0
  0
POLYLINE
  5
AD
  8
0
 66
     1
 10
0.0
 20
0.0
 30
0.0
 70
     1
  0
VERTEX
  5
1E8
  8
0
 10
14.79814985312573
 20
4.146961739627484
 30
0.0
 42
0.4142135623730951
  0
VERTEX
  5
1E9
  8
0
 10
14.66814985312573
 20
4.016961739627483
 30
0.0
 42
0.4142135623730951
  0
VERTEX
  5
1EA
  8
0
 10
14.79814985312573
 20
3.886961739627483
 30
0.0
 42
0.4142135623730951
  0
VERTEX
  5
1EB
  8
0
 10
14.92814985312573
 20
4.016961739627483
 30
0.0
 42
0.4142135623730951
  0
SEQEND
  5
396
  8
0
  0
POLYLINE
  5
AE
  8
0
 66
     1
 10
0.0
 20
0.0
 30
0.0
 70
     1
  0
VERTEX
  5
1EC
  8
0
 10
14.79814985312573
 20
1.396961739627483
 30
0.0
 42
0.4142135623730951
  0
VERTEX
  5
1ED
  8
0
 10
14.66814985312573
 20
1.266961739627483
 30
0.0
 42
0.4142135623730951
  0
VERTEX
  5
1EE
  8
0
 10
14.79814985312573
 20
1.136961739627483
 30
0.0
 42
0.4142135623730951
  0
VERTEX
  5
1EF
  8
0
 10
14.92814985312573
 20
1.266961739627483
 30
0.0
 42
0.4142135623730951
  0
SEQEND
  5
397
  8
0
  0
POLYLINE
  5
AF
  8
0
 66
     1
 10
0.0
 20
0.0
 30
0.0
 70
     1
  0
VERTEX
  5
1F0
  8
0
 10
12.65357652074506
 20
4.146961739627484
 30
0.0
 42
0.4142135623730951
  0
VERTEX
  5
1F1
  8
0
 10
12.52357652074506
 20
4.016961739627483
 30
0.0
 42
0.4142135623730951
  0
VERTEX
  5
1F2
  8
0
 10
12.65357652074506
 20
3.886961739627483
 30
0.0
 42
0.4142135623730951
  0
VERTEX
  5
1F3
  8
0
 10
12.78357652074506
 20
4.016961739627483
 30
0.0
 42
0.4142135623730951
  0
SEQEND
  5
398
  8
0
  0
POLYLINE
  5
B0
  8
0
 66
     1
 10
0.0
 20
0.0
 30
0.0
 70
     1
  0
VERTEX
  5
1F4
  8
0
 10
12.65357652074506
 20
1.396961739627483
 30
0.0
 42
0.4142135623730951
  0
VERTEX
  5
1F5
  8
0
 10
12.52357652074506
 20
1.266961739627483
 30
0.0
 42
0.4142135623730951
  0
VERTEX
  5
1F6
  8
0
 10
12.65357652074506
 20
1.136961739627483
 30
0.0
 42
0.4142135623730951
  0
VERTEX
  5
1F7
  8
0
 10
12.78357652074506
 20
1.266961739627483
 30
0.0
 42
0.4142135623730951
  0
SEQEND
  5
399
  8
0
  0
POLYLINE
  5
B1
  8
0
 66
     1
 10
0.0
 20
0.0
 30
0.0
 70
     1
  0
VERTEX
  5
1F8
  8
0
 10
0.3448000000000011
 20
6.519900922158556
 30
0.0
 42
0.4142135623730951
  0
VERTEX
  5
1F9
  8
0
 10
0.2148000000000012
 20
6.389900922158555
 30
0.0
 42
0.4142135623730951
  0
VERTEX
  5
1FA
  8
0
 10
0.3448000000000011
 20
6.259900922158556
 30
0.0
 42
0.4142135623730951
  0
VERTEX
  5
1FB
  8
0
 10
0.474800000000001
 20
6.389900922158555
 30
0.0
 42
0.4142135623730951
  0
SEQEND
  5
39A
  8
0
  0
POLYLINE
  5
B2
  8
0
 66
     1
 10
0.0
 20
0.0
 30
0.0
 70
     1
  0
VERTEX
  5
1FC
  8
0
 10
3.6896844649578
 20
6.519900922158556
 30
0.0
 42
0.4142135623730951
  0
VERTEX
  5
1FD
  8
0
 10
3.559684464957801
 20
6.389900922158555
 30
0.0
 42
0.4142135623730951
  0
VERTEX
  5
1FE
  8
0
 10
3.6896844649578
 20
6.259900922158556
 30
0.0
 42
0.4142135623730951
  0
VERTEX
  5
1FF
  8
0
 10
3.8196844649578
 20
6.389900922158555
 30
0.0
 42
0.4142135623730951
  0
SEQEND
  5
39B
  8
0
  0
POLYLINE
  5
B3
  8
0
 66
     1
 10
0.0
 20
0.0
 30
0.0
 70
     1
  0
VERTEX
  5
200
  8
0
 10
7.034568929915602
 20
6.519900922158556
 30
0.0
 42
0.4142135623730951
  0
VERTEX
  5
201
  8
0
 10
6.904568929915602
 20
6.389900922158555
 30
0.0
 42
0.4142135623730951
  0
VERTEX
  5
202
  8
0
 10
7.034568929915602
 20
6.259900922158556
 30
0.0
 42
0.4142135623730951
  0
VERTEX
  5
203
  8
0
 10
7.164568929915601
 20
6.389900922158555
 30
0.0
 42
0.4142135623730951
  0
SEQEND
  5
39C
  8
0
  0
POLYLINE
  5
B4
  8
0
 66
     1
 10
0.0
 20
0.0
 30
0.0
 70
     1
  0
VERTEX
  5
204
  8
0
 10
5.112126697436701
 20
5.889900922158555
 30
0.0
  0
VERTEX
  5
205
  8
0
 10
5.612126697436701
 20
5.889900922158555
 30
0.0
  0
VERTEX
  5
206
  8
0
 10
5.612126697436701
 20
6.889900922158555
 30
0.0
  0
VERTEX
  5
207
  8
0
 10
5.112126697436701
 20
6.889900922158555
 30
0.0
  0
SEQEND
  5
39D
  8
0
  0
POLYLINE
  5
B5
  8
0
 66
     1
 10
0.0
 20
0.0
 30
0.0
 70
     1
  0
VERTEX
  5
208
  8
0
 10
4.362126697436701
 20
6.233650922158555
 30
0.0
  0
VERTEX
  5
209
  8
0
 10
6.3621266974367
 20
6.233650922158555
 30
0.0
  0
VERTEX
  5
20A
  8
0
 10
6.3621266974367
 20
6.546150922158555
 30
0.0
  0
VERTEX
  5
20B
  8
0
 10
4.362126697436701
 20
6.546150922158555
 30
0.0
  0
SEQEND
  5
39E
  8
0
  0
POLYLINE
  5
B6
  8
0
 66
     1
 10
0.0
 20
0.0
 30
0.0
 70
     1
  0
VERTEX
  5
20C
  8
0
 10
1.767242232478901
 20
5.889900922158555
 30
0.0
  0
VERTEX
  5
20D
  8
0
 10
2.267242232478901
 20
5.889900922158555
 30
0.0
  0
VERTEX
  5
20E
  8
0
 10
2.267242232478901
 20
6.889900922158555
 30
0.0
  0
VERTEX
  5
20F
  8
0
 10
1.767242232478901
 20
6.889900922158555
 30
0.0
  0
SEQEND
  5
39F
  8
0
  0
POLYLINE
  5
B7
  8
0
 66
     1
 10
0.0
 20
0.0
 30
0.0
 70
     1
  0
VERTEX
  5
210
  8
0
 10
1.0172422324789
 20
6.233650922158555
 30
0.0
  0
VERTEX
  5
211
  8
0
 10
3.017242232478901
 20
6.233650922158555
 30
0.0
  0
VERTEX
  5
212
  8
0
 10
3.017242232478901
 20
6.546150922158555
 30
0.0
  0
VERTEX
  5
213
  8
0
 10
1.0172422324789
 20
6.546150922158555
 30
0.0
  0
SEQEND
  5
3A0
  8
0
  0
POLYLINE
  5
B8
  8
0
 66
     1
 10
0.0
 20
0.0
 30
0.0
 70
     1
  0
VERTEX
  5
214
  8
0
 10
0.0000000000000004
 20
5.774822922158554
 30
0.0
  0
VERTEX
  5
215
  8
0
 10
7.379368929915602
 20
5.774822922158554
 30
0.0
  0
VERTEX
  5
216
  8
0
 10
7.379368929915602
 20
7.274822922158554
 30
0.0
  0
VERTEX
  5
217
  8
0
 10
0.0000000000000009
 20
7.274822922158554
 30
0.0
  0
SEQEND
  5
3A1
  8
0
  0
POLYLINE
  5
B9
  8
0
 66
     1
 10
0.0
 20
0.0
 30
0.0
 70
     1
  0
VERTEX
  5
218
  8
0
 10
8.686459910689157
 20
6.512802231214808
 30
0.0
 42
0.4142135623730951
  0
VERTEX
  5
219
  8
0
 10
8.556459910689158
 20
6.382802231214809
 30
0.0
 42
0.4142135623730951
  0
VERTEX
  5
21A
  8
0
 10
8.686459910689157
 20
6.252802231214806
 30
0.0
 42
0.4142135623730951
  0
VERTEX
  5
21B
  8
0
 10
8.816459910689156
 20
6.382802231214809
 30
0.0
 42
0.4142135623730951
  0
SEQEND
  5
3A2
  8
0
  0
POLYLINE
  5
BA
  8
0
 66
     1
 10
0.0
 20
0.0
 30
0.0
 70
     1
  0
VERTEX
  5
21C
  8
0
 10
12.03134437564696
 20
6.512802231214808
 30
0.0
 42
0.4142135623730951
  0
VERTEX
  5
21D
  8
0
 10
11.90134437564697
 20
6.382802231214809
 30
0.0
 42
0.4142135623730951
  0
VERTEX
  5
21E
  8
0
 10
12.03134437564696
 20
6.252802231214806
 30
0.0
 42
0.4142135623730951
  0
VERTEX
  5
21F
  8
0
 10
12.16134437564697
 20
6.382802231214809
 30
0.0
 42
0.4142135623730951
  0
SEQEND
  5
3A3
  8
0
  0
POLYLINE
  5
BB
  8
0
 66
     1
 10
0.0
 20
0.0
 30
0.0
 70
     1
  0
VERTEX
  5
220
  8
0
 10
15.37622884060478
 20
6.512802231214808
 30
0.0
 42
0.4142135623730951
  0
VERTEX
  5
221
  8
0
 10
15.24622884060478
 20
6.382802231214809
 30
0.0
 42
0.4142135623730951
  0
VERTEX
  5
222
  8
0
 10
15.37622884060478
 20
6.252802231214806
 30
0.0
 42
0.4142135623730951
  0
VERTEX
  5
223
  8
0
 10
15.50622884060478
 20
6.382802231214809
 30
0.0
 42
0.4142135623730951
  0
SEQEND
  5
3A4
  8
0
  0
POLYLINE
  5
BC
  8
0
 66
     1
 10
0.0
 20
0.0
 30
0.0
 70
     1
  0
VERTEX
  5
224
  8
0
 10
13.45378660812587
 20
5.882802231214811
 30
0.0
  0
VERTEX
  5
225
  8
0
 10
13.95378660812587
 20
5.882802231214811
 30
0.0
  0
VERTEX
  5
226
  8
0
 10
13.95378660812587
 20
6.882802231214807
 30
0.0
  0
VERTEX
  5
227
  8
0
 10
13.45378660812587
 20
6.882802231214807
 30
0.0
  0
SEQEND
  5
3A5
  8
0
  0
POLYLINE
  5
BD
  8
0
 66
     1
 10
0.0
 20
0.0
 30
0.0
 70
     1
  0
VERTEX
  5
228
  8
0
 10
12.70378660812587
 20
6.226552231214809
 30
0.0
  0
VERTEX
  5
229
  8
0
 10
14.70378660812587
 20
6.226552231214809
 30
0.0
  0
VERTEX
  5
22A
  8
0
 10
14.70378660812587
 20
6.539052231214809
 30
0.0
  0
VERTEX
  5
22B
  8
0
 10
12.70378660812587
 20
6.539052231214809
 30
0.0
  0
SEQEND
  5
3A6
  8
0
  0
POLYLINE
  5
BE
  8
0
 66
     1
 10
0.0
 20
0.0
 30
0.0
 70
     1
  0
VERTEX
  5
22C
  8
0
 10
10.10890214316806
 20
5.882802231214811
 30
0.0
  0
VERTEX
  5
22D
  8
0
 10
10.60890214316806
 20
5.882802231214811
 30
0.0
  0
VERTEX
  5
22E
  8
0
 10
10.60890214316806
 20
6.882802231214807
 30
0.0
  0
VERTEX
  5
22F
  8
0
 10
10.10890214316806
 20
6.882802231214807
 30
0.0
  0
SEQEND
  5
3A7
  8
0
  0
POLYLINE
  5
BF
  8
0
 66
     1
 10
0.0
 20
0.0
 30
0.0
 70
     1
  0
VERTEX
  5
230
  8
0
 10
9.358902143168057
 20
6.226552231214809
 30
0.0
  0
VERTEX
  5
231
  8
0
 10
11.35890214316806
 20
6.226552231214809
 30
0.0
  0
VERTEX
  5
232
  8
0
 10
11.35890214316806
 20
6.539052231214809
 30
0.0
  0
VERTEX
  5
233
  8
0
 10
9.358902143168057
 20
6.539052231214809
 30
0.0
  0
SEQEND
  5
3A8
  8
0
  0
POLYLINE
  5
C0
  8
0
 66
     1
 10
0.0
 20
0.0
 30
0.0
 70
     1
  0
VERTEX
  5
234
  8
0
 10
8.341659910689158
 20
5.767724231214807
 30
0.0
  0
VERTEX
  5
235
  8
0
 10
15.72102884060478
 20
5.767724231214807
 30
0.0
  0
VERTEX
  5
236
  8
0
 10
15.72102884060478
 20
7.267724231214805
 30
0.0
  0
VERTEX
  5
237
  8
0
 10
8.341659910689158
 20
7.267724231214805
 30
0.0
  0
SEQEND
  5
3A9
  8
0
  0
POLYLINE
  5
C1
  8
0
 66
     1
 10
0.0
 20
0.0
 30
0.0
 70
     1
  0
VERTEX
  5
238
  8
0
 10
10.32876712328766
 20
0.021837249014825
 30
0.0
  0
VERTEX
  5
239
  8
0
 10
10.32876712328766
 20
0.8218372490148245
 30
0.0
 42
-1.0
  0
VERTEX
  5
23A
  8
0
 10
10.32876712328766
 20
4.018837249014825
 30
0.0
  0
VERTEX
  5
23B
  8
0
 10
10.32876712328766
 20
4.818837249014826
 30
0.0
  0
VERTEX
  5
23C
  8
0
 10
11.03255985585726
 20
4.818837249014826
 30
0.0
  0
VERTEX
  5
23D
  8
0
 10
11.03255985585726
 20
4.543837249014825
 30
0.0
 42
1.0
  0
VERTEX
  5
23E
  8
0
 10
11.03255985585726
 20
4.293837249014825
 30
0.0
  0
VERTEX
  5
23F
  8
0
 10
11.03255985585726
 20
3.518837249014823
 30
0.0
  0
VERTEX
  5
240
  8
0
 10
10.32876712328766
 20
3.518837249014823
 30
0.0
 42
0.4142135623730954
  0
VERTEX
  5
241
  8
0
 10
9.230267123287666
 20
2.420337249014823
 30
0.0
 42
0.4142135623730951
  0
VERTEX
  5
242
  8
0
 10
10.32876712328766
 20
1.321837249014824
 30
0.0
  0
VERTEX
  5
243
  8
0
 10
11.03255985585726
 20
1.321837249014824
 30
0.0
  0
VERTEX
  5
244
  8
0
 10
11.03255985585726
 20
0.5468372490148246
 30
0.0
 42
1.0
  0
VERTEX
  5
245
  8
0
 10
11.03255985585726
 20
0.2968372490148252
 30
0.0
  0
VERTEX
  5
246
  8
0
 10
11.03255985585726
 20
0.021837249014825
 30
0.0
  0
SEQEND
  5
3AA
  8
0
  0
POLYLINE
  5
C2
  8
0
 66
     1
 10
0.0
 20
0.0
 30
0.0
 70
     1
  0
VERTEX
  5
247
  8
0
 10
0.1610829691247129
 20
8.35454418344999
 30
0.0
 42
0.4142135623730923
  0
VERTEX
  5
248
  8
0
 10
0.4110829691247124
 20
8.10454418344999
 30
0.0
  0
VERTEX
  5
249
  8
0
 10
13.40808296912471
 20
8.104544183449988
 30
0.0
 42
0.4142135623730936
  0
VERTEX
  5
24A
  8
0
 10
13.65808296912471
 20
8.354544183449988
 30
0.0
  0
VERTEX
  5
24B
  8
0
 10
13.65808296912471
 20
8.854544183449988
 30
0.0
 42
0.414213562373094
  0
VERTEX
  5
24C
  8
0
 10
13.40808296912471
 20
9.104544183449988
 30
0.0
  0
VERTEX
  5
24D
  8
0
 10
0.4110829691247124
 20
9.10454418344999
 30
0.0
 42
0.4142135623730923
  0
VERTEX
  5
24E
  8
0
 10
0.1610829691247129
 20
8.85454418344999
 30
0.0
  0
SEQEND
  5
3AB
  8
0
  0
POLYLINE
  5
C3
  8
0
 66
     1
 10
0.0
 20
0.0
 30
0.0
 70
     1
  0
VERTEX
  5
24F
  8
0
 10
15.31722219896026
 20
9.979124274559805
 30
0.0
  0
VERTEX
  5
250
  8
0
 10
11.31722219896022
 20
9.979124274559798
 30
0.0
  0
VERTEX
  5
251
  8
0
 10
11.31722219896021
 20
13.97912427455981
 30
0.0
  0
VERTEX
  5
252
  8
0
 10
15.31722219896025
 20
13.97912427455981
 30
0.0
  0
SEQEND
  5
3AC
  8
0
  0
POLYLINE
  5
C4
  8
0
 66
     1
 10
0.0
 20
0.0
 30
0.0
 70
     1
  0
VERTEX
  5
253
  8
0
 10
6.591619033807641
 20
13.97912427455981
 30
0.0
  0
VERTEX
  5
254
  8
0
 10
6.591619033807641
 20
9.979124274559812
 30
0.0
  0
VERTEX
  5
255
  8
0
 10
9.966619033807627
 20
9.979124274559812
 30
0.0
  0
VERTEX
  5
256
  8
0
 10
9.966619033807627
 20
13.97912427455981
 30
0.0
  0
SEQEND
  5
3AD
  8
0
  0
POLYLINE
  5
C5
  8
0
 66
     1
 10
0.0
 20
0.0
 30
0.0
 70
     1
  0
VERTEX
  5
257
  8
0
 10
6.594485079282412
 20
15.64293055245828
 30
0.0
 42
0.4142135623730951
  0
VERTEX
  5
258
  8
0
 10
7.594485079282412
 20
14.64293055245828
 30
0.0
  0
VERTEX
  5
259
  8
0
 10
14.65470536082002
 20
14.64293055245828
 30
0.0
  0
VERTEX
  5
25A
  8
0
 10
14.65470536082002
 20
15.26793055245828
 30
0.0
  0
VERTEX
  5
25B
  8
0
 10
15.59220536082002
 20
15.26793055245828
 30
0.0
  0
VERTEX
  5
25C
  8
0
 10
15.59220536082002
 20
17.95543055245826
 30
0.0
  0
VERTEX
  5
25D
  8
0
 10
14.65470536082002
 20
17.95543055245826
 30
0.0
  0
VERTEX
  5
25E
  8
0
 10
14.65470536082003
 20
19.14293055245825
 30
0.0
  0
VERTEX
  5
25F
  8
0
 10
15.59220536082003
 20
19.14293055245825
 30
0.0
  0
VERTEX
  5
260
  8
0
 10
15.59220536082003
 20
21.89293055245822
 30
0.0
  0
VERTEX
  5
261
  8
0
 10
7.594485079282414
 20
21.89293055245823
 30
0.0
 42
0.4142135623730954
  0
VERTEX
  5
262
  8
0
 10
6.594485079282412
 20
20.89293055245824
 30
0.0
  0
SEQEND
  5
3AE
  8
0
  0
POLYLINE
  5
C6
  8
0
 66
     1
 10
0.0
 20
0.0
 30
0.0
 70
     1
  0
VERTEX
  5
263
  8
0
 10
16.5579698229466
 20
3.033830330938031
 30
0.0
  0
VERTEX
  5
264
  8
0
 10
16.5579698229466
 20
3.533830330938029
 30
0.0
  0
VERTEX
  5
265
  8
0
 10
17.50307600881711
 20
3.53383033093803
 30
0.0
 42
0.4388542167211428
  0
VERTEX
  5
266
  8
0
 10
17.75220728019361
 20
3.804653626122344
 30
0.0
 42
-0.4639622164500482
  0
VERTEX
  5
267
  8
0
 10
18.29213648961325
 20
4.34456108078686
 30
0.0
 42
0.4388662299657132
  0
VERTEX
  5
268
  8
0
 10
18.56296982294658
 20
4.593691512934807
 30
0.0
  0
VERTEX
  5
269
  8
0
 10
18.56296982294658
 20
5.189222117696545
 30
0.0
  0
VERTEX
  5
26A
  8
0
 10
19.81296982294657
 20
5.189222117696543
 30
0.0
  0
VERTEX
  5
26B
  8
0
 10
19.81296982294657
 20
4.593691512934807
 30
0.0
 42
0.4388662299657156
  0
VERTEX
  5
26C
  8
0
 10
20.0838031562799
 20
4.344561080786862
 30
0.0
 42
-0.4639622164500503
  0
VERTEX
  5
26D
  8
0
 10
20.62373236569955
 20
3.804653626122342
 30
0.0
 42
0.4388542167211427
  0
VERTEX
  5
26E
  8
0
 10
20.87286363707604
 20
3.533830330938029
 30
0.0
  0
VERTEX
  5
26F
  8
0
 10
21.81796982294656
 20
3.533830330938029
 30
0.0
  0
VERTEX
  5
270
  8
0
 10
21.81796982294656
 20
3.033830330938029
 30
0.0
  0
SEQEND
  5
3AF
  8
0
  0
POLYLINE
  5
C7
  8
0
 66
     1
 10
0.0
 20
0.0
 30
0.0
 70
     1
  0
VERTEX
  5
271
  8
0
 10
21.31296982294656
 20
12.90105955363448
 30
0.0
  0
VERTEX
  5
272
  8
0
 10
21.31296982294656
 20
12.40105955363448
 30
0.0
  0
VERTEX
  5
273
  8
0
 10
21.06296982294656
 20
12.40105955363448
 30
0.0
  0
VERTEX
  5
274
  8
0
 10
21.06296982294656
 20
12.90105955363448
 30
0.0
  0
SEQEND
  5
3B0
  8
0
  0
POLYLINE
  5
C8
  8
0
 66
     1
 10
0.0
 20
0.0
 30
0.0
 70
     1
  0
VERTEX
  5
275
  8
0
 10
21.68796982294656
 20
13.15105955363448
 30
0.0
  0
VERTEX
  5
276
  8
0
 10
21.68796982294656
 20
0.2135595536344836
 30
0.0
  0
VERTEX
  5
277
  8
0
 10
16.68796982294659
 20
0.2135595536344852
 30
0.0
  0
VERTEX
  5
278
  8
0
 10
16.6879698229466
 20
13.15105955363448
 30
0.0
  0
SEQEND
  5
3B1
  8
0
  0
POLYLINE
  5
C9
  8
0
 66
     1
 10
0.0
 20
0.0
 30
0.0
 70
     1
  0
VERTEX
  5
279
  8
0
 10
17.06296982294659
 20
12.90105955363448
 30
0.0
  0
VERTEX
  5
27A
  8
0
 10
17.31296982294659
 20
12.90105955363448
 30
0.0
  0
VERTEX
  5
27B
  8
0
 10
17.31296982294659
 20
12.40105955363448
 30
0.0
  0
VERTEX
  5
27C
  8
0
 10
17.06296982294659
 20
12.40105955363448
 30
0.0
  0
SEQEND
  5
3B2
  8
0
  0
POLYLINE
  5
CA
  8
0
 66
     1
 10
0.0
 20
0.0
 30
0.0
 70
     1
  0
VERTEX
  5
27D
  8
0
 10
0.4471863905553204
 20
12.92840950896117
 30
0.0
  0
VERTEX
  5
27E
  8
0
 10
1.066854986582285
 20
12.92840950896118
 30
0.0
  0
VERTEX
  5
27F
  8
0
 10
1.066854986582285
 20
13.20600033648483
 30
0.0
 42
-0.6754316041915075
  0
VERTEX
  5
280
  8
0
 10
1.75968639055532
 20
14.92709994518584
 30
0.0
  0
VERTEX
  5
281
  8
0
 10
5.447186390555322
 20
14.92709994518584
 30
0.0
  0
VERTEX
  5
282
  8
0
 10
5.447186390555322
 20
14.24919994518584
 30
0.0
  0
VERTEX
  5
283
  8
0
 10
2.837031084699215
 20
14.24919994518584
 30
0.0
  0
VERTEX
  5
284
  8
0
 10
2.747609184903342
 20
14.08204687935232
 30
0.0
 42
0.4378883728648157
  0
VERTEX
  5
285
  8
0
 10
2.761944789193486
 20
13.75902269140771
 30
0.0
 42
0.4378883728648244
  0
VERTEX
  5
286
  8
0
 10
3.082784239670632
 20
13.79917468469771
 30
0.0
  0
VERTEX
  5
287
  8
0
 10
3.826358450724668
 20
13.79915048508272
 30
0.0
 42
-0.4693434778394481
  0
VERTEX
  5
288
  8
0
 10
4.620128608188844
 20
12.86312442241757
 30
0.0
 42
-0.4693434778394485
  0
VERTEX
  5
289
  8
0
 10
3.553398172413817
 20
12.24919994518583
 30
0.0
  0
VERTEX
  5
28A
  8
0
 10
0.4471863905553204
 20
12.24919994518583
 30
0.0
  0
SEQEND
  5
3B3
  8
0
  0
POLYLINE
  5
CB
  8
0
 66
     1
 10
0.0
 20
0.0
 30
0.0
 70
     1
  0
VERTEX
  5
28B
  8
0
 10
0.63468639055532
 20
15.70040314551638
 30
0.0
  0
VERTEX
  5
28C
  8
0
 10
0.63468639055532
 20
10.95040314551638
 30
0.0
  0
VERTEX
  5
28D
  8
0
 10
5.259686390555322
 20
10.95040314551638
 30
0.0
  0
VERTEX
  5
28E
  8
0
 10
5.259686390555322
 20
15.70040314551638
 30
0.0
  0
SEQEND
  5
3B4
  8
0
  0
POLYLINE
  5
CC
  8
0
 66
     1
 10
0.0
 20
0.0
 30
0.0
 70
     1
  0
VERTEX
  5
28F
  8
0
 10
0.5087420290890585
 20
20.95528472701787
 30
0.0
  0
VERTEX
  5
290
  8
0
 10
4.196242029089056
 20
20.95528472701787
 30
0.0
 42
-0.675431604191507
  0
VERTEX
  5
291
  8
0
 10
4.889073433062093
 20
19.23418511831687
 30
0.0
  0
VERTEX
  5
292
  8
0
 10
4.889073433062093
 20
18.95659429079322
 30
0.0
  0
VERTEX
  5
293
  8
0
 10
5.508742029089056
 20
18.95659429079322
 30
0.0
  0
VERTEX
  5
294
  8
0
 10
5.508742029089056
 20
18.27738472701789
 30
0.0
  0
VERTEX
  5
295
  8
0
 10
2.40253024723056
 20
18.27738472701789
 30
0.0
 42
-0.4693434778394483
  0
VERTEX
  5
296
  8
0
 10
1.335799811455534
 20
18.89130920424962
 30
0.0
 42
-0.4693434778394479
  0
VERTEX
  5
297
  8
0
 10
2.129569968919709
 20
19.82733526691477
 30
0.0
  0
VERTEX
  5
298
  8
0
 10
2.873144179973745
 20
19.82735946652976
 30
0.0
 42
0.4378883728648207
  0
VERTEX
  5
299
  8
0
 10
3.193983630450891
 20
19.78720747323975
 30
0.0
 42
0.4378883728648184
  0
VERTEX
  5
29A
  8
0
 10
3.208319234741035
 20
20.11023166118436
 30
0.0
  0
VERTEX
  5
29B
  8
0
 10
3.118897334945165
 20
20.27738472701787
 30
0.0
  0
VERTEX
  5
29C
  8
0
 10
0.5087420290890585
 20
20.27738472701787
 30
0.0
  0
SEQEND
  5
3B5
  8
0
  0
POLYLINE
  5
CD
  8
0
 66
     1
 10
0.0
 20
0.0
 30
0.0
 70
     1
  0
VERTEX
  5
29D
  8
0
 10
0.6962420290890581
 20
21.72858792734841
 30
0.0
  0
VERTEX
  5
29E
  8
0
 10
0.6962420290890581
 20
16.97858792734845
 30
0.0
  0
VERTEX
  5
29F
  8
0
 10
5.321242029089056
 20
16.97858792734845
 30
0.0
  0
VERTEX
  5
2A0
  8
0
 10
5.321242029089056
 20
21.72858792734841
 30
0.0
  0
SEQEND
  5
3B6
  8
0
  0
POLYLINE
  5
CE
  8
0
 66
     1
 10
0.0
 20
0.0
 30
0.0
 70
     1
  0
VERTEX
  5
2A1
  8
0
 10
17.18092979064804
 20
15.09307574156668
 30
0.0
  0
VERTEX
  5
2A2
  8
0
 10
17.68092979064804
 20
15.09307574156668
 30
0.0
  0
VERTEX
  5
2A3
  8
0
 10
17.68092979064804
 20
14.83307574156668
 30
0.0
  0
VERTEX
  5
2A4
  8
0
 10
17.18092979064804
 20
14.83307574156668
 30
0.0
  0
SEQEND
  5
3B7
  8
0
  0
POLYLINE
  5
CF
  8
0
 66
     1
 10
0.0
 20
0.0
 30
0.0
 70
     1
  0
VERTEX
  5
2A5
  8
0
 10
17.49342979064804
 20
16.08807574156667
 30
0.0
  0
VERTEX
  5
2A6
  8
0
 10
17.74342979064805
 20
16.08807574156667
 30
0.0
  0
VERTEX
  5
2A7
  8
0
 10
17.74342979064805
 20
15.33807574156668
 30
0.0
  0
VERTEX
  5
2A8
  8
0
 10
17.49342979064804
 20
15.33807574156668
 30
0.0
  0
VERTEX
  5
2A9
  8
0
 10
17.49342979064804
 20
15.58307574156667
 30
0.0
 42
-1.0
  0
VERTEX
  5
2AA
  8
0
 10
17.49342979064804
 20
15.84307574156667
 30
0.0
  0
SEQEND
  5
3B8
  8
0
  0
POLYLINE
  5
D0
  8
0
 66
     1
 10
0.0
 20
0.0
 30
0.0
 70
     1
  0
VERTEX
  5
2AB
  8
0
 10
17.68092979064804
 20
16.59307574156667
 30
0.0
  0
VERTEX
  5
2AC
  8
0
 10
17.68092979064804
 20
16.33307574156667
 30
0.0
  0
VERTEX
  5
2AD
  8
0
 10
17.18092979064804
 20
16.33307574156667
 30
0.0
  0
VERTEX
  5
2AE
  8
0
 10
17.18092979064804
 20
16.59307574156667
 30
0.0
  0
SEQEND
  5
3B9
  8
0
  0
POLYLINE
  5
D1
  8
0
 66
     1
 10
0.0
 20
0.0
 30
0.0
 70
     1
  0
VERTEX
  5
2AF
  8
0
 10
17.06842979064804
 20
16.83807574156667
 30
0.0
 42
0.4142135623730929
  0
VERTEX
  5
2B0
  8
0
 10
16.86842979064804
 20
16.63807574156667
 30
0.0
  0
VERTEX
  5
2B1
  8
0
 10
16.86842979064804
 20
14.78807574156668
 30
0.0
 42
0.4142135623730929
  0
VERTEX
  5
2B2
  8
0
 10
17.06842979064804
 20
14.58807574156668
 30
0.0
  0
VERTEX
  5
2B3
  8
0
 10
18.16842979064805
 20
14.58807574156668
 30
0.0
 42
0.4142135623730933
  0
VERTEX
  5
2B4
  8
0
 10
18.36842979064805
 20
14.78807574156668
 30
0.0
  0
VERTEX
  5
2B5
  8
0
 10
18.36842979064805
 20
16.63807574156667
 30
0.0
 42
0.4142135623730933
  0
VERTEX
  5
2B6
  8
0
 10
18.16842979064805
 20
16.83807574156667
 30
0.0
  0
SEQEND
  5
3BA
  8
0
  0
POLYLINE
  5
D2
  8
0
 66
     1
 10
0.0
 20
0.0
 30
0.0
 70
     1
  0
VERTEX
  5
2B7
  8
0
 10
19.91801176564169
 20
15.09307574156668
 30
0.0
  0
VERTEX
  5
2B8
  8
0
 10
20.41801176564169
 20
15.09307574156668
 30
0.0
  0
VERTEX
  5
2B9
  8
0
 10
20.41801176564169
 20
14.83307574156668
 30
0.0
  0
VERTEX
  5
2BA
  8
0
 10
19.91801176564169
 20
14.83307574156668
 30
0.0
  0
SEQEND
  5
3BB
  8
0
  0
POLYLINE
  5
D3
  8
0
 66
     1
 10
0.0
 20
0.0
 30
0.0
 70
     1
  0
VERTEX
  5
2BB
  8
0
 10
20.23051176564169
 20
16.08807574156667
 30
0.0
  0
VERTEX
  5
2BC
  8
0
 10
20.48051176564169
 20
16.08807574156667
 30
0.0
  0
VERTEX
  5
2BD
  8
0
 10
20.48051176564169
 20
15.33807574156668
 30
0.0
  0
VERTEX
  5
2BE
  8
0
 10
20.23051176564169
 20
15.33807574156668
 30
0.0
  0
VERTEX
  5
2BF
  8
0
 10
20.23051176564169
 20
15.58307574156667
 30
0.0
 42
-1.0
  0
VERTEX
  5
2C0
  8
0
 10
20.23051176564169
 20
15.84307574156667
 30
0.0
  0
SEQEND
  5
3BC
  8
0
  0
POLYLINE
  5
D4
  8
0
 66
     1
 10
0.0
 20
0.0
 30
0.0
 70
     1
  0
VERTEX
  5
2C1
  8
0
 10
20.41801176564169
 20
16.59307574156667
 30
0.0
  0
VERTEX
  5
2C2
  8
0
 10
20.41801176564169
 20
16.33307574156667
 30
0.0
  0
VERTEX
  5
2C3
  8
0
 10
19.91801176564169
 20
16.33307574156667
 30
0.0
  0
VERTEX
  5
2C4
  8
0
 10
19.91801176564169
 20
16.59307574156667
 30
0.0
  0
SEQEND
  5
3BD
  8
0
  0
POLYLINE
  5
D5
  8
0
 66
     1
 10
0.0
 20
0.0
 30
0.0
 70
     1
  0
VERTEX
  5
2C5
  8
0
 10
19.80551176564169
 20
16.83807574156667
 30
0.0
 42
0.4142135623730929
  0
VERTEX
  5
2C6
  8
0
 10
19.60551176564169
 20
16.63807574156667
 30
0.0
  0
VERTEX
  5
2C7
  8
0
 10
19.60551176564169
 20
14.78807574156668
 30
0.0
 42
0.4142135623730929
  0
VERTEX
  5
2C8
  8
0
 10
19.80551176564169
 20
14.58807574156668
 30
0.0
  0
VERTEX
  5
2C9
  8
0
 10
20.90551176564169
 20
14.58807574156668
 30
0.0
 42
0.4142135623730933
  0
VERTEX
  5
2CA
  8
0
 10
21.1055117656417
 20
14.78807574156668
 30
0.0
  0
VERTEX
  5
2CB
  8
0
 10
21.1055117656417
 20
16.63807574156667
 30
0.0
 42
0.4142135623730933
  0
VERTEX
  5
2CC
  8
0
 10
20.90551176564169
 20
16.83807574156667
 30
0.0
  0
SEQEND
  5
3BE
  8
0
  0
POLYLINE
  5
D6
  8
0
 66
     1
 10
0.0
 20
0.0
 30
0.0
 70
     1
  0
VERTEX
  5
2CD
  8
0
 10
17.18092979064804
 20
19.08250644837964
 30
0.0
  0
VERTEX
  5
2CE
  8
0
 10
17.68092979064804
 20
19.08250644837964
 30
0.0
  0
VERTEX
  5
2CF
  8
0
 10
17.68092979064804
 20
18.82250644837964
 30
0.0
  0
VERTEX
  5
2D0
  8
0
 10
17.18092979064804
 20
18.82250644837964
 30
0.0
  0
SEQEND
  5
3BF
  8
0
  0
POLYLINE
  5
D7
  8
0
 66
     1
 10
0.0
 20
0.0
 30
0.0
 70
     1
  0
VERTEX
  5
2D1
  8
0
 10
17.49342979064804
 20
20.07750644837964
 30
0.0
  0
VERTEX
  5
2D2
  8
0
 10
17.74342979064805
 20
20.07750644837964
 30
0.0
  0
VERTEX
  5
2D3
  8
0
 10
17.74342979064805
 20
19.32750644837964
 30
0.0
  0
VERTEX
  5
2D4
  8
0
 10
17.49342979064804
 20
19.32750644837964
 30
0.0
  0
VERTEX
  5
2D5
  8
0
 10
17.49342979064804
 20
19.57250644837964
 30
0.0
 42
-1.0
  0
VERTEX
  5
2D6
  8
0
 10
17.49342979064804
 20
19.83250644837964
 30
0.0
  0
SEQEND
  5
3C0
  8
0
  0
POLYLINE
  5
D8
  8
0
 66
     1
 10
0.0
 20
0.0
 30
0.0
 70
     1
  0
VERTEX
  5
2D7
  8
0
 10
17.68092979064804
 20
20.58250644837963
 30
0.0
  0
VERTEX
  5
2D8
  8
0
 10
17.68092979064804
 20
20.32250644837963
 30
0.0
  0
VERTEX
  5
2D9
  8
0
 10
17.18092979064804
 20
20.32250644837963
 30
0.0
  0
VERTEX
  5
2DA
  8
0
 10
17.18092979064804
 20
20.58250644837963
 30
0.0
  0
SEQEND
  5
3C1
  8
0
  0
POLYLINE
  5
D9
  8
0
 66
     1
 10
0.0
 20
0.0
 30
0.0
 70
     1
  0
VERTEX
  5
2DB
  8
0
 10
17.06842979064804
 20
20.82750644837963
 30
0.0
 42
0.4142135623730929
  0
VERTEX
  5
2DC
  8
0
 10
16.86842979064804
 20
20.62750644837963
 30
0.0
  0
VERTEX
  5
2DD
  8
0
 10
16.86842979064804
 20
18.77750644837964
 30
0.0
 42
0.4142135623730929
  0
VERTEX
  5
2DE
  8
0
 10
17.06842979064804
 20
18.57750644837964
 30
0.0
  0
VERTEX
  5
2DF
  8
0
 10
18.16842979064805
 20
18.57750644837964
 30
0.0
 42
0.4142135623730933
  0
VERTEX
  5
2E0
  8
0
 10
18.36842979064805
 20
18.77750644837964
 30
0.0
  0
VERTEX
  5
2E1
  8
0
 10
18.36842979064805
 20
20.62750644837963
 30
0.0
 42
0.4142135623730933
  0
VERTEX
  5
2E2
  8
0
 10
18.16842979064805
 20
20.82750644837963
 30
0.0
  0
SEQEND
  5
3C2
  8
0
  0
POLYLINE
  5
DA
  8
0
 66
     1
 10
0.0
 20
0.0
 30
0.0
 70
     1
  0
VERTEX
  5
2E3
  8
0
 10
19.91801176564169
 20
19.08250644837964
 30
0.0
  0
VERTEX
  5
2E4
  8
0
 10
20.41801176564169
 20
19.08250644837964
 30
0.0
  0
VERTEX
  5
2E5
  8
0
 10
20.41801176564169
 20
18.82250644837964
 30
0.0
  0
VERTEX
  5
2E6
  8
0
 10
19.91801176564169
 20
18.82250644837964
 30
0.0
  0
SEQEND
  5
3C3
  8
0
  0
POLYLINE
  5
DB
  8
0
 66
     1
 10
0.0
 20
0.0
 30
0.0
 70
     1
  0
VERTEX
  5
2E7
  8
0
 10
20.23051176564169
 20
20.07750644837964
 30
0.0
  0
VERTEX
  5
2E8
  8
0
 10
20.48051176564169
 20
20.07750644837964
 30
0.0
  0
VERTEX
  5
2E9
  8
0
 10
20.48051176564169
 20
19.32750644837964
 30
0.0
  0
VERTEX
  5
2EA
  8
0
 10
20.23051176564169
 20
19.32750644837964
 30
0.0
  0
VERTEX
  5
2EB
  8
0
 10
20.23051176564169
 20
19.57250644837964
 30
0.0
 42
-1.0
  0
VERTEX
  5
2EC
  8
0
 10
20.23051176564169
 20
19.83250644837964
 30
0.0
  0
SEQEND
  5
3C4
  8
0
  0
POLYLINE
  5
DC
  8
0
 66
     1
 10
0.0
 20
0.0
 30
0.0
 70
     1
  0
VERTEX
  5
2ED
  8
0
 10
20.41801176564169
 20
20.58250644837963
 30
0.0
  0
VERTEX
  5
2EE
  8
0
 10
20.41801176564169
 20
20.32250644837963
 30
0.0
  0
VERTEX
  5
2EF
  8
0
 10
19.91801176564169
 20
20.32250644837963
 30
0.0
  0
VERTEX
  5
2F0
  8
0
 10
19.91801176564169
 20
20.58250644837963
 30
0.0
  0
SEQEND
  5
3C5
  8
0
  0
POLYLINE
  5
DD
  8
0
 66
     1
 10
0.0
 20
0.0
 30
0.0
 70
     1
  0
VERTEX
  5
2F1
  8
0
 10
19.80551176564169
 20
20.82750644837963
 30
0.0
 42
0.4142135623730929
  0
VERTEX
  5
2F2
  8
0
 10
19.60551176564169
 20
20.62750644837963
 30
0.0
  0
VERTEX
  5
2F3
  8
0
 10
19.60551176564169
 20
18.77750644837964
 30
0.0
 42
0.4142135623730929
  0
VERTEX
  5
2F4
  8
0
 10
19.80551176564169
 20
18.57750644837964
 30
0.0
  0
VERTEX
  5
2F5
  8
0
 10
20.90551176564169
 20
18.57750644837964
 30
0.0
 42
0.4142135623730933
  0
VERTEX
  5
2F6
  8
0
 10
21.1055117656417
 20
18.77750644837964
 30
0.0
  0
VERTEX
  5
2F7
  8
0
 10
21.1055117656417
 20
20.62750644837963
 30
0.0
 42
0.4142135623730933
  0
VERTEX
  5
2F8
  8
0
 10
20.90551176564169
 20
20.82750644837963
 30
0.0
  0
SEQEND
  5
3C6
  8
0
  0
POLYLINE
  5
DE
  8
0
 66
     1
 10
0.0
 20
0.0
 30
0.0
 70
     1
  0
VERTEX
  5
2F9
  8
0
 10
0.0420756252252403
 20
3.799592451330899
 30
0.0
  0
VERTEX
  5
2FA
  8
0
 10
0.2568756252252411
 20
3.799592451330899
 30
0.0
 42
-1.0
  0
VERTEX
  5
2FB
  8
0
 10
0.5168756252252411
 20
3.799592451330899
 30
0.0
  0
VERTEX
  5
2FC
  8
0
 10
0.7920756252252414
 20
3.799592451330899
 30
0.0
  0
VERTEX
  5
2FD
  8
0
 10
0.7920756252252414
 20
3.173633262089973
 30
0.0
  0
VERTEX
  5
2FE
  8
0
 10
3.356760090183042
 20
3.173633262089973
 30
0.0
  0
VERTEX
  5
2FF
  8
0
 10
3.356760090183042
 20
3.799592451330899
 30
0.0
  0
VERTEX
  5
300
  8
0
 10
3.601760090183041
 20
3.799592451330899
 30
0.0
 42
-0.9999999999999992
  0
VERTEX
  5
301
  8
0
 10
3.861760090183041
 20
3.799592451330899
 30
0.0
  0
VERTEX
  5
302
  8
0
 10
4.106760090183041
 20
3.799592451330899
 30
0.0
  0
VERTEX
  5
303
  8
0
 10
4.106760090183041
 20
3.172814414043792
 30
0.0
  0
VERTEX
  5
304
  8
0
 10
6.671444555140838
 20
3.172814414043792
 30
0.0
  0
VERTEX
  5
305
  8
0
 10
6.671444555140838
 20
3.799592451330899
 30
0.0
  0
VERTEX
  5
306
  8
0
 10
6.946644555140839
 20
3.799592451330899
 30
0.0
 42
-1.0
  0
VERTEX
  5
307
  8
0
 10
7.206644555140839
 20
3.799592451330899
 30
0.0
  0
VERTEX
  5
308
  8
0
 10
7.421444555140838
 20
3.799592451330899
 30
0.0
  0
VERTEX
  5
309
  8
0
 10
7.421444555140839
 20
4.923633262089972
 30
0.0
  0
VERTEX
  5
30A
  8
0
 10
6.159202322661939
 20
4.923633262089972
 30
0.0
 42
-0.9999999999999996
  0
VERTEX
  5
30B
  8
0
 10
4.649202322661941
 20
4.923633262089972
 30
0.0
  0
VERTEX
  5
30C
  8
0
 10
2.814317857704142
 20
4.923633262089972
 30
0.0
 42
-0.9999999999999996
  0
VERTEX
  5
30D
  8
0
 10
1.304317857704142
 20
4.923633262089972
 30
0.0
  0
VERTEX
  5
30E
  8
0
 10
0.0420756252252403
 20
4.923633262089972
 30
0.0
  0
SEQEND
  5
3C7
  8
0
  0
POLYLINE
  5
DF
  8
0
 66
     1
 10
0.0
 20
0.0
 30
0.0
 70
     1
  0
VERTEX
  5
30F
  8
0
 10
14.72564985312573
 20
2.266961739627483
 30
0.0
  0
VERTEX
  5
310
  8
0
 10
14.98564985312573
 20
2.266961739627483
 30
0.0
  0
VERTEX
  5
311
  8
0
 10
14.98564985312573
 20
3.016961739627483
 30
0.0
  0
VERTEX
  5
312
  8
0
 10
14.72564985312573
 20
3.016961739627483
 30
0.0
  0
VERTEX
  5
313
  8
0
 10
14.72564985312573
 20
2.771961739627483
 30
0.0
 42
0.4142135623730928
  0
VERTEX
  5
314
  8
0
 10
14.59564985312573
 20
2.641961739627483
 30
0.0
 42
0.4142135623730928
  0
VERTEX
  5
315
  8
0
 10
14.72564985312573
 20
2.511961739627483
 30
0.0
  0
SEQEND
  5
3C8
  8
0
  0
POLYLINE
  5
E0
  8
0
 66
     1
 10
0.0
 20
0.0
 30
0.0
 70
     1
  0
VERTEX
  5
316
  8
0
 10
12.58107652074506
 20
2.266961739627483
 30
0.0
  0
VERTEX
  5
317
  8
0
 10
12.58107652074506
 20
2.511961739627483
 30
0.0
 42
-0.4142135623730928
  0
VERTEX
  5
318
  8
0
 10
12.45107652074506
 20
2.641961739627483
 30
0.0
 42
-0.4142135623730928
  0
VERTEX
  5
319
  8
0
 10
12.58107652074506
 20
2.771961739627483
 30
0.0
  0
VERTEX
  5
31A
  8
0
 10
12.58107652074506
 20
3.016961739627483
 30
0.0
  0
VERTEX
  5
31B
  8
0
 10
12.84107652074507
 20
3.016961739627483
 30
0.0
  0
VERTEX
  5
31C
  8
0
 10
12.84107652074507
 20
2.266961739627483
 30
0.0
  0
SEQEND
  5
3C9
  8
0
  0
POLYLINE
  5
E1
  8
0
 66
     1
 10
0.0
 20
0.0
 30
0.0
 70
     1
  0
VERTEX
  5
31D
  8
0
 10
14.11064985312573
 20
0.7669617396274828
 30
0.0
  0
VERTEX
  5
31E
  8
0
 10
14.11064985312573
 20
4.516961739627481
 30
0.0
  0
VERTEX
  5
31F
  8
0
 10
15.36064985312573
 20
4.516961739627481
 30
0.0
  0
VERTEX
  5
320
  8
0
 10
15.36064985312573
 20
0.7669617396274828
 30
0.0
  0
SEQEND
  5
3CA
  8
0
  0
POLYLINE
  5
E2
  8
0
 66
     1
 10
0.0
 20
0.0
 30
0.0
 70
     1
  0
VERTEX
  5
321
  8
0
 10
11.96607652074506
 20
0.7669617396274828
 30
0.0
  0
VERTEX
  5
322
  8
0
 10
11.96607652074506
 20
4.516961739627481
 30
0.0
  0
VERTEX
  5
323
  8
0
 10
13.21607652074507
 20
4.516961739627481
 30
0.0
  0
VERTEX
  5
324
  8
0
 10
13.21607652074507
 20
0.7669617396274828
 30
0.0
  0
SEQEND
  5
3CB
  8
0
  0
POLYLINE
  5
E3
  8
0
 66
     1
 10
0.0
 20
0.0
 30
0.0
 70
     1
  0
VERTEX
  5
325
  8
0
 10
5.440122915362624
 20
1.154376407712329
 30
0.0
 42
0.4142135623730951
  0
VERTEX
  5
326
  8
0
 10
5.127622915362624
 20
0.8418764077123282
 30
0.0
 42
0.4142135623730951
  0
VERTEX
  5
327
  8
0
 10
5.440122915362624
 20
0.5293764077123277
 30
0.0
 42
0.4142135623730951
  0
VERTEX
  5
328
  8
0
 10
5.752622915362624
 20
0.8418764077123282
 30
0.0
 42
0.4142135623730951
  0
SEQEND
  5
3CC
  8
0
  0
POLYLINE
  5
E4
  8
0
 66
     1
 10
0.0
 20
0.0
 30
0.0
 70
     1
  0
VERTEX
  5
329
  8
0
 10
5.020101487337813
 20
1.391897835737138
 30
0.0
 42
0.4142135623730951
  0
VERTEX
  5
32A
  8
0
 10
4.890101487337814
 20
1.261897835737137
 30
0.0
 42
0.4142135623730951
  0
VERTEX
  5
32B
  8
0
 10
5.020101487337813
 20
1.131897835737137
 30
0.0
 42
0.4142135623730951
  0
VERTEX
  5
32C
  8
0
 10
5.150101487337816
 20
1.261897835737137
 30
0.0
 42
0.4142135623730951
  0
SEQEND
  5
3CD
  8
0
  0
POLYLINE
  5
E5
  8
0
 66
     1
 10
0.0
 20
0.0
 30
0.0
 70
     1
  0
VERTEX
  5
32D
  8
0
 10
5.860144343387434
 20
1.391897835737138
 30
0.0
 42
0.4142135623730951
  0
VERTEX
  5
32E
  8
0
 10
5.730144343387432
 20
1.261897835737137
 30
0.0
 42
0.4142135623730951
  0
VERTEX
  5
32F
  8
0
 10
5.860144343387434
 20
1.131897835737137
 30
0.0
 42
0.4142135623730951
  0
VERTEX
  5
330
  8
0
 10
5.990144343387433
 20
1.261897835737137
 30
0.0
 42
0.4142135623730951
  0
SEQEND
  5
3CE
  8
0
  0
POLYLINE
  5
E6
  8
0
 66
     1
 10
0.0
 20
0.0
 30
0.0
 70
     1
  0
VERTEX
  5
331
  8
0
 10
5.860144343387434
 20
0.5518549796875198
 30
0.0
 42
0.4142135623730951
  0
VERTEX
  5
332
  8
0
 10
5.730144343387435
 20
0.4218549796875188
 30
0.0
 42
0.4142135623730951
  0
VERTEX
  5
333
  8
0
 10
5.860144343387434
 20
0.2918549796875178
 30
0.0
 42
0.4142135623730951
  0
VERTEX
  5
334
  8
0
 10
5.990144343387433
 20
0.4218549796875188
 30
0.0
 42
0.4142135623730951
  0
SEQEND
  5
3CF
  8
0
  0
POLYLINE
  5
E7
  8
0
 66
     1
 10
0.0
 20
0.0
 30
0.0
 70
     1
  0
VERTEX
  5
335
  8
0
 10
5.020101487337813
 20
0.5518549796875198
 30
0.0
 42
0.4142135623730951
  0
VERTEX
  5
336
  8
0
 10
4.890101487337814
 20
0.4218549796875188
 30
0.0
 42
0.4142135623730951
  0
VERTEX
  5
337
  8
0
 10
5.020101487337813
 20
0.2918549796875178
 30
0.0
 42
0.4142135623730951
  0
VERTEX
  5
338
  8
0
 10
5.150101487337812
 20
0.4218549796875188
 30
0.0
 42
0.4142135623730951
  0
SEQEND
  5
3D0
  8
0
  0
POLYLINE
  5
E8
  8
0
 66
     1
 10
0.0
 20
0.0
 30
0.0
 70
     1
  0
VERTEX
  5
339
  8
0
 10
0.2927962179259139
 20
1.195187779027888
 30
0.0
 42
-0.4142135623731043
  0
VERTEX
  5
33A
  8
0
 10
0.4227962179259167
 20
1.325187779027889
 30
0.0
 42
-0.4142135623731043
  0
VERTEX
  5
33B
  8
0
 10
0.5527962179259158
 20
1.195187779027888
 30
0.0
  0
VERTEX
  5
33C
  8
0
 10
0.8279962179259144
 20
1.195187779027888
 30
0.0
  0
VERTEX
  5
33D
  8
0
 10
0.8279962179259144
 20
0.5927180022109144
 30
0.0
  0
VERTEX
  5
33E
  8
0
 10
3.392680682883719
 20
0.5927180022109144
 30
0.0
  0
VERTEX
  5
33F
  8
0
 10
3.392680682883719
 20
1.195187779027888
 30
0.0
  0
VERTEX
  5
340
  8
0
 10
3.63768068288372
 20
1.195187779027888
 30
0.0
 42
-0.4142135623730948
  0
VERTEX
  5
341
  8
0
 10
3.767680682883723
 20
1.325187779027889
 30
0.0
 42
-0.4142135623730947
  0
VERTEX
  5
342
  8
0
 10
3.897680682883722
 20
1.195187779027888
 30
0.0
  0
VERTEX
  5
343
  8
0
 10
4.142680682883723
 20
1.195187779027888
 30
0.0
  0
VERTEX
  5
344
  8
0
 10
4.142680682883723
 20
0.5918764077123277
 30
0.0
 42
0.4142135623730938
  0
VERTEX
  5
345
  8
0
 10
4.642680682883723
 20
0.0918764077123271
 30
0.0
  0
VERTEX
  5
346
  8
0
 10
6.207365147841527
 20
0.0918764077123271
 30
0.0
 42
0.4142135623730969
  0
VERTEX
  5
347
  8
0
 10
6.707365147841527
 20
0.5918764077123277
 30
0.0
  0
VERTEX
  5
348
  8
0
 10
6.707365147841527
 20
1.195187779027888
 30
0.0
  0
VERTEX
  5
349
  8
0
 10
6.982565147841528
 20
1.195187779027888
 30
0.0
 42
-0.4142135623731043
  0
VERTEX
  5
34A
  8
0
 10
7.112565147841527
 20
1.325187779027889
 30
0.0
 42
-0.4142135623731043
  0
VERTEX
  5
34B
  8
0
 10
7.242565147841526
 20
1.195187779027888
 30
0.0
  0
VERTEX
  5
34C
  8
0
 10
7.457365147841527
 20
1.195187779027888
 30
0.0
  0
VERTEX
  5
34D
  8
0
 10
7.457365147841527
 20
2.341876407712329
 30
0.0
  0
VERTEX
  5
34E
  8
0
 10
6.195122915362626
 20
2.341876407712329
 30
0.0
 42
-0.414213562373095
  0
VERTEX
  5
34F
  8
0
 10
5.440122915362624
 20
1.586876407712328
 30
0.0
 42
-0.4142135623730948
  0
VERTEX
  5
350
  8
0
 10
4.685122915362625
 20
2.341876407712329
 30
0.0
  0
VERTEX
  5
351
  8
0
 10
2.850238450404821
 20
2.341876407712329
 30
0.0
 42
-0.414213562373095
  0
VERTEX
  5
352
  8
0
 10
2.095238450404819
 20
1.586876407712328
 30
0.0
 42
-0.414213562373095
  0
VERTEX
  5
353
  8
0
 10
1.340238450404816
 20
2.341876407712329
 30
0.0
  0
VERTEX
  5
354
  8
0
 10
0.0779962179259134
 20
2.341876407712329
 30
0.0
  0
VERTEX
  5
355
  8
0
 10
0.0779962179259134
 20
1.195187779027888
 30
0.0
  0
SEQEND
  5
3D1
  8
0
  0
ENDSEC
  0
EOF
