  0
SECTION
  2
HEADER
  9
$ACADVER
  1
AC1009
  9
$DWGCODEPAGE
  3
ansi_1252
  9
$INSBASE
 10
0.0
 20
0.0
 30
0.0
  9
$EXTMIN
 10
0.1101544136670962
 20
-0.0113355204641681
 30
0.0
  9
$EXTMAX
 10
19.32048278140001
 20
17.06386596560669
 30
0.0
  9
$LIMMIN
 10
0.0
 20
0.0
  9
$LIMMAX
 10
12.0
 20
9.0
  9
$ORTHOMODE
 70
     0
  9
$REGENMODE
 70
     1
  9
$FILLMODE
 70
     1
  9
$QTEXTMODE
 70
     0
  9
$MIRRTEXT
 70
     1
  9
$DRAGMODE
 70
     2
  9
$LTSCALE
 40
1.0
  9
$OSMODE
 70
    37
  9
$ATTMODE
 70
     1
  9
$TEXTSIZE
 40
0.2
  9
$TRACEWID
 40
0.05
  9
$TEXTSTYLE
  7
STANDARD
  9
$CLAYER
  8
0
  9
$CELTYPE
  6
BYLAYER
  9
$CECOLOR
 62
   256
  9
$DIMSCALE
 40
1.0
  9
$DIMASZ
 40
0.18
  9
$DIMEXO
 40
0.0625
  9
$DIMDLI
 40
0.38
  9
$DIMRND
 40
0.0
  9
$DIMDLE
 40
0.0
  9
$DIMEXE
 40
0.18
  9
$DIMTP
 40
0.0
  9
$DIMTM
 40
0.0
  9
$DIMTXT
 40
0.18
  9
$DIMCEN
 40
0.09
  9
$DIMTSZ
 40
0.0
  9
$DIMTOL
 70
     0
  9
$DIMLIM
 70
     0
  9
$DIMTIH
 70
     1
  9
$DIMTOH
 70
     1
  9
$DIMSE1
 70
     0
  9
$DIMSE2
 70
     0
  9
$DIMTAD
 70
     0
  9
$DIMZIN
 70
     0
  9
$DIMBLK
  1

  9
$DIMASO
 70
     1
  9
$DIMSHO
 70
     1
  9
$DIMPOST
  1

  9
$DIMAPOST
  1

  9
$DIMALT
 70
     0
  9
$DIMALTD
 70
     2
  9
$DIMALTF
 40
25.4
  9
$DIMLFAC
 40
1.0
  9
$DIMTOFL
 70
     0
  9
$DIMTVP
 40
0.0
  9
$DIMTIX
 70
     0
  9
$DIMSOXD
 70
     0
  9
$DIMSAH
 70
     0
  9
$DIMBLK1
  1

  9
$DIMBLK2
  1

  9
$DIMSTYLE
  2
STANDARD
  9
$DIMCLRD
 70
     0
  9
$DIMCLRE
 70
     0
  9
$DIMCLRT
 70
     0
  9
$DIMTFAC
 40
1.0
  9
$DIMGAP
 40
0.09
  9
$LUNITS
 70
     2
  9
$LUPREC
 70
     4
  9
$SKETCHINC
 40
0.1
  9
$FILLETRAD
 40
0.5
  9
$AUNITS
 70
     0
  9
$AUPREC
 70
     0
  9
$MENU
  1
.
  9
$ELEVATION
 40
0.0
  9
$PELEVATION
 40
0.0
  9
$THICKNESS
 40
0.0
  9
$LIMCHECK
 70
     0
  9
$CHAMFERA
 40
0.0
  9
$CHAMFERB
 40
0.0
  9
$SKPOLY
 70
     0
  9
$TDCREATE
 40
2454910.5
  9
$TDUPDATE
 40
2458224.64770397
  9
$TDINDWG
 40
0.0000000116
  9
$TDUSRTIMER
 40
0.0000000116
  9
$USRTIMER
 70
     1
  9
$ANGBASE
 50
0.0
  9
$ANGDIR
 70
     0
  9
$PDMODE
 70
     0
  9
$PDSIZE
 40
0.0
  9
$PLINEWID
 40
0.0
  9
$COORDS
 70
     1
  9
$SPLFRAME
 70
     0
  9
$SPLINETYPE
 70
     6
  9
$SPLINESEGS
 70
     8
  9
$ATTDIA
 70
     0
  9
$ATTREQ
 70
     1
  9
$HANDLING
 70
     1
  9
$HANDSEED
  5
1C0
  9
$SURFTAB1
 70
     6
  9
$SURFTAB2
 70
     6
  9
$SURFTYPE
 70
     6
  9
$SURFU
 70
     6
  9
$SURFV
 70
     6
  9
$UCSNAME
  2

  9
$UCSORG
 10
0.0
 20
0.0
 30
0.0
  9
$UCSXDIR
 10
1.0
 20
0.0
 30
0.0
  9
$UCSYDIR
 10
0.0
 20
1.0
 30
0.0
  9
$PUCSNAME
  2

  9
$PUCSORG
 10
0.0
 20
0.0
 30
0.0
  9
$PUCSXDIR
 10
1.0
 20
0.0
 30
0.0
  9
$PUCSYDIR
 10
0.0
 20
1.0
 30
0.0
  9
$USERI1
 70
     0
  9
$USERI2
 70
     0
  9
$USERI3
 70
     0
  9
$USERI4
 70
     0
  9
$USERI5
 70
     0
  9
$USERR1
 40
0.0
  9
$USERR2
 40
0.0
  9
$USERR3
 40
0.0
  9
$USERR4
 40
0.0
  9
$USERR5
 40
0.0
  9
$WORLDVIEW
 70
     1
  9
$SHADEDGE
 70
     3
  9
$SHADEDIF
 70
    70
  9
$TILEMODE
 70
     1
  9
$MAXACTVP
 70
    64
  9
$PLIMCHECK
 70
     0
  9
$PEXTMIN
 10
1.000000000000000E+20
 20
1.000000000000000E+20
 30
1.000000000000000E+20
  9
$PEXTMAX
 10
-1.000000000000000E+20
 20
-1.000000000000000E+20
 30
-1.000000000000000E+20
  9
$PLIMMIN
 10
0.0
 20
0.0
  9
$PLIMMAX
 10
12.0
 20
9.0
  9
$UNITMODE
 70
     0
  9
$VISRETAIN
 70
     1
  9
$PLINEGEN
 70
     0
  9
$PSLTSCALE
 70
     1
  0
ENDSEC
  0
SECTION
  2
TABLES
  0
TABLE
  2
VPORT
 70
     1
  0
VPORT
  2
*ACTIVE
 70
     0
 10
0.0
 20
0.0
 11
1.0
 21
1.0
 12
10.42990654205607
 22
4.5
 13
0.0
 23
0.0
 14
0.5
 24
0.5
 15
0.5
 25
0.5
 16
0.0
 26
0.0
 36
1.0
 17
0.0
 27
0.0
 37
0.0
 40
9.0
 41
1.972972972850329
 42
50.0
 43
0.0
 44
0.0
 50
0.0
 51
0.0
 71
     0
 72
   100
 73
     1
 74
     3
 75
     0
 76
     0
 77
     0
 78
     0
  0
ENDTAB
  0
TABLE
  2
LTYPE
 70
     2
  0
LTYPE
  2
CONTINUOUS
 70
     0
  3
Solid line
 72
    65
 73
     0
 40
0.0
  0
LTYPE
  2
CONTINUOUS2
 70
     0
  3
Solid Line
 72
    65
 73
     0
 40
0.0
  0
ENDTAB
  0
TABLE
  2
LAYER
 70
     1
  0
LAYER
  2
0
 70
     0
 62
     7
  6
CONTINUOUS
  0
ENDTAB
  0
TABLE
  2
STYLE
 70
     1
  0
STYLE
  2
STANDARD
 70
     0
 40
0.0
 41
1.0
 50
0.0
 71
     0
 42
0.2
  3
txt
  4

  0
ENDTAB
  0
TABLE
  2
VIEW
 70
     0
  0
ENDTAB
  0
TABLE
  2
UCS
 70
     0
  0
ENDTAB
  0
TABLE
  2
APPID
 70
     1
  0
APPID
  2
ACAD
 70
     0
  0
ENDTAB
  0
TABLE
  2
DIMSTYLE
 70
     1
  0
DIMSTYLE
  2
STANDARD
 70
     0
  3

  4

  5

  6

  7

 40
1.0
 41
0.18
 42
0.0625
 43
0.38
 44
0.18
 45
0.0
 46
0.0
 47
0.0
 48
0.0
140
0.18
141
0.09
142
0.0
143
25.4
144
1.0
145
0.0
146
1.0
147
0.09
 71
     0
 72
     0
 73
     1
 74
     1
 75
     0
 76
     0
 77
     0
 78
     0
170
     0
171
     2
172
     0
173
     0
174
     0
175
     0
176
     0
177
     0
178
     0
  0
ENDTAB
  0
ENDSEC
  0
SECTION
  2
BLOCKS
  0
BLOCK
  8
0
  2
$MODEL_SPACE
 70
     0
 10
0.0
 20
0.0
 30
0.0
  3
$MODEL_SPACE
  1

  0
ENDBLK
  5
21
  8
0
  0
BLOCK
 67
     1
  8
0
  2
$PAPER_SPACE
 70
     0
 10
0.0
 20
0.0
 30
0.0
  3
$PAPER_SPACE
  1

  0
ENDBLK
  5
1D
 67
     1
  8
0
  0
ENDSEC
  0
SECTION
  2
ENTITIES
  0
POLYLINE
  5
6F
  8
0
 66
     1
 10
0.0
 20
0.0
 30
0.0
 70
     1
  0
VERTEX
  5
82
  8
0
 10
7.681230717754774
 20
-0.0113355204641681
 30
0.0
  0
VERTEX
  5
83
  8
0
 10
8.956664483053475
 20
-0.0113355204641681
 30
0.0
  0
VERTEX
  5
84
  8
0
 10
8.956664483053467
 20
0.4534644795358327
 30
0.0
 42
-0.4142135623731043
  0
VERTEX
  5
85
  8
0
 10
8.826664483053468
 20
0.5834644795358339
 30
0.0
 42
-0.4142135623731043
  0
VERTEX
  5
86
  8
0
 10
8.95666448305347
 20
0.7134644795358343
 30
0.0
  0
VERTEX
  5
87
  8
0
 10
8.95666448305347
 20
0.9886644795358341
 30
0.0
  0
VERTEX
  5
88
  8
0
 10
9.20666448305347
 20
0.9886644795358337
 30
0.0
  0
VERTEX
  5
89
  8
0
 10
9.20666448305347
 20
3.553348944493638
 30
0.0
  0
VERTEX
  5
8A
  8
0
 10
8.95666448305347
 20
3.553348944493638
 30
0.0
  0
VERTEX
  5
8B
  8
0
 10
8.95666448305347
 20
3.798348944493638
 30
0.0
 42
-0.4142135623731077
  0
VERTEX
  5
8C
  8
0
 10
8.826664483053468
 20
3.928348944493638
 30
0.0
 42
-0.4142135623731077
  0
VERTEX
  5
8D
  8
0
 10
8.95666448305347
 20
4.058348944493638
 30
0.0
  0
VERTEX
  5
8E
  8
0
 10
8.95666448305347
 20
4.303348944493638
 30
0.0
  0
VERTEX
  5
8F
  8
0
 10
9.20666448305347
 20
4.303348944493637
 30
0.0
  0
VERTEX
  5
90
  8
0
 10
9.206664483053473
 20
6.868033409451437
 30
0.0
  0
VERTEX
  5
91
  8
0
 10
8.95666448305347
 20
6.868033409451437
 30
0.0
  0
VERTEX
  5
92
  8
0
 10
8.95666448305347
 20
7.14323340945144
 30
0.0
 42
-1.0
  0
VERTEX
  5
93
  8
0
 10
8.95666448305347
 20
7.403233409451438
 30
0.0
  0
VERTEX
  5
94
  8
0
 10
8.95666448305347
 20
7.868033409451439
 30
0.0
  0
VERTEX
  5
95
  8
0
 10
7.681230717754774
 20
7.868033409451439
 30
0.0
  0
VERTEX
  5
96
  8
0
 10
7.681230717754774
 20
6.332138392732606
 30
0.0
 42
-0.775965215660548
  0
VERTEX
  5
97
  8
0
 10
7.681230717754774
 20
4.869443961212474
 30
0.0
  0
VERTEX
  5
98
  8
0
 10
7.681230717754774
 20
2.987253927774803
 30
0.0
 42
-0.7759652156605485
  0
VERTEX
  5
99
  8
0
 10
7.681230717754774
 20
1.52455949625467
 30
0.0
  0
SEQEND
  5
1B4
  8
0
  0
POLYLINE
  5
70
  8
0
 66
     1
 10
0.0
 20
0.0
 30
0.0
 70
     1
  0
VERTEX
  5
9A
  8
0
 10
3.948571169686313
 20
-0.0113355204641681
 30
0.0
  0
VERTEX
  5
9B
  8
0
 10
4.948571169686313
 20
-0.0113355204641681
 30
0.0
  0
VERTEX
  5
9C
  8
0
 10
4.948571169686313
 20
0.9886644795358341
 30
0.0
  0
VERTEX
  5
9D
  8
0
 10
6.251985241284345
 20
0.9886644795358341
 30
0.0
  0
VERTEX
  5
9E
  8
0
 10
6.251985241284364
 20
-0.0113355204641681
 30
0.0
  0
VERTEX
  5
9F
  8
0
 10
7.176230912883971
 20
-0.0113355204641681
 30
0.0
  0
VERTEX
  5
A0
  8
0
 10
7.176230912883971
 20
0.4534644795358336
 30
0.0
 42
-0.4142135623731077
  0
VERTEX
  5
A1
  8
0
 10
7.046230912883971
 20
0.5834644795358339
 30
0.0
 42
-0.4142135623731077
  0
VERTEX
  5
A2
  8
0
 10
7.176230912883971
 20
0.7134644795358338
 30
0.0
  0
VERTEX
  5
A3
  8
0
 10
7.176230912883971
 20
1.511074393021027
 30
0.0
 42
-0.8478550623838015
  0
VERTEX
  5
A4
  8
0
 10
7.176230912883971
 20
3.000739031008446
 30
0.0
  0
VERTEX
  5
A5
  8
0
 10
7.176230912883971
 20
3.798348944493638
 30
0.0
 42
-0.4142135623731077
  0
VERTEX
  5
A6
  8
0
 10
7.046230912883971
 20
3.928348944493638
 30
0.0
 42
-0.4142135623731077
  0
VERTEX
  5
A7
  8
0
 10
7.176230912883971
 20
4.058348944493638
 30
0.0
  0
VERTEX
  5
A8
  8
0
 10
7.176230912883971
 20
4.85595885797883
 30
0.0
 42
-0.847855062383802
  0
VERTEX
  5
A9
  8
0
 10
7.176230912883971
 20
6.345623495966247
 30
0.0
  0
VERTEX
  5
AA
  8
0
 10
7.176230912883971
 20
7.143233409451438
 30
0.0
 42
-1.0
  0
VERTEX
  5
AB
  8
0
 10
7.176230912883971
 20
7.40323340945144
 30
0.0
  0
VERTEX
  5
AC
  8
0
 10
7.176230912883971
 20
7.868033409451439
 30
0.0
  0
VERTEX
  5
AD
  8
0
 10
6.251985241284359
 20
7.868033409451439
 30
0.0
  0
VERTEX
  5
AE
  8
0
 10
6.251985241284359
 20
6.868033409451439
 30
0.0
  0
VERTEX
  5
AF
  8
0
 10
4.948571169686313
 20
6.868033409451439
 30
0.0
  0
VERTEX
  5
B0
  8
0
 10
4.948571169686313
 20
7.868033409451439
 30
0.0
  0
VERTEX
  5
B1
  8
0
 10
3.948571169686313
 20
7.868033409451439
 30
0.0
  0
VERTEX
  5
B2
  8
0
 10
3.948571169686313
 20
7.40323340945144
 30
0.0
 42
-0.9999999999999932
  0
VERTEX
  5
B3
  8
0
 10
3.948571169686313
 20
7.14323340945144
 30
0.0
  0
VERTEX
  5
B4
  8
0
 10
3.948571169686313
 20
5.797925349461299
 30
0.0
  0
VERTEX
  5
B5
  8
0
 10
5.374721060598089
 20
4.371775458549522
 30
0.0
  0
VERTEX
  5
B6
  8
0
 10
5.374721060598089
 20
3.466591065744249
 30
0.0
  0
VERTEX
  5
B7
  8
0
 10
3.948571169686313
 20
2.040441174832473
 30
0.0
  0
VERTEX
  5
B8
  8
0
 10
3.948571169686313
 20
0.7134644795358343
 30
0.0
 42
-1.0
  0
VERTEX
  5
B9
  8
0
 10
3.948571169686313
 20
0.4534644795358336
 30
0.0
  0
SEQEND
  5
1B5
  8
0
  0
POLYLINE
  5
71
  8
0
 66
     1
 10
0.0
 20
0.0
 30
0.0
 70
     1
  0
VERTEX
  5
BA
  8
0
 10
2.242754821018483
 20
-0.0113355204641681
 30
0.0
  0
VERTEX
  5
BB
  8
0
 10
2.242754821018481
 20
1.057231674393911
 30
0.0
 42
-0.7419143888819595
  0
VERTEX
  5
BC
  8
0
 10
2.242754821018483
 20
6.799466214593362
 30
0.0
  0
VERTEX
  5
BD
  8
0
 10
2.242754821018483
 20
7.868033409451439
 30
0.0
  0
VERTEX
  5
BE
  8
0
 10
3.450372685527303
 20
7.868033409451439
 30
0.0
  0
VERTEX
  5
BF
  8
0
 10
3.450372685527303
 20
7.398233409451439
 30
0.0
 42
1.0
  0
VERTEX
  5
C0
  8
0
 10
3.450372685527303
 20
7.148233409451439
 30
0.0
  0
VERTEX
  5
C1
  8
0
 10
3.450372685527303
 20
6.016908180240279
 30
0.0
  0
VERTEX
  5
C2
  8
0
 10
2.720783014514874
 20
6.016908180240279
 30
0.0
 42
0.3279013985506292
  0
VERTEX
  5
C3
  8
0
 10
1.002388729147235
 20
4.178348944493635
 30
0.0
  0
VERTEX
  5
C4
  8
0
 10
1.255580798595125
 20
4.178348944493638
 30
0.0
 42
-0.4142135623730923
  0
VERTEX
  5
C5
  8
0
 10
1.380580798595125
 20
4.053348944493638
 30
0.0
  0
VERTEX
  5
C6
  8
0
 10
1.380580798595125
 20
3.803348944493638
 30
0.0
 42
-0.4142135623730923
  0
VERTEX
  5
C7
  8
0
 10
1.255580798595125
 20
3.678348944493638
 30
0.0
  0
VERTEX
  5
C8
  8
0
 10
1.002388729147235
 20
3.678348944493639
 30
0.0
 42
0.3270742456482785
  0
VERTEX
  5
C9
  8
0
 10
2.714543868358069
 20
1.840969929314901
 30
0.0
  0
VERTEX
  5
CA
  8
0
 10
3.450372685527303
 20
1.840969929314901
 30
0.0
  0
VERTEX
  5
CB
  8
0
 10
3.450372685527303
 20
0.7084644795358344
 30
0.0
 42
1.0
  0
VERTEX
  5
CC
  8
0
 10
3.450372685527303
 20
0.4584644795358335
 30
0.0
  0
VERTEX
  5
CD
  8
0
 10
3.450372685527303
 20
-0.0113355204641681
 30
0.0
  0
SEQEND
  5
1B6
  8
0
  0
POLYLINE
  5
72
  8
0
 66
     1
 10
0.0
 20
0.0
 30
0.0
 70
     1
  0
VERTEX
  5
CE
  8
0
 10
17.79504901610131
 20
-0.0113355204641681
 30
0.0
  0
VERTEX
  5
CF
  8
0
 10
19.07048278140001
 20
-0.0113355204641681
 30
0.0
  0
VERTEX
  5
D0
  8
0
 10
19.07048278140001
 20
0.4534644795358327
 30
0.0
 42
-0.4142135623731043
  0
VERTEX
  5
D1
  8
0
 10
18.94048278140001
 20
0.5834644795358339
 30
0.0
 42
-0.4142135623731043
  0
VERTEX
  5
D2
  8
0
 10
19.07048278140001
 20
0.7134644795358343
 30
0.0
  0
VERTEX
  5
D3
  8
0
 10
19.07048278140001
 20
0.9886644795358341
 30
0.0
  0
VERTEX
  5
D4
  8
0
 10
19.32048278140001
 20
0.9886644795358337
 30
0.0
  0
VERTEX
  5
D5
  8
0
 10
19.32048278140001
 20
3.553348944493638
 30
0.0
  0
VERTEX
  5
D6
  8
0
 10
19.07048278140001
 20
3.553348944493638
 30
0.0
  0
VERTEX
  5
D7
  8
0
 10
19.07048278140001
 20
3.798348944493638
 30
0.0
 42
-0.4142135623731077
  0
VERTEX
  5
D8
  8
0
 10
18.94048278140001
 20
3.928348944493638
 30
0.0
 42
-0.4142135623731077
  0
VERTEX
  5
D9
  8
0
 10
19.07048278140001
 20
4.058348944493638
 30
0.0
  0
VERTEX
  5
DA
  8
0
 10
19.07048278140001
 20
4.303348944493638
 30
0.0
  0
VERTEX
  5
DB
  8
0
 10
19.32048278140001
 20
4.303348944493637
 30
0.0
  0
VERTEX
  5
DC
  8
0
 10
19.32048278140001
 20
6.868033409451437
 30
0.0
  0
VERTEX
  5
DD
  8
0
 10
19.07048278140001
 20
6.868033409451437
 30
0.0
  0
VERTEX
  5
DE
  8
0
 10
19.07048278140001
 20
7.14323340945144
 30
0.0
 42
-1.0
  0
VERTEX
  5
DF
  8
0
 10
19.07048278140001
 20
7.403233409451438
 30
0.0
  0
VERTEX
  5
E0
  8
0
 10
19.07048278140001
 20
7.868033409451439
 30
0.0
  0
VERTEX
  5
E1
  8
0
 10
17.79504901610131
 20
7.868033409451439
 30
0.0
  0
VERTEX
  5
E2
  8
0
 10
17.79504901610131
 20
6.332138392732606
 30
0.0
 42
-0.775965215660548
  0
VERTEX
  5
E3
  8
0
 10
17.79504901610131
 20
4.869443961212474
 30
0.0
  0
VERTEX
  5
E4
  8
0
 10
17.79504901610131
 20
2.987253927774803
 30
0.0
 42
-0.7759652156605485
  0
VERTEX
  5
E5
  8
0
 10
17.79504901610131
 20
1.52455949625467
 30
0.0
  0
SEQEND
  5
1B7
  8
0
  0
POLYLINE
  5
73
  8
0
 66
     1
 10
0.0
 20
0.0
 30
0.0
 70
     1
  0
VERTEX
  5
E6
  8
0
 10
14.06238946803287
 20
-0.0113355204641681
 30
0.0
  0
VERTEX
  5
E7
  8
0
 10
15.06238946803286
 20
-0.0113355204641681
 30
0.0
  0
VERTEX
  5
E8
  8
0
 10
15.06238946803286
 20
0.9886644795358341
 30
0.0
  0
VERTEX
  5
E9
  8
0
 10
16.36580353963088
 20
0.9886644795358341
 30
0.0
  0
VERTEX
  5
EA
  8
0
 10
16.3658035396309
 20
-0.0113355204641681
 30
0.0
  0
VERTEX
  5
EB
  8
0
 10
17.29004921123051
 20
-0.0113355204641681
 30
0.0
  0
VERTEX
  5
EC
  8
0
 10
17.29004921123051
 20
0.4534644795358336
 30
0.0
 42
-0.4142135623731077
  0
VERTEX
  5
ED
  8
0
 10
17.16004921123051
 20
0.5834644795358339
 30
0.0
 42
-0.4142135623731077
  0
VERTEX
  5
EE
  8
0
 10
17.29004921123051
 20
0.7134644795358338
 30
0.0
  0
VERTEX
  5
EF
  8
0
 10
17.29004921123051
 20
1.511074393021027
 30
0.0
 42
-0.8478550623838015
  0
VERTEX
  5
F0
  8
0
 10
17.29004921123051
 20
3.000739031008446
 30
0.0
  0
VERTEX
  5
F1
  8
0
 10
17.29004921123051
 20
3.798348944493638
 30
0.0
 42
-0.4142135623731077
  0
VERTEX
  5
F2
  8
0
 10
17.16004921123051
 20
3.928348944493638
 30
0.0
 42
-0.4142135623731077
  0
VERTEX
  5
F3
  8
0
 10
17.29004921123051
 20
4.058348944493638
 30
0.0
  0
VERTEX
  5
F4
  8
0
 10
17.29004921123051
 20
4.85595885797883
 30
0.0
 42
-0.847855062383802
  0
VERTEX
  5
F5
  8
0
 10
17.29004921123051
 20
6.345623495966247
 30
0.0
  0
VERTEX
  5
F6
  8
0
 10
17.29004921123051
 20
7.143233409451438
 30
0.0
 42
-1.0
  0
VERTEX
  5
F7
  8
0
 10
17.29004921123051
 20
7.40323340945144
 30
0.0
  0
VERTEX
  5
F8
  8
0
 10
17.29004921123051
 20
7.868033409451439
 30
0.0
  0
VERTEX
  5
F9
  8
0
 10
16.3658035396309
 20
7.868033409451439
 30
0.0
  0
VERTEX
  5
FA
  8
0
 10
16.3658035396309
 20
6.868033409451439
 30
0.0
  0
VERTEX
  5
FB
  8
0
 10
15.06238946803286
 20
6.868033409451439
 30
0.0
  0
VERTEX
  5
FC
  8
0
 10
15.06238946803286
 20
7.868033409451439
 30
0.0
  0
VERTEX
  5
FD
  8
0
 10
14.06238946803287
 20
7.868033409451439
 30
0.0
  0
VERTEX
  5
FE
  8
0
 10
14.06238946803287
 20
7.40323340945144
 30
0.0
 42
-0.9999999999999932
  0
VERTEX
  5
FF
  8
0
 10
14.06238946803287
 20
7.14323340945144
 30
0.0
  0
VERTEX
  5
100
  8
0
 10
14.06238946803287
 20
5.797925349461299
 30
0.0
  0
VERTEX
  5
101
  8
0
 10
15.48853935894463
 20
4.371775458549522
 30
0.0
  0
VERTEX
  5
102
  8
0
 10
15.48853935894463
 20
3.466591065744249
 30
0.0
  0
VERTEX
  5
103
  8
0
 10
14.06238946803287
 20
2.040441174832473
 30
0.0
  0
VERTEX
  5
104
  8
0
 10
14.06238946803287
 20
0.7134644795358343
 30
0.0
 42
-1.0
  0
VERTEX
  5
105
  8
0
 10
14.06238946803287
 20
0.4534644795358336
 30
0.0
  0
SEQEND
  5
1B8
  8
0
  0
POLYLINE
  5
74
  8
0
 66
     1
 10
0.0
 20
0.0
 30
0.0
 70
     1
  0
VERTEX
  5
106
  8
0
 10
12.35657311936506
 20
-0.0113355204641681
 30
0.0
  0
VERTEX
  5
107
  8
0
 10
12.35657311936506
 20
1.057231674393911
 30
0.0
 42
-0.7419143888819595
  0
VERTEX
  5
108
  8
0
 10
12.35657311936506
 20
6.799466214593362
 30
0.0
  0
VERTEX
  5
109
  8
0
 10
12.35657311936506
 20
7.868033409451439
 30
0.0
  0
VERTEX
  5
10A
  8
0
 10
13.56419098387387
 20
7.868033409451439
 30
0.0
  0
VERTEX
  5
10B
  8
0
 10
13.56419098387387
 20
7.398233409451439
 30
0.0
 42
1.0
  0
VERTEX
  5
10C
  8
0
 10
13.56419098387387
 20
7.148233409451439
 30
0.0
  0
VERTEX
  5
10D
  8
0
 10
13.56419098387387
 20
6.016908180240279
 30
0.0
  0
VERTEX
  5
10E
  8
0
 10
12.83460131286144
 20
6.016908180240279
 30
0.0
 42
0.3279013985506292
  0
VERTEX
  5
10F
  8
0
 10
11.11620702749382
 20
4.178348944493635
 30
0.0
  0
VERTEX
  5
110
  8
0
 10
11.36939909694171
 20
4.178348944493638
 30
0.0
 42
-0.4142135623730923
  0
VERTEX
  5
111
  8
0
 10
11.49439909694171
 20
4.053348944493638
 30
0.0
  0
VERTEX
  5
112
  8
0
 10
11.49439909694171
 20
3.803348944493638
 30
0.0
 42
-0.4142135623730923
  0
VERTEX
  5
113
  8
0
 10
11.36939909694171
 20
3.678348944493638
 30
0.0
  0
VERTEX
  5
114
  8
0
 10
11.11620702749382
 20
3.678348944493639
 30
0.0
 42
0.3270742456482785
  0
VERTEX
  5
115
  8
0
 10
12.82836216670464
 20
1.840969929314901
 30
0.0
  0
VERTEX
  5
116
  8
0
 10
13.56419098387387
 20
1.840969929314901
 30
0.0
  0
VERTEX
  5
117
  8
0
 10
13.56419098387387
 20
0.7084644795358344
 30
0.0
 42
1.0
  0
VERTEX
  5
118
  8
0
 10
13.56419098387387
 20
0.4584644795358335
 30
0.0
  0
VERTEX
  5
119
  8
0
 10
13.56419098387387
 20
-0.0113355204641681
 30
0.0
  0
SEQEND
  5
1B9
  8
0
  0
POLYLINE
  5
75
  8
0
 66
     1
 10
0.0
 20
0.0
 30
0.0
 70
     1
  0
VERTEX
  5
11A
  8
0
 10
7.678753525257898
 20
9.184497035691074
 30
0.0
  0
VERTEX
  5
11B
  8
0
 10
8.95418729055661
 20
9.184497035691074
 30
0.0
  0
VERTEX
  5
11C
  8
0
 10
8.95418729055661
 20
9.649297035691074
 30
0.0
 42
-0.4142135623731043
  0
VERTEX
  5
11D
  8
0
 10
8.824187290556607
 20
9.779297035691075
 30
0.0
 42
-0.4142135623731043
  0
VERTEX
  5
11E
  8
0
 10
8.95418729055661
 20
9.909297035691075
 30
0.0
  0
VERTEX
  5
11F
  8
0
 10
8.95418729055661
 20
10.18449703569108
 30
0.0
  0
VERTEX
  5
120
  8
0
 10
9.204187290556613
 20
10.18449703569108
 30
0.0
  0
VERTEX
  5
121
  8
0
 10
9.204187290556613
 20
12.74918150064888
 30
0.0
  0
VERTEX
  5
122
  8
0
 10
8.95418729055661
 20
12.74918150064888
 30
0.0
  0
VERTEX
  5
123
  8
0
 10
8.95418729055661
 20
12.99418150064888
 30
0.0
 42
-0.4142135623731077
  0
VERTEX
  5
124
  8
0
 10
8.824187290556607
 20
13.12418150064888
 30
0.0
 42
-0.4142135623731077
  0
VERTEX
  5
125
  8
0
 10
8.95418729055661
 20
13.25418150064888
 30
0.0
  0
VERTEX
  5
126
  8
0
 10
8.95418729055661
 20
13.49918150064888
 30
0.0
  0
VERTEX
  5
127
  8
0
 10
9.204187290556613
 20
13.49918150064888
 30
0.0
  0
VERTEX
  5
128
  8
0
 10
9.204187290556613
 20
16.06386596560668
 30
0.0
  0
VERTEX
  5
129
  8
0
 10
8.95418729055661
 20
16.06386596560668
 30
0.0
  0
VERTEX
  5
12A
  8
0
 10
8.95418729055661
 20
16.33906596560669
 30
0.0
 42
-1.0
  0
VERTEX
  5
12B
  8
0
 10
8.95418729055661
 20
16.59906596560669
 30
0.0
  0
VERTEX
  5
12C
  8
0
 10
8.95418729055661
 20
17.06386596560669
 30
0.0
  0
VERTEX
  5
12D
  8
0
 10
7.678753525257898
 20
17.06386596560669
 30
0.0
  0
VERTEX
  5
12E
  8
0
 10
7.678753525257898
 20
15.52797094888786
 30
0.0
 42
-0.775965215660548
  0
VERTEX
  5
12F
  8
0
 10
7.678753525257898
 20
14.06527651736772
 30
0.0
  0
VERTEX
  5
130
  8
0
 10
7.678753525257898
 20
12.18308648393004
 30
0.0
 42
-0.7759652156605485
  0
VERTEX
  5
131
  8
0
 10
7.678753525257898
 20
10.72039205240991
 30
0.0
  0
SEQEND
  5
1BA
  8
0
  0
POLYLINE
  5
76
  8
0
 66
     1
 10
0.0
 20
0.0
 30
0.0
 70
     1
  0
VERTEX
  5
132
  8
0
 10
3.946093977189412
 20
9.184497035691074
 30
0.0
  0
VERTEX
  5
133
  8
0
 10
4.946093977189419
 20
9.184497035691074
 30
0.0
  0
VERTEX
  5
134
  8
0
 10
4.946093977189419
 20
10.18449703569108
 30
0.0
  0
VERTEX
  5
135
  8
0
 10
6.249508048787456
 20
10.18449703569108
 30
0.0
  0
VERTEX
  5
136
  8
0
 10
6.249508048787478
 20
9.184497035691074
 30
0.0
  0
VERTEX
  5
137
  8
0
 10
7.173753720387095
 20
9.184497035691074
 30
0.0
  0
VERTEX
  5
138
  8
0
 10
7.173753720387095
 20
9.649297035691076
 30
0.0
 42
-0.4142135623731077
  0
VERTEX
  5
139
  8
0
 10
7.043753720387089
 20
9.779297035691075
 30
0.0
 42
-0.4142135623731077
  0
VERTEX
  5
13A
  8
0
 10
7.173753720387095
 20
9.909297035691075
 30
0.0
  0
VERTEX
  5
13B
  8
0
 10
7.173753720387095
 20
10.70690694917627
 30
0.0
 42
-0.8478550623838015
  0
VERTEX
  5
13C
  8
0
 10
7.173753720387095
 20
12.19657158716369
 30
0.0
  0
VERTEX
  5
13D
  8
0
 10
7.173753720387095
 20
12.99418150064888
 30
0.0
 42
-0.4142135623731077
  0
VERTEX
  5
13E
  8
0
 10
7.043753720387089
 20
13.12418150064888
 30
0.0
 42
-0.4142135623731077
  0
VERTEX
  5
13F
  8
0
 10
7.173753720387095
 20
13.25418150064888
 30
0.0
  0
VERTEX
  5
140
  8
0
 10
7.173753720387095
 20
14.05179141413408
 30
0.0
 42
-0.847855062383802
  0
VERTEX
  5
141
  8
0
 10
7.173753720387095
 20
15.5414560521215
 30
0.0
  0
VERTEX
  5
142
  8
0
 10
7.173753720387095
 20
16.33906596560669
 30
0.0
 42
-1.0
  0
VERTEX
  5
143
  8
0
 10
7.173753720387095
 20
16.59906596560669
 30
0.0
  0
VERTEX
  5
144
  8
0
 10
7.173753720387095
 20
17.06386596560669
 30
0.0
  0
VERTEX
  5
145
  8
0
 10
6.249508048787471
 20
17.06386596560669
 30
0.0
  0
VERTEX
  5
146
  8
0
 10
6.249508048787471
 20
16.06386596560669
 30
0.0
  0
VERTEX
  5
147
  8
0
 10
4.946093977189419
 20
16.06386596560669
 30
0.0
  0
VERTEX
  5
148
  8
0
 10
4.946093977189419
 20
17.06386596560669
 30
0.0
  0
VERTEX
  5
149
  8
0
 10
3.946093977189412
 20
17.06386596560669
 30
0.0
  0
VERTEX
  5
14A
  8
0
 10
3.946093977189412
 20
16.59906596560669
 30
0.0
 42
-0.9999999999999932
  0
VERTEX
  5
14B
  8
0
 10
3.946093977189412
 20
16.33906596560669
 30
0.0
  0
VERTEX
  5
14C
  8
0
 10
3.946093977189412
 20
14.99375790561655
 30
0.0
  0
VERTEX
  5
14D
  8
0
 10
5.372243868101195
 20
13.56760801470477
 30
0.0
  0
VERTEX
  5
14E
  8
0
 10
5.372243868101195
 20
12.66242362189949
 30
0.0
  0
VERTEX
  5
14F
  8
0
 10
3.946093977189412
 20
11.23627373098771
 30
0.0
  0
VERTEX
  5
150
  8
0
 10
3.946093977189412
 20
9.909297035691075
 30
0.0
 42
-1.0
  0
VERTEX
  5
151
  8
0
 10
3.946093977189412
 20
9.649297035691076
 30
0.0
  0
SEQEND
  5
1BB
  8
0
  0
POLYLINE
  5
77
  8
0
 66
     1
 10
0.0
 20
0.0
 30
0.0
 70
     1
  0
VERTEX
  5
152
  8
0
 10
2.240277628521577
 20
9.184497035691074
 30
0.0
  0
VERTEX
  5
153
  8
0
 10
2.240277628521577
 20
10.25306423054915
 30
0.0
 42
-0.7419143888819595
  0
VERTEX
  5
154
  8
0
 10
2.240277628521577
 20
15.99529877074861
 30
0.0
  0
VERTEX
  5
155
  8
0
 10
2.240277628521577
 20
17.06386596560669
 30
0.0
  0
VERTEX
  5
156
  8
0
 10
3.447895493030397
 20
17.06386596560669
 30
0.0
  0
VERTEX
  5
157
  8
0
 10
3.447895493030397
 20
16.59406596560669
 30
0.0
 42
1.0
  0
VERTEX
  5
158
  8
0
 10
3.447895493030397
 20
16.34406596560669
 30
0.0
  0
VERTEX
  5
159
  8
0
 10
3.447895493030397
 20
15.21274073639553
 30
0.0
  0
VERTEX
  5
15A
  8
0
 10
2.718305822017969
 20
15.21274073639553
 30
0.0
 42
0.3279013985506292
  0
VERTEX
  5
15B
  8
0
 10
0.9999115366503337
 20
13.37418150064888
 30
0.0
  0
VERTEX
  5
15C
  8
0
 10
1.253103606098225
 20
13.37418150064888
 30
0.0
 42
-0.4142135623730923
  0
VERTEX
  5
15D
  8
0
 10
1.378103606098225
 20
13.24918150064888
 30
0.0
  0
VERTEX
  5
15E
  8
0
 10
1.378103606098225
 20
12.99918150064888
 30
0.0
 42
-0.4142135623730923
  0
VERTEX
  5
15F
  8
0
 10
1.253103606098225
 20
12.87418150064888
 30
0.0
  0
VERTEX
  5
160
  8
0
 10
0.9999115366503337
 20
12.87418150064888
 30
0.0
 42
0.3270742456482785
  0
VERTEX
  5
161
  8
0
 10
2.712066675861164
 20
11.03680248547014
 30
0.0
  0
VERTEX
  5
162
  8
0
 10
3.447895493030397
 20
11.03680248547014
 30
0.0
  0
VERTEX
  5
163
  8
0
 10
3.447895493030397
 20
9.904297035691075
 30
0.0
 42
1.0
  0
VERTEX
  5
164
  8
0
 10
3.447895493030397
 20
9.654297035691075
 30
0.0
  0
VERTEX
  5
165
  8
0
 10
3.447895493030397
 20
9.184497035691074
 30
0.0
  0
SEQEND
  5
1BC
  8
0
  0
POLYLINE
  5
78
  8
0
 66
     1
 10
0.0
 20
0.0
 30
0.0
 70
     1
  0
VERTEX
  5
166
  8
0
 10
17.75283562922405
 20
9.184497035691074
 30
0.0
  0
VERTEX
  5
167
  8
0
 10
19.02826939452276
 20
9.184497035691074
 30
0.0
  0
VERTEX
  5
168
  8
0
 10
19.02826939452275
 20
9.649297035691074
 30
0.0
 42
-0.4142135623731043
  0
VERTEX
  5
169
  8
0
 10
18.89826939452275
 20
9.779297035691075
 30
0.0
 42
-0.4142135623731043
  0
VERTEX
  5
16A
  8
0
 10
19.02826939452275
 20
9.909297035691075
 30
0.0
  0
VERTEX
  5
16B
  8
0
 10
19.02826939452275
 20
10.18449703569108
 30
0.0
  0
VERTEX
  5
16C
  8
0
 10
19.27826939452276
 20
10.18449703569108
 30
0.0
  0
VERTEX
  5
16D
  8
0
 10
19.27826939452276
 20
12.74918150064888
 30
0.0
  0
VERTEX
  5
16E
  8
0
 10
19.02826939452275
 20
12.74918150064888
 30
0.0
  0
VERTEX
  5
16F
  8
0
 10
19.02826939452275
 20
12.99418150064888
 30
0.0
 42
-0.4142135623731077
  0
VERTEX
  5
170
  8
0
 10
18.89826939452275
 20
13.12418150064888
 30
0.0
 42
-0.4142135623731077
  0
VERTEX
  5
171
  8
0
 10
19.02826939452275
 20
13.25418150064888
 30
0.0
  0
VERTEX
  5
172
  8
0
 10
19.02826939452275
 20
13.49918150064888
 30
0.0
  0
VERTEX
  5
173
  8
0
 10
19.27826939452276
 20
13.49918150064888
 30
0.0
  0
VERTEX
  5
174
  8
0
 10
19.27826939452276
 20
16.06386596560668
 30
0.0
  0
VERTEX
  5
175
  8
0
 10
19.02826939452275
 20
16.06386596560668
 30
0.0
  0
VERTEX
  5
176
  8
0
 10
19.02826939452275
 20
16.33906596560669
 30
0.0
 42
-1.0
  0
VERTEX
  5
177
  8
0
 10
19.02826939452275
 20
16.59906596560669
 30
0.0
  0
VERTEX
  5
178
  8
0
 10
19.02826939452275
 20
17.06386596560669
 30
0.0
  0
VERTEX
  5
179
  8
0
 10
17.75283562922405
 20
17.06386596560669
 30
0.0
  0
VERTEX
  5
17A
  8
0
 10
17.75283562922405
 20
15.52797094888786
 30
0.0
 42
-0.775965215660548
  0
VERTEX
  5
17B
  8
0
 10
17.75283562922405
 20
14.06527651736772
 30
0.0
  0
VERTEX
  5
17C
  8
0
 10
17.75283562922405
 20
12.18308648393004
 30
0.0
 42
-0.7759652156605485
  0
VERTEX
  5
17D
  8
0
 10
17.75283562922405
 20
10.72039205240991
 30
0.0
  0
SEQEND
  5
1BD
  8
0
  0
POLYLINE
  5
79
  8
0
 66
     1
 10
0.0
 20
0.0
 30
0.0
 70
     1
  0
VERTEX
  5
17E
  8
0
 10
14.02017608115555
 20
9.184497035691074
 30
0.0
  0
VERTEX
  5
17F
  8
0
 10
15.02017608115556
 20
9.184497035691074
 30
0.0
  0
VERTEX
  5
180
  8
0
 10
15.02017608115556
 20
10.18449703569108
 30
0.0
  0
VERTEX
  5
181
  8
0
 10
16.3235901527536
 20
10.18449703569108
 30
0.0
  0
VERTEX
  5
182
  8
0
 10
16.32359015275362
 20
9.184497035691074
 30
0.0
  0
VERTEX
  5
183
  8
0
 10
17.24783582435323
 20
9.184497035691074
 30
0.0
  0
VERTEX
  5
184
  8
0
 10
17.24783582435323
 20
9.649297035691076
 30
0.0
 42
-0.4142135623731077
  0
VERTEX
  5
185
  8
0
 10
17.11783582435323
 20
9.779297035691075
 30
0.0
 42
-0.4142135623731077
  0
VERTEX
  5
186
  8
0
 10
17.24783582435323
 20
9.909297035691075
 30
0.0
  0
VERTEX
  5
187
  8
0
 10
17.24783582435323
 20
10.70690694917627
 30
0.0
 42
-0.8478550623838015
  0
VERTEX
  5
188
  8
0
 10
17.24783582435323
 20
12.19657158716369
 30
0.0
  0
VERTEX
  5
189
  8
0
 10
17.24783582435323
 20
12.99418150064888
 30
0.0
 42
-0.4142135623731077
  0
VERTEX
  5
18A
  8
0
 10
17.11783582435323
 20
13.12418150064888
 30
0.0
 42
-0.4142135623731077
  0
VERTEX
  5
18B
  8
0
 10
17.24783582435323
 20
13.25418150064888
 30
0.0
  0
VERTEX
  5
18C
  8
0
 10
17.24783582435323
 20
14.05179141413408
 30
0.0
 42
-0.847855062383802
  0
VERTEX
  5
18D
  8
0
 10
17.24783582435323
 20
15.5414560521215
 30
0.0
  0
VERTEX
  5
18E
  8
0
 10
17.24783582435323
 20
16.33906596560669
 30
0.0
 42
-1.0
  0
VERTEX
  5
18F
  8
0
 10
17.24783582435323
 20
16.59906596560669
 30
0.0
  0
VERTEX
  5
190
  8
0
 10
17.24783582435323
 20
17.06386596560669
 30
0.0
  0
VERTEX
  5
191
  8
0
 10
16.32359015275361
 20
17.06386596560669
 30
0.0
  0
VERTEX
  5
192
  8
0
 10
16.32359015275361
 20
16.06386596560669
 30
0.0
  0
VERTEX
  5
193
  8
0
 10
15.02017608115556
 20
16.06386596560669
 30
0.0
  0
VERTEX
  5
194
  8
0
 10
15.02017608115556
 20
17.06386596560669
 30
0.0
  0
VERTEX
  5
195
  8
0
 10
14.02017608115555
 20
17.06386596560669
 30
0.0
  0
VERTEX
  5
196
  8
0
 10
14.02017608115555
 20
16.59906596560669
 30
0.0
 42
-0.9999999999999932
  0
VERTEX
  5
197
  8
0
 10
14.02017608115555
 20
16.33906596560669
 30
0.0
  0
VERTEX
  5
198
  8
0
 10
14.02017608115555
 20
14.99375790561655
 30
0.0
  0
VERTEX
  5
199
  8
0
 10
15.44632597206734
 20
13.56760801470477
 30
0.0
  0
VERTEX
  5
19A
  8
0
 10
15.44632597206734
 20
12.66242362189949
 30
0.0
  0
VERTEX
  5
19B
  8
0
 10
14.02017608115555
 20
11.23627373098771
 30
0.0
  0
VERTEX
  5
19C
  8
0
 10
14.02017608115555
 20
9.909297035691075
 30
0.0
 42
-1.0
  0
VERTEX
  5
19D
  8
0
 10
14.02017608115555
 20
9.649297035691076
 30
0.0
  0
SEQEND
  5
1BE
  8
0
  0
POLYLINE
  5
7A
  8
0
 66
     1
 10
0.0
 20
0.0
 30
0.0
 70
     1
  0
VERTEX
  5
19E
  8
0
 10
12.3143597324877
 20
9.184497035691074
 30
0.0
  0
VERTEX
  5
19F
  8
0
 10
12.3143597324877
 20
10.25306423054915
 30
0.0
 42
-0.7419143888819595
  0
VERTEX
  5
1A0
  8
0
 10
12.3143597324877
 20
15.99529877074861
 30
0.0
  0
VERTEX
  5
1A1
  8
0
 10
12.3143597324877
 20
17.06386596560669
 30
0.0
  0
VERTEX
  5
1A2
  8
0
 10
13.52197759699654
 20
17.06386596560669
 30
0.0
  0
VERTEX
  5
1A3
  8
0
 10
13.52197759699654
 20
16.59406596560669
 30
0.0
 42
1.0
  0
VERTEX
  5
1A4
  8
0
 10
13.52197759699654
 20
16.34406596560669
 30
0.0
  0
VERTEX
  5
1A5
  8
0
 10
13.52197759699654
 20
15.21274073639553
 30
0.0
  0
VERTEX
  5
1A6
  8
0
 10
12.7923879259841
 20
15.21274073639553
 30
0.0
 42
0.3279013985506292
  0
VERTEX
  5
1A7
  8
0
 10
11.07399364061645
 20
13.37418150064888
 30
0.0
  0
VERTEX
  5
1A8
  8
0
 10
11.32718571006434
 20
13.37418150064888
 30
0.0
 42
-0.4142135623730923
  0
VERTEX
  5
1A9
  8
0
 10
11.45218571006434
 20
13.24918150064888
 30
0.0
  0
VERTEX
  5
1AA
  8
0
 10
11.45218571006434
 20
12.99918150064888
 30
0.0
 42
-0.4142135623730923
  0
VERTEX
  5
1AB
  8
0
 10
11.32718571006434
 20
12.87418150064888
 30
0.0
  0
VERTEX
  5
1AC
  8
0
 10
11.07399364061645
 20
12.87418150064888
 30
0.0
 42
0.3270742456482785
  0
VERTEX
  5
1AD
  8
0
 10
12.78614877982729
 20
11.03680248547014
 30
0.0
  0
VERTEX
  5
1AE
  8
0
 10
13.52197759699654
 20
11.03680248547014
 30
0.0
  0
VERTEX
  5
1AF
  8
0
 10
13.52197759699654
 20
9.904297035691075
 30
0.0
 42
1.0
  0
VERTEX
  5
1B0
  8
0
 10
13.52197759699654
 20
9.654297035691075
 30
0.0
  0
VERTEX
  5
1B1
  8
0
 10
13.52197759699654
 20
9.184497035691074
 30
0.0
  0
SEQEND
  5
1BF
  8
0
  0
ENDSEC
  0
EOF
